<?xml version="1.0" encoding="UTF-8"?>
<svg width="700pt" height="700pt" version="1.1" viewBox="0 0 700 700" xmlns="http://www.w3.org/2000/svg">
 <g>
  <path d="m578.26 399.04c22.309-46.836-7.875-66.844-40.809-65.129-24.215 1.2617-37.406 13.363-42.617 19.543-13.141-19.012-35.07-31.48-59.934-31.48-3.3828 0-6.707 0.25391-9.9609 0.69922l0.007813-0.015625s-63.742 1.8477-81.43-9.1992c-2.9766-1.8672-5.543-3.6523-7.7773-5.3828-3.1914-8.1836-8.0234-15.617-14.125-21.961 0.54687-12.703 3.5195-44.547 19.551-51.465 8.6797-3.7539 22.254-0.25781 28.469 1.707 1.0352 0.40625 2.1055 0.76953 3.1797 1.0938 0.078125 0.027344 0.13281 0.042969 0.13281 0.042969v-0.007812c5.3125 1.5664 10.949 2.1133 16.641 1.4922l46.492 13.383c4.1211 2.1133 9.0664 2.6172 13.789 0.96484 9.1562-3.1992 13.984-13.203 10.785-22.359-2.0352-5.8438-6.8516-9.918-12.445-11.27l-22.344-37.262 14.184-13.504-0.035156-0.027343c0.35156-0.29297 0.64453-0.65234 0.85938-1.0781 0.875-1.6875 0.1875-3.7539-1.4922-4.6133-0.875-0.44922-1.8555-0.47656-2.7148-0.16016l-0.007813-0.019531-15.406 4.9844 39.43-37.766c1.0586-1.0156 1.2188-2.6445 0.38672-3.8516l-1-1.4141c-0.83203-1.1836-2.4023-1.6016-3.7031-0.97266l-58.094 27.566 3.6875-10.484-0.015626-0.007813c0.17578-0.41406 0.28125-0.86719 0.28125-1.3438 0-1.8984-1.5312-3.4375-3.4219-3.4375-1 0-1.875 0.42188-2.5 1.0859l-0.015626-0.007813-17.066 17.059c-2.7734 0.37891-5.543 1.0273-8.2891 1.9961-2.0664 0.72266-4.0391 1.582-5.9141 2.5742-5.4727 0.089844-38.688 1.5039-74.527 22.496-45.852 26.859-63.008 78.336-67.629 95.633-27.914-30.863-68.258-50.289-113.05-50.289v29.492c40.531 0 76.539 19.719 98.953 50.062-2.6172 7.6562-4.0117 16.004-4.0117 24.746 0 3.207 0.19531 6.3477 0.56641 9.4141-27.512-24.781-63.363-38.801-101.82-38.801v29.484c43.492 0 82.867 22.219 105.34 59.422l0.035156-0.015625h-0.007812c8.0703 7.918 18.117 12.594 28.531 14.07 5.6719 0.78906 11.445 0.63672 17.066-0.46094l-0.1875 0.14062s20.93-7.9531 66.871 27.371c10.641 8.1758 27.238 12.906 45.414 14.195 6.8594 45.352 43.707 77.055 86.75 77.055 2.8008 0 5.6367-0.14844 8.4766-0.42578 16.539 24.652 24.102 55.363 19.305 87.078l29.16 4.418c5.7188-37.848-2.8711-76.152-24.184-107.86-10.527-15.664-23.723-29.062-38.828-39.695 2.9414-0.50391 5.8242-1.1758 8.6328-2.0156 15.582 12.328 35.152 19.543 55.938 19.543 2.7031 0 5.4258-0.14844 8.168-0.38672 18.641 25.324 27.648 57.75 22.582 91.223l29.156 4.418c6.0977-40.301-3.8438-80.527-27.992-113.3-11.895-16.148-26.551-29.52-43.176-39.668 4.6055-9.5547 7.1875-20.273 7.1875-31.59 0-7.7695-1.2305-15.262-3.4844-22.281 19.559-5.9766 39.094 4.5859 29.969 25.082-7.707 17.312-6.3477 43.156 18.906 54.922 25.262 11.766 42.273-11.949 42.273-11.949-20.613-0.39453-30.516-13.41-17.141-41.5z"/>
  <path d="m545.09 132.52c6.9375 6.9492 9.6953 16.82 10.668 25.285 0.99219-8.4648 3.7461-18.34 10.684-25.285 6.9375-6.9375 16.793-9.6875 25.262-10.676h0.015625c-8.4648-0.98047-18.34-3.7383-25.285-10.676-6.9453-6.9453-9.6953-16.828-10.676-25.289-0.98047 8.4648-3.7305 18.348-10.668 25.289-6.9453 6.9453-16.82 9.6953-25.289 10.676 8.4688 0.97266 18.344 3.7305 25.289 10.676z"/>
  <path d="m492.59 194.19c5.4609 5.4688 7.6445 13.25 8.4141 19.922 0.77734-6.6719 2.9453-14.453 8.4062-19.922 5.4688-5.4727 13.25-7.6445 19.914-8.4141h0.015625c-6.6719-0.76953-14.441-2.9414-19.93-8.4141-5.4688-5.4688-7.6445-13.258-8.4062-19.93-0.76953 6.6719-2.9531 14.453-8.4141 19.93-5.4727 5.4727-13.258 7.6445-19.93 8.4219 6.6797 0.75391 14.457 2.9258 19.93 8.4062z"/>
  <path d="m584.11 178.2c-0.31641 2.6602-1.1758 5.7617-3.3516 7.9375-2.1836 2.1758-5.2773 3.0391-7.9375 3.3516 2.6523 0.30859 5.7539 1.168 7.9375 3.3516 2.1836 2.1758 3.0469 5.2773 3.3516 7.9297 0.30078-2.6523 1.1602-5.7539 3.3516-7.9297 2.1758-2.1758 5.2656-3.0391 7.9297-3.3516-2.6602-0.30859-5.7539-1.168-7.9297-3.3516-2.1875-2.1836-3.0508-5.2852-3.3516-7.9375z"/>
 </g>
</svg>
