<svg xmlns="http://www.w3.org/2000/svg" xmlns:xlink="http://www.w3.org/1999/xlink" width="1080" zoomAndPan="magnify" viewBox="0 0 810 809.999993" height="580" preserveAspectRatio="xMidYMid meet" version="1.0"><defs><clipPath id="b00eb22c49"><path d="M 217 320 L 595 320 L 595 572 L 217 572 Z M 217 320 " clip-rule="nonzero"/></clipPath><clipPath id="1f85d7069e"><path d="M 218.894531 308.5 L 597.5625 316.417969 L 592.152344 575.113281 L 213.484375 567.191406 Z M 218.894531 308.5 " clip-rule="nonzero"/></clipPath><clipPath id="cd3e1a45aa"><path d="M 218.894531 308.5 L 597.5625 316.417969 L 592.152344 575.113281 L 213.484375 567.191406 Z M 218.894531 308.5 " clip-rule="nonzero"/></clipPath><clipPath id="6735debac2"><path d="M 218.894531 308.5 L 597.5625 316.417969 L 592.152344 575.113281 L 213.484375 567.191406 Z M 218.894531 308.5 " clip-rule="nonzero"/></clipPath><clipPath id="5b127b1691"><path d="M 215 318 L 597 318 L 597 575 L 215 575 Z M 215 318 " clip-rule="nonzero"/></clipPath><clipPath id="f09d3a9eed"><path d="M 218.894531 308.5 L 597.5625 316.417969 L 592.152344 575.113281 L 213.484375 567.191406 Z M 218.894531 308.5 " clip-rule="nonzero"/></clipPath><clipPath id="ce9321c400"><path d="M 218.894531 308.5 L 597.5625 316.417969 L 592.152344 575.113281 L 213.484375 567.191406 Z M 218.894531 308.5 " clip-rule="nonzero"/></clipPath><clipPath id="6a112d93cf"><path d="M 218.894531 308.5 L 597.5625 316.417969 L 592.152344 575.113281 L 213.484375 567.191406 Z M 218.894531 308.5 " clip-rule="nonzero"/></clipPath><clipPath id="78985b2b05"><path d="M 229 321 L 574 321 L 574 546 L 229 546 Z M 229 321 " clip-rule="nonzero"/></clipPath><clipPath id="2f08c3fe0b"><path d="M 218.894531 308.5 L 597.5625 316.417969 L 592.152344 575.113281 L 213.484375 567.191406 Z M 218.894531 308.5 " clip-rule="nonzero"/></clipPath><clipPath id="e6537a94a2"><path d="M 218.894531 308.5 L 597.5625 316.417969 L 592.152344 575.113281 L 213.484375 567.191406 Z M 218.894531 308.5 " clip-rule="nonzero"/></clipPath><clipPath id="45869638c9"><path d="M 218.894531 308.5 L 597.5625 316.417969 L 592.152344 575.113281 L 213.484375 567.191406 Z M 218.894531 308.5 " clip-rule="nonzero"/></clipPath><clipPath id="d4b4fc5ec2"><path d="M 226 319 L 574 319 L 574 546 L 226 546 Z M 226 319 " clip-rule="nonzero"/></clipPath><clipPath id="e6cc66aba5"><path d="M 218.894531 308.5 L 597.5625 316.417969 L 592.152344 575.113281 L 213.484375 567.191406 Z M 218.894531 308.5 " clip-rule="nonzero"/></clipPath><clipPath id="0c9c98ce13"><path d="M 218.894531 308.5 L 597.5625 316.417969 L 592.152344 575.113281 L 213.484375 567.191406 Z M 218.894531 308.5 " clip-rule="nonzero"/></clipPath><clipPath id="bcc31f0870"><path d="M 218.894531 308.5 L 597.5625 316.417969 L 592.152344 575.113281 L 213.484375 567.191406 Z M 218.894531 308.5 " clip-rule="nonzero"/></clipPath><clipPath id="c70499ff58"><path d="M 217 311 L 586 311 L 586 562 L 217 562 Z M 217 311 " clip-rule="nonzero"/></clipPath><clipPath id="9c13aa6f25"><path d="M 218.894531 308.5 L 597.5625 316.417969 L 592.152344 575.113281 L 213.484375 567.191406 Z M 218.894531 308.5 " clip-rule="nonzero"/></clipPath><clipPath id="6aa48dbec5"><path d="M 218.894531 308.5 L 597.5625 316.417969 L 592.152344 575.113281 L 213.484375 567.191406 Z M 218.894531 308.5 " clip-rule="nonzero"/></clipPath><clipPath id="4778bdd7c7"><path d="M 218.894531 308.5 L 597.5625 316.417969 L 592.152344 575.113281 L 213.484375 567.191406 Z M 218.894531 308.5 " clip-rule="nonzero"/></clipPath><clipPath id="9eb9b32ff3"><path d="M 214 308 L 589 308 L 589 565 L 214 565 Z M 214 308 " clip-rule="nonzero"/></clipPath><clipPath id="1c58b0ec1f"><path d="M 218.894531 308.5 L 597.5625 316.417969 L 592.152344 575.113281 L 213.484375 567.191406 Z M 218.894531 308.5 " clip-rule="nonzero"/></clipPath><clipPath id="778ac6d3ab"><path d="M 218.894531 308.5 L 597.5625 316.417969 L 592.152344 575.113281 L 213.484375 567.191406 Z M 218.894531 308.5 " clip-rule="nonzero"/></clipPath><clipPath id="7c588dd3f4"><path d="M 218.894531 308.5 L 597.5625 316.417969 L 592.152344 575.113281 L 213.484375 567.191406 Z M 218.894531 308.5 " clip-rule="nonzero"/></clipPath><clipPath id="03eb972d87"><path d="M 252 354 L 552 354 L 552 484 L 252 484 Z M 252 354 " clip-rule="nonzero"/></clipPath><clipPath id="9db1932352"><path d="M 218.894531 308.5 L 597.5625 316.417969 L 592.152344 575.113281 L 213.484375 567.191406 Z M 218.894531 308.5 " clip-rule="nonzero"/></clipPath><clipPath id="d014faf75c"><path d="M 218.894531 308.5 L 597.5625 316.417969 L 592.152344 575.113281 L 213.484375 567.191406 Z M 218.894531 308.5 " clip-rule="nonzero"/></clipPath><clipPath id="717250329f"><path d="M 218.894531 308.5 L 597.5625 316.417969 L 592.152344 575.113281 L 213.484375 567.191406 Z M 218.894531 308.5 " clip-rule="nonzero"/></clipPath><clipPath id="92a21c5813"><path d="M 249 351 L 554 351 L 554 487 L 249 487 Z M 249 351 " clip-rule="nonzero"/></clipPath><clipPath id="b6839495b1"><path d="M 218.894531 308.5 L 597.5625 316.417969 L 592.152344 575.113281 L 213.484375 567.191406 Z M 218.894531 308.5 " clip-rule="nonzero"/></clipPath><clipPath id="5fe1c4abbc"><path d="M 218.894531 308.5 L 597.5625 316.417969 L 592.152344 575.113281 L 213.484375 567.191406 Z M 218.894531 308.5 " clip-rule="nonzero"/></clipPath><clipPath id="98bdac7b3d"><path d="M 218.894531 308.5 L 597.5625 316.417969 L 592.152344 575.113281 L 213.484375 567.191406 Z M 218.894531 308.5 " clip-rule="nonzero"/></clipPath><clipPath id="c8f116c121"><path d="M 345 392 L 381 392 L 381 445 L 345 445 Z M 345 392 " clip-rule="nonzero"/></clipPath><clipPath id="ba4ad602a2"><path d="M 218.894531 308.5 L 597.5625 316.417969 L 592.152344 575.113281 L 213.484375 567.191406 Z M 218.894531 308.5 " clip-rule="nonzero"/></clipPath><clipPath id="faf0ce34a1"><path d="M 218.894531 308.5 L 597.5625 316.417969 L 592.152344 575.113281 L 213.484375 567.191406 Z M 218.894531 308.5 " clip-rule="nonzero"/></clipPath><clipPath id="54c990100d"><path d="M 218.894531 308.5 L 597.5625 316.417969 L 592.152344 575.113281 L 213.484375 567.191406 Z M 218.894531 308.5 " clip-rule="nonzero"/></clipPath><clipPath id="2371fae821"><path d="M 345.671875 391.671875 L 381.914062 392.429688 L 380.824219 444.578125 L 344.582031 443.820312 Z M 345.671875 391.671875 " clip-rule="nonzero"/></clipPath><clipPath id="078bb59d15"><path d="M 346.394531 392.355469 L 381.898438 393.097656 L 380.828125 444.3125 L 345.324219 443.570312 Z M 346.394531 392.355469 " clip-rule="nonzero"/></clipPath><clipPath id="cfce36ea2b"><path d="M 415 393 L 451 393 L 451 446 L 415 446 Z M 415 393 " clip-rule="nonzero"/></clipPath><clipPath id="3f0e7e702a"><path d="M 218.894531 308.5 L 597.5625 316.417969 L 592.152344 575.113281 L 213.484375 567.191406 Z M 218.894531 308.5 " clip-rule="nonzero"/></clipPath><clipPath id="52d7a4b77f"><path d="M 218.894531 308.5 L 597.5625 316.417969 L 592.152344 575.113281 L 213.484375 567.191406 Z M 218.894531 308.5 " clip-rule="nonzero"/></clipPath><clipPath id="2c98d798e0"><path d="M 218.894531 308.5 L 597.5625 316.417969 L 592.152344 575.113281 L 213.484375 567.191406 Z M 218.894531 308.5 " clip-rule="nonzero"/></clipPath><clipPath id="9afdd5df29"><path d="M 414.753906 393.117188 L 450.996094 393.875 L 449.90625 446.023438 L 413.664062 445.265625 Z M 414.753906 393.117188 " clip-rule="nonzero"/></clipPath><clipPath id="fae97fe9d4"><path d="M 414.742188 393.785156 L 450.714844 394.539062 L 449.644531 445.75 L 413.671875 445 Z M 414.742188 393.785156 " clip-rule="nonzero"/></clipPath><clipPath id="00f329867a"><path d="M 345 392 L 451 392 L 451 446 L 345 446 Z M 345 392 " clip-rule="nonzero"/></clipPath><clipPath id="82c3881fa2"><path d="M 218.894531 308.5 L 597.5625 316.417969 L 592.152344 575.113281 L 213.484375 567.191406 Z M 218.894531 308.5 " clip-rule="nonzero"/></clipPath><clipPath id="23b6f7f30c"><path d="M 218.894531 308.5 L 597.5625 316.417969 L 592.152344 575.113281 L 213.484375 567.191406 Z M 218.894531 308.5 " clip-rule="nonzero"/></clipPath><clipPath id="5c3d7ce8a1"><path d="M 218.894531 308.5 L 597.5625 316.417969 L 592.152344 575.113281 L 213.484375 567.191406 Z M 218.894531 308.5 " clip-rule="nonzero"/></clipPath><clipPath id="2b7b5904b1"><path d="M 320 392 L 372 392 L 372 444 L 320 444 Z M 320 392 " clip-rule="nonzero"/></clipPath><clipPath id="59897bee6a"><path d="M 218.894531 308.5 L 597.5625 316.417969 L 592.152344 575.113281 L 213.484375 567.191406 Z M 218.894531 308.5 " clip-rule="nonzero"/></clipPath><clipPath id="3226cd55b4"><path d="M 218.894531 308.5 L 597.5625 316.417969 L 592.152344 575.113281 L 213.484375 567.191406 Z M 218.894531 308.5 " clip-rule="nonzero"/></clipPath><clipPath id="e0919738da"><path d="M 218.894531 308.5 L 597.5625 316.417969 L 592.152344 575.113281 L 213.484375 567.191406 Z M 218.894531 308.5 " clip-rule="nonzero"/></clipPath><clipPath id="5941434371"><path d="M 424 394 L 476 394 L 476 446 L 424 446 Z M 424 394 " clip-rule="nonzero"/></clipPath><clipPath id="c8020066f5"><path d="M 218.894531 308.5 L 597.5625 316.417969 L 592.152344 575.113281 L 213.484375 567.191406 Z M 218.894531 308.5 " clip-rule="nonzero"/></clipPath><clipPath id="142c96f46c"><path d="M 218.894531 308.5 L 597.5625 316.417969 L 592.152344 575.113281 L 213.484375 567.191406 Z M 218.894531 308.5 " clip-rule="nonzero"/></clipPath><clipPath id="f37e215228"><path d="M 218.894531 308.5 L 597.5625 316.417969 L 592.152344 575.113281 L 213.484375 567.191406 Z M 218.894531 308.5 " clip-rule="nonzero"/></clipPath><clipPath id="9501002f4c"><path d="M 329 401 L 363 401 L 363 435 L 329 435 Z M 329 401 " clip-rule="nonzero"/></clipPath><clipPath id="c381c54c85"><path d="M 218.894531 308.5 L 597.5625 316.417969 L 592.152344 575.113281 L 213.484375 567.191406 Z M 218.894531 308.5 " clip-rule="nonzero"/></clipPath><clipPath id="cadeb985b0"><path d="M 218.894531 308.5 L 597.5625 316.417969 L 592.152344 575.113281 L 213.484375 567.191406 Z M 218.894531 308.5 " clip-rule="nonzero"/></clipPath><clipPath id="13cdb1c845"><path d="M 218.894531 308.5 L 597.5625 316.417969 L 592.152344 575.113281 L 213.484375 567.191406 Z M 218.894531 308.5 " clip-rule="nonzero"/></clipPath><clipPath id="a067894171"><path d="M 326 398 L 366 398 L 366 438 L 326 438 Z M 326 398 " clip-rule="nonzero"/></clipPath><clipPath id="9cbdcb9475"><path d="M 218.894531 308.5 L 597.5625 316.417969 L 592.152344 575.113281 L 213.484375 567.191406 Z M 218.894531 308.5 " clip-rule="nonzero"/></clipPath><clipPath id="f55fa22a90"><path d="M 218.894531 308.5 L 597.5625 316.417969 L 592.152344 575.113281 L 213.484375 567.191406 Z M 218.894531 308.5 " clip-rule="nonzero"/></clipPath><clipPath id="0f1eccda53"><path d="M 218.894531 308.5 L 597.5625 316.417969 L 592.152344 575.113281 L 213.484375 567.191406 Z M 218.894531 308.5 " clip-rule="nonzero"/></clipPath><clipPath id="fc5d7766f2"><path d="M 433 403 L 467 403 L 467 437 L 433 437 Z M 433 403 " clip-rule="nonzero"/></clipPath><clipPath id="fa950adf57"><path d="M 218.894531 308.5 L 597.5625 316.417969 L 592.152344 575.113281 L 213.484375 567.191406 Z M 218.894531 308.5 " clip-rule="nonzero"/></clipPath><clipPath id="72e254e6d3"><path d="M 218.894531 308.5 L 597.5625 316.417969 L 592.152344 575.113281 L 213.484375 567.191406 Z M 218.894531 308.5 " clip-rule="nonzero"/></clipPath><clipPath id="f4cd3e213b"><path d="M 218.894531 308.5 L 597.5625 316.417969 L 592.152344 575.113281 L 213.484375 567.191406 Z M 218.894531 308.5 " clip-rule="nonzero"/></clipPath><clipPath id="a3c99399ae"><path d="M 431 400 L 470 400 L 470 440 L 431 440 Z M 431 400 " clip-rule="nonzero"/></clipPath><clipPath id="247ec3a5f3"><path d="M 218.894531 308.5 L 597.5625 316.417969 L 592.152344 575.113281 L 213.484375 567.191406 Z M 218.894531 308.5 " clip-rule="nonzero"/></clipPath><clipPath id="e5fb9c9702"><path d="M 218.894531 308.5 L 597.5625 316.417969 L 592.152344 575.113281 L 213.484375 567.191406 Z M 218.894531 308.5 " clip-rule="nonzero"/></clipPath><clipPath id="7a162b44a8"><path d="M 218.894531 308.5 L 597.5625 316.417969 L 592.152344 575.113281 L 213.484375 567.191406 Z M 218.894531 308.5 " clip-rule="nonzero"/></clipPath><clipPath id="3d4c2491ea"><path d="M 256 359 L 549 359 L 549 381 L 256 381 Z M 256 359 " clip-rule="nonzero"/></clipPath><clipPath id="59f71306dd"><path d="M 218.894531 308.5 L 597.5625 316.417969 L 592.152344 575.113281 L 213.484375 567.191406 Z M 218.894531 308.5 " clip-rule="nonzero"/></clipPath><clipPath id="712a96f5c7"><path d="M 218.894531 308.5 L 597.5625 316.417969 L 592.152344 575.113281 L 213.484375 567.191406 Z M 218.894531 308.5 " clip-rule="nonzero"/></clipPath><clipPath id="721e80402f"><path d="M 218.894531 308.5 L 597.5625 316.417969 L 592.152344 575.113281 L 213.484375 567.191406 Z M 218.894531 308.5 " clip-rule="nonzero"/></clipPath><clipPath id="29c64dc8ab"><path d="M 256.847656 359.195312 L 549.03125 365.304688 L 548.699219 381.175781 L 256.515625 375.0625 Z M 256.847656 359.195312 " clip-rule="nonzero"/></clipPath><clipPath id="b4b87ccd80"><path d="M 256.847656 359.195312 L 549.03125 365.304688 L 548.699219 381.175781 L 256.515625 375.0625 Z M 256.847656 359.195312 " clip-rule="nonzero"/></clipPath><clipPath id="6f57a7baa1"><path d="M 256.917969 355.792969 L 549.101562 361.902344 L 546.589844 482.066406 L 254.402344 475.957031 Z M 256.917969 355.792969 " clip-rule="nonzero"/></clipPath><clipPath id="11379955b6"><path d="M 528.40625 481.019531 L 272.613281 475.667969 C 262.859375 475.464844 255.117188 467.386719 255.324219 457.617188 L 257.058594 374.554688 C 257.265625 364.789062 265.335938 357.035156 275.089844 357.242188 L 530.882812 362.589844 C 540.640625 362.792969 548.378906 370.878906 548.175781 380.640625 L 546.4375 463.707031 C 546.234375 473.476562 538.164062 481.222656 528.40625 481.019531 Z M 528.40625 481.019531 " clip-rule="nonzero"/></clipPath><clipPath id="0179906880"><path d="M 267 509 L 530 509 L 530 562 L 267 562 Z M 267 509 " clip-rule="nonzero"/></clipPath><clipPath id="ff8fa020ae"><path d="M 218.894531 308.5 L 597.5625 316.417969 L 592.152344 575.113281 L 213.484375 567.191406 Z M 218.894531 308.5 " clip-rule="nonzero"/></clipPath><clipPath id="865b003043"><path d="M 218.894531 308.5 L 597.5625 316.417969 L 592.152344 575.113281 L 213.484375 567.191406 Z M 218.894531 308.5 " clip-rule="nonzero"/></clipPath><clipPath id="7d30c2ba76"><path d="M 218.894531 308.5 L 597.5625 316.417969 L 592.152344 575.113281 L 213.484375 567.191406 Z M 218.894531 308.5 " clip-rule="nonzero"/></clipPath><clipPath id="fbd0050125"><path d="M 263 507 L 535 507 L 535 565 L 263 565 Z M 263 507 " clip-rule="nonzero"/></clipPath><clipPath id="f818012979"><path d="M 218.894531 308.5 L 597.5625 316.417969 L 592.152344 575.113281 L 213.484375 567.191406 Z M 218.894531 308.5 " clip-rule="nonzero"/></clipPath><clipPath id="7e9ee4d311"><path d="M 218.894531 308.5 L 597.5625 316.417969 L 592.152344 575.113281 L 213.484375 567.191406 Z M 218.894531 308.5 " clip-rule="nonzero"/></clipPath><clipPath id="0dda5f616d"><path d="M 218.894531 308.5 L 597.5625 316.417969 L 592.152344 575.113281 L 213.484375 567.191406 Z M 218.894531 308.5 " clip-rule="nonzero"/></clipPath><clipPath id="e0bf68d0c8"><path d="M 476 525 L 482 525 L 482 531 L 476 531 Z M 476 525 " clip-rule="nonzero"/></clipPath><clipPath id="a19b2b6de0"><path d="M 218.894531 308.5 L 597.5625 316.417969 L 592.152344 575.113281 L 213.484375 567.191406 Z M 218.894531 308.5 " clip-rule="nonzero"/></clipPath><clipPath id="3f8797a161"><path d="M 218.894531 308.5 L 597.5625 316.417969 L 592.152344 575.113281 L 213.484375 567.191406 Z M 218.894531 308.5 " clip-rule="nonzero"/></clipPath><clipPath id="d550f11ba9"><path d="M 218.894531 308.5 L 597.5625 316.417969 L 592.152344 575.113281 L 213.484375 567.191406 Z M 218.894531 308.5 " clip-rule="nonzero"/></clipPath><clipPath id="13481dc180"><path d="M 489 525 L 495 525 L 495 531 L 489 531 Z M 489 525 " clip-rule="nonzero"/></clipPath><clipPath id="b37b130d07"><path d="M 218.894531 308.5 L 597.5625 316.417969 L 592.152344 575.113281 L 213.484375 567.191406 Z M 218.894531 308.5 " clip-rule="nonzero"/></clipPath><clipPath id="248fdac913"><path d="M 218.894531 308.5 L 597.5625 316.417969 L 592.152344 575.113281 L 213.484375 567.191406 Z M 218.894531 308.5 " clip-rule="nonzero"/></clipPath><clipPath id="5e20c6fcf9"><path d="M 218.894531 308.5 L 597.5625 316.417969 L 592.152344 575.113281 L 213.484375 567.191406 Z M 218.894531 308.5 " clip-rule="nonzero"/></clipPath><clipPath id="d9f5c29bcc"><path d="M 306 521 L 312 521 L 312 527 L 306 527 Z M 306 521 " clip-rule="nonzero"/></clipPath><clipPath id="039102b274"><path d="M 218.894531 308.5 L 597.5625 316.417969 L 592.152344 575.113281 L 213.484375 567.191406 Z M 218.894531 308.5 " clip-rule="nonzero"/></clipPath><clipPath id="8b6e3d1459"><path d="M 218.894531 308.5 L 597.5625 316.417969 L 592.152344 575.113281 L 213.484375 567.191406 Z M 218.894531 308.5 " clip-rule="nonzero"/></clipPath><clipPath id="8ca1d0e5be"><path d="M 218.894531 308.5 L 597.5625 316.417969 L 592.152344 575.113281 L 213.484375 567.191406 Z M 218.894531 308.5 " clip-rule="nonzero"/></clipPath><clipPath id="2ed6b22a84"><path d="M 319 522 L 325 522 L 325 528 L 319 528 Z M 319 522 " clip-rule="nonzero"/></clipPath><clipPath id="9811431a6d"><path d="M 218.894531 308.5 L 597.5625 316.417969 L 592.152344 575.113281 L 213.484375 567.191406 Z M 218.894531 308.5 " clip-rule="nonzero"/></clipPath><clipPath id="3543940406"><path d="M 218.894531 308.5 L 597.5625 316.417969 L 592.152344 575.113281 L 213.484375 567.191406 Z M 218.894531 308.5 " clip-rule="nonzero"/></clipPath><clipPath id="b15b797c83"><path d="M 218.894531 308.5 L 597.5625 316.417969 L 592.152344 575.113281 L 213.484375 567.191406 Z M 218.894531 308.5 " clip-rule="nonzero"/></clipPath><clipPath id="2af4f3de25"><path d="M 332 522 L 338 522 L 338 528 L 332 528 Z M 332 522 " clip-rule="nonzero"/></clipPath><clipPath id="70c870be12"><path d="M 218.894531 308.5 L 597.5625 316.417969 L 592.152344 575.113281 L 213.484375 567.191406 Z M 218.894531 308.5 " clip-rule="nonzero"/></clipPath><clipPath id="a3a7ca4dd1"><path d="M 218.894531 308.5 L 597.5625 316.417969 L 592.152344 575.113281 L 213.484375 567.191406 Z M 218.894531 308.5 " clip-rule="nonzero"/></clipPath><clipPath id="8a08b70f25"><path d="M 218.894531 308.5 L 597.5625 316.417969 L 592.152344 575.113281 L 213.484375 567.191406 Z M 218.894531 308.5 " clip-rule="nonzero"/></clipPath><clipPath id="01308f1f5c"><path d="M 345 522 L 351 522 L 351 528 L 345 528 Z M 345 522 " clip-rule="nonzero"/></clipPath><clipPath id="118be26190"><path d="M 218.894531 308.5 L 597.5625 316.417969 L 592.152344 575.113281 L 213.484375 567.191406 Z M 218.894531 308.5 " clip-rule="nonzero"/></clipPath><clipPath id="a023af3e86"><path d="M 218.894531 308.5 L 597.5625 316.417969 L 592.152344 575.113281 L 213.484375 567.191406 Z M 218.894531 308.5 " clip-rule="nonzero"/></clipPath><clipPath id="51e2c3e77d"><path d="M 218.894531 308.5 L 597.5625 316.417969 L 592.152344 575.113281 L 213.484375 567.191406 Z M 218.894531 308.5 " clip-rule="nonzero"/></clipPath><clipPath id="0034130c45"><path d="M 358 522 L 364 522 L 364 528 L 358 528 Z M 358 522 " clip-rule="nonzero"/></clipPath><clipPath id="da3e9d3d84"><path d="M 218.894531 308.5 L 597.5625 316.417969 L 592.152344 575.113281 L 213.484375 567.191406 Z M 218.894531 308.5 " clip-rule="nonzero"/></clipPath><clipPath id="ce6a8f819b"><path d="M 218.894531 308.5 L 597.5625 316.417969 L 592.152344 575.113281 L 213.484375 567.191406 Z M 218.894531 308.5 " clip-rule="nonzero"/></clipPath><clipPath id="813708eaa9"><path d="M 218.894531 308.5 L 597.5625 316.417969 L 592.152344 575.113281 L 213.484375 567.191406 Z M 218.894531 308.5 " clip-rule="nonzero"/></clipPath><clipPath id="05e2b3e4f4"><path d="M 371 523 L 377 523 L 377 529 L 371 529 Z M 371 523 " clip-rule="nonzero"/></clipPath><clipPath id="82457d1b7b"><path d="M 218.894531 308.5 L 597.5625 316.417969 L 592.152344 575.113281 L 213.484375 567.191406 Z M 218.894531 308.5 " clip-rule="nonzero"/></clipPath><clipPath id="6eaa84b1c8"><path d="M 218.894531 308.5 L 597.5625 316.417969 L 592.152344 575.113281 L 213.484375 567.191406 Z M 218.894531 308.5 " clip-rule="nonzero"/></clipPath><clipPath id="9a9debfdfe"><path d="M 218.894531 308.5 L 597.5625 316.417969 L 592.152344 575.113281 L 213.484375 567.191406 Z M 218.894531 308.5 " clip-rule="nonzero"/></clipPath><clipPath id="94487e6307"><path d="M 384 523 L 390 523 L 390 529 L 384 529 Z M 384 523 " clip-rule="nonzero"/></clipPath><clipPath id="a02ff01490"><path d="M 218.894531 308.5 L 597.5625 316.417969 L 592.152344 575.113281 L 213.484375 567.191406 Z M 218.894531 308.5 " clip-rule="nonzero"/></clipPath><clipPath id="e89b284838"><path d="M 218.894531 308.5 L 597.5625 316.417969 L 592.152344 575.113281 L 213.484375 567.191406 Z M 218.894531 308.5 " clip-rule="nonzero"/></clipPath><clipPath id="24122ed4c7"><path d="M 218.894531 308.5 L 597.5625 316.417969 L 592.152344 575.113281 L 213.484375 567.191406 Z M 218.894531 308.5 " clip-rule="nonzero"/></clipPath><clipPath id="9bde4733c3"><path d="M 397 523 L 403 523 L 403 529 L 397 529 Z M 397 523 " clip-rule="nonzero"/></clipPath><clipPath id="feccadc6dc"><path d="M 218.894531 308.5 L 597.5625 316.417969 L 592.152344 575.113281 L 213.484375 567.191406 Z M 218.894531 308.5 " clip-rule="nonzero"/></clipPath><clipPath id="65f6284925"><path d="M 218.894531 308.5 L 597.5625 316.417969 L 592.152344 575.113281 L 213.484375 567.191406 Z M 218.894531 308.5 " clip-rule="nonzero"/></clipPath><clipPath id="e8f27451d0"><path d="M 218.894531 308.5 L 597.5625 316.417969 L 592.152344 575.113281 L 213.484375 567.191406 Z M 218.894531 308.5 " clip-rule="nonzero"/></clipPath><clipPath id="fac3745c7a"><path d="M 410 523 L 416 523 L 416 530 L 410 530 Z M 410 523 " clip-rule="nonzero"/></clipPath><clipPath id="02193fe457"><path d="M 218.894531 308.5 L 597.5625 316.417969 L 592.152344 575.113281 L 213.484375 567.191406 Z M 218.894531 308.5 " clip-rule="nonzero"/></clipPath><clipPath id="5d7e3648c2"><path d="M 218.894531 308.5 L 597.5625 316.417969 L 592.152344 575.113281 L 213.484375 567.191406 Z M 218.894531 308.5 " clip-rule="nonzero"/></clipPath><clipPath id="ff55566c2b"><path d="M 218.894531 308.5 L 597.5625 316.417969 L 592.152344 575.113281 L 213.484375 567.191406 Z M 218.894531 308.5 " clip-rule="nonzero"/></clipPath><clipPath id="b2d678d253"><path d="M 423 524 L 429 524 L 429 530 L 423 530 Z M 423 524 " clip-rule="nonzero"/></clipPath><clipPath id="74545f0409"><path d="M 218.894531 308.5 L 597.5625 316.417969 L 592.152344 575.113281 L 213.484375 567.191406 Z M 218.894531 308.5 " clip-rule="nonzero"/></clipPath><clipPath id="166b496668"><path d="M 218.894531 308.5 L 597.5625 316.417969 L 592.152344 575.113281 L 213.484375 567.191406 Z M 218.894531 308.5 " clip-rule="nonzero"/></clipPath><clipPath id="726620ad69"><path d="M 218.894531 308.5 L 597.5625 316.417969 L 592.152344 575.113281 L 213.484375 567.191406 Z M 218.894531 308.5 " clip-rule="nonzero"/></clipPath><clipPath id="c939212948"><path d="M 436 524 L 442 524 L 442 530 L 436 530 Z M 436 524 " clip-rule="nonzero"/></clipPath><clipPath id="4fec70f064"><path d="M 218.894531 308.5 L 597.5625 316.417969 L 592.152344 575.113281 L 213.484375 567.191406 Z M 218.894531 308.5 " clip-rule="nonzero"/></clipPath><clipPath id="4a6afbc705"><path d="M 218.894531 308.5 L 597.5625 316.417969 L 592.152344 575.113281 L 213.484375 567.191406 Z M 218.894531 308.5 " clip-rule="nonzero"/></clipPath><clipPath id="fb2fef6108"><path d="M 218.894531 308.5 L 597.5625 316.417969 L 592.152344 575.113281 L 213.484375 567.191406 Z M 218.894531 308.5 " clip-rule="nonzero"/></clipPath><clipPath id="d41e271784"><path d="M 449 524 L 455 524 L 455 530 L 449 530 Z M 449 524 " clip-rule="nonzero"/></clipPath><clipPath id="910bf8182a"><path d="M 218.894531 308.5 L 597.5625 316.417969 L 592.152344 575.113281 L 213.484375 567.191406 Z M 218.894531 308.5 " clip-rule="nonzero"/></clipPath><clipPath id="b9cc5f94d4"><path d="M 218.894531 308.5 L 597.5625 316.417969 L 592.152344 575.113281 L 213.484375 567.191406 Z M 218.894531 308.5 " clip-rule="nonzero"/></clipPath><clipPath id="08f03728a0"><path d="M 218.894531 308.5 L 597.5625 316.417969 L 592.152344 575.113281 L 213.484375 567.191406 Z M 218.894531 308.5 " clip-rule="nonzero"/></clipPath><clipPath id="f4935196ae"><path d="M 462 525 L 469 525 L 469 531 L 462 531 Z M 462 525 " clip-rule="nonzero"/></clipPath><clipPath id="be1a468be8"><path d="M 218.894531 308.5 L 597.5625 316.417969 L 592.152344 575.113281 L 213.484375 567.191406 Z M 218.894531 308.5 " clip-rule="nonzero"/></clipPath><clipPath id="9d944d27ef"><path d="M 218.894531 308.5 L 597.5625 316.417969 L 592.152344 575.113281 L 213.484375 567.191406 Z M 218.894531 308.5 " clip-rule="nonzero"/></clipPath><clipPath id="dac02d4fef"><path d="M 218.894531 308.5 L 597.5625 316.417969 L 592.152344 575.113281 L 213.484375 567.191406 Z M 218.894531 308.5 " clip-rule="nonzero"/></clipPath><clipPath id="60cb55f65f"><path d="M 475 536 L 481 536 L 481 542 L 475 542 Z M 475 536 " clip-rule="nonzero"/></clipPath><clipPath id="c72050f694"><path d="M 218.894531 308.5 L 597.5625 316.417969 L 592.152344 575.113281 L 213.484375 567.191406 Z M 218.894531 308.5 " clip-rule="nonzero"/></clipPath><clipPath id="95308f07ac"><path d="M 218.894531 308.5 L 597.5625 316.417969 L 592.152344 575.113281 L 213.484375 567.191406 Z M 218.894531 308.5 " clip-rule="nonzero"/></clipPath><clipPath id="10b3baeddf"><path d="M 218.894531 308.5 L 597.5625 316.417969 L 592.152344 575.113281 L 213.484375 567.191406 Z M 218.894531 308.5 " clip-rule="nonzero"/></clipPath><clipPath id="2502cb4309"><path d="M 488 536 L 494 536 L 494 543 L 488 543 Z M 488 536 " clip-rule="nonzero"/></clipPath><clipPath id="7982792dc1"><path d="M 218.894531 308.5 L 597.5625 316.417969 L 592.152344 575.113281 L 213.484375 567.191406 Z M 218.894531 308.5 " clip-rule="nonzero"/></clipPath><clipPath id="3305ae8601"><path d="M 218.894531 308.5 L 597.5625 316.417969 L 592.152344 575.113281 L 213.484375 567.191406 Z M 218.894531 308.5 " clip-rule="nonzero"/></clipPath><clipPath id="d5a2df5785"><path d="M 218.894531 308.5 L 597.5625 316.417969 L 592.152344 575.113281 L 213.484375 567.191406 Z M 218.894531 308.5 " clip-rule="nonzero"/></clipPath><clipPath id="a997ed1924"><path d="M 306 533 L 312 533 L 312 539 L 306 539 Z M 306 533 " clip-rule="nonzero"/></clipPath><clipPath id="41dba81325"><path d="M 218.894531 308.5 L 597.5625 316.417969 L 592.152344 575.113281 L 213.484375 567.191406 Z M 218.894531 308.5 " clip-rule="nonzero"/></clipPath><clipPath id="8846bbd306"><path d="M 218.894531 308.5 L 597.5625 316.417969 L 592.152344 575.113281 L 213.484375 567.191406 Z M 218.894531 308.5 " clip-rule="nonzero"/></clipPath><clipPath id="327f0b53bd"><path d="M 218.894531 308.5 L 597.5625 316.417969 L 592.152344 575.113281 L 213.484375 567.191406 Z M 218.894531 308.5 " clip-rule="nonzero"/></clipPath><clipPath id="582c0ed1b9"><path d="M 319 533 L 325 533 L 325 539 L 319 539 Z M 319 533 " clip-rule="nonzero"/></clipPath><clipPath id="a77a432388"><path d="M 218.894531 308.5 L 597.5625 316.417969 L 592.152344 575.113281 L 213.484375 567.191406 Z M 218.894531 308.5 " clip-rule="nonzero"/></clipPath><clipPath id="2cb2cdc601"><path d="M 218.894531 308.5 L 597.5625 316.417969 L 592.152344 575.113281 L 213.484375 567.191406 Z M 218.894531 308.5 " clip-rule="nonzero"/></clipPath><clipPath id="9e80427dfd"><path d="M 218.894531 308.5 L 597.5625 316.417969 L 592.152344 575.113281 L 213.484375 567.191406 Z M 218.894531 308.5 " clip-rule="nonzero"/></clipPath><clipPath id="e3dccc5d58"><path d="M 332 533 L 338 533 L 338 539 L 332 539 Z M 332 533 " clip-rule="nonzero"/></clipPath><clipPath id="7c661bb3a4"><path d="M 218.894531 308.5 L 597.5625 316.417969 L 592.152344 575.113281 L 213.484375 567.191406 Z M 218.894531 308.5 " clip-rule="nonzero"/></clipPath><clipPath id="0930d02c59"><path d="M 218.894531 308.5 L 597.5625 316.417969 L 592.152344 575.113281 L 213.484375 567.191406 Z M 218.894531 308.5 " clip-rule="nonzero"/></clipPath><clipPath id="d268d4d41b"><path d="M 218.894531 308.5 L 597.5625 316.417969 L 592.152344 575.113281 L 213.484375 567.191406 Z M 218.894531 308.5 " clip-rule="nonzero"/></clipPath><clipPath id="ff1df7852a"><path d="M 345 533 L 351 533 L 351 540 L 345 540 Z M 345 533 " clip-rule="nonzero"/></clipPath><clipPath id="2325d30856"><path d="M 218.894531 308.5 L 597.5625 316.417969 L 592.152344 575.113281 L 213.484375 567.191406 Z M 218.894531 308.5 " clip-rule="nonzero"/></clipPath><clipPath id="e291ed73b6"><path d="M 218.894531 308.5 L 597.5625 316.417969 L 592.152344 575.113281 L 213.484375 567.191406 Z M 218.894531 308.5 " clip-rule="nonzero"/></clipPath><clipPath id="7fab69b75e"><path d="M 218.894531 308.5 L 597.5625 316.417969 L 592.152344 575.113281 L 213.484375 567.191406 Z M 218.894531 308.5 " clip-rule="nonzero"/></clipPath><clipPath id="cd1aa4dc49"><path d="M 358 534 L 364 534 L 364 540 L 358 540 Z M 358 534 " clip-rule="nonzero"/></clipPath><clipPath id="94b100c39a"><path d="M 218.894531 308.5 L 597.5625 316.417969 L 592.152344 575.113281 L 213.484375 567.191406 Z M 218.894531 308.5 " clip-rule="nonzero"/></clipPath><clipPath id="02660d3700"><path d="M 218.894531 308.5 L 597.5625 316.417969 L 592.152344 575.113281 L 213.484375 567.191406 Z M 218.894531 308.5 " clip-rule="nonzero"/></clipPath><clipPath id="4586a1734d"><path d="M 218.894531 308.5 L 597.5625 316.417969 L 592.152344 575.113281 L 213.484375 567.191406 Z M 218.894531 308.5 " clip-rule="nonzero"/></clipPath><clipPath id="ac09d857f8"><path d="M 371 534 L 377 534 L 377 540 L 371 540 Z M 371 534 " clip-rule="nonzero"/></clipPath><clipPath id="c93a9790d0"><path d="M 218.894531 308.5 L 597.5625 316.417969 L 592.152344 575.113281 L 213.484375 567.191406 Z M 218.894531 308.5 " clip-rule="nonzero"/></clipPath><clipPath id="8f4db0daed"><path d="M 218.894531 308.5 L 597.5625 316.417969 L 592.152344 575.113281 L 213.484375 567.191406 Z M 218.894531 308.5 " clip-rule="nonzero"/></clipPath><clipPath id="4399fcd5d1"><path d="M 218.894531 308.5 L 597.5625 316.417969 L 592.152344 575.113281 L 213.484375 567.191406 Z M 218.894531 308.5 " clip-rule="nonzero"/></clipPath><clipPath id="604a851a0d"><path d="M 384 534 L 390 534 L 390 540 L 384 540 Z M 384 534 " clip-rule="nonzero"/></clipPath><clipPath id="e3bd9a0971"><path d="M 218.894531 308.5 L 597.5625 316.417969 L 592.152344 575.113281 L 213.484375 567.191406 Z M 218.894531 308.5 " clip-rule="nonzero"/></clipPath><clipPath id="d641b0aaa2"><path d="M 218.894531 308.5 L 597.5625 316.417969 L 592.152344 575.113281 L 213.484375 567.191406 Z M 218.894531 308.5 " clip-rule="nonzero"/></clipPath><clipPath id="1961a109c7"><path d="M 218.894531 308.5 L 597.5625 316.417969 L 592.152344 575.113281 L 213.484375 567.191406 Z M 218.894531 308.5 " clip-rule="nonzero"/></clipPath><clipPath id="36a7f2600c"><path d="M 397 535 L 403 535 L 403 541 L 397 541 Z M 397 535 " clip-rule="nonzero"/></clipPath><clipPath id="54006d3480"><path d="M 218.894531 308.5 L 597.5625 316.417969 L 592.152344 575.113281 L 213.484375 567.191406 Z M 218.894531 308.5 " clip-rule="nonzero"/></clipPath><clipPath id="6f2cadb64f"><path d="M 218.894531 308.5 L 597.5625 316.417969 L 592.152344 575.113281 L 213.484375 567.191406 Z M 218.894531 308.5 " clip-rule="nonzero"/></clipPath><clipPath id="af7839050f"><path d="M 218.894531 308.5 L 597.5625 316.417969 L 592.152344 575.113281 L 213.484375 567.191406 Z M 218.894531 308.5 " clip-rule="nonzero"/></clipPath><clipPath id="cabf3bf0f1"><path d="M 410 535 L 416 535 L 416 541 L 410 541 Z M 410 535 " clip-rule="nonzero"/></clipPath><clipPath id="72766c7bba"><path d="M 218.894531 308.5 L 597.5625 316.417969 L 592.152344 575.113281 L 213.484375 567.191406 Z M 218.894531 308.5 " clip-rule="nonzero"/></clipPath><clipPath id="bb86025906"><path d="M 218.894531 308.5 L 597.5625 316.417969 L 592.152344 575.113281 L 213.484375 567.191406 Z M 218.894531 308.5 " clip-rule="nonzero"/></clipPath><clipPath id="769596092d"><path d="M 218.894531 308.5 L 597.5625 316.417969 L 592.152344 575.113281 L 213.484375 567.191406 Z M 218.894531 308.5 " clip-rule="nonzero"/></clipPath><clipPath id="9595468aa6"><path d="M 423 535 L 429 535 L 429 541 L 423 541 Z M 423 535 " clip-rule="nonzero"/></clipPath><clipPath id="aab2230960"><path d="M 218.894531 308.5 L 597.5625 316.417969 L 592.152344 575.113281 L 213.484375 567.191406 Z M 218.894531 308.5 " clip-rule="nonzero"/></clipPath><clipPath id="9eb782bd09"><path d="M 218.894531 308.5 L 597.5625 316.417969 L 592.152344 575.113281 L 213.484375 567.191406 Z M 218.894531 308.5 " clip-rule="nonzero"/></clipPath><clipPath id="209b61ec07"><path d="M 218.894531 308.5 L 597.5625 316.417969 L 592.152344 575.113281 L 213.484375 567.191406 Z M 218.894531 308.5 " clip-rule="nonzero"/></clipPath><clipPath id="59b8ccc2aa"><path d="M 436 535 L 442 535 L 442 542 L 436 542 Z M 436 535 " clip-rule="nonzero"/></clipPath><clipPath id="8ad454a666"><path d="M 218.894531 308.5 L 597.5625 316.417969 L 592.152344 575.113281 L 213.484375 567.191406 Z M 218.894531 308.5 " clip-rule="nonzero"/></clipPath><clipPath id="36c9b860ab"><path d="M 218.894531 308.5 L 597.5625 316.417969 L 592.152344 575.113281 L 213.484375 567.191406 Z M 218.894531 308.5 " clip-rule="nonzero"/></clipPath><clipPath id="9e34f19e38"><path d="M 218.894531 308.5 L 597.5625 316.417969 L 592.152344 575.113281 L 213.484375 567.191406 Z M 218.894531 308.5 " clip-rule="nonzero"/></clipPath><clipPath id="cf93d419a8"><path d="M 449 536 L 455 536 L 455 542 L 449 542 Z M 449 536 " clip-rule="nonzero"/></clipPath><clipPath id="80b90b87e8"><path d="M 218.894531 308.5 L 597.5625 316.417969 L 592.152344 575.113281 L 213.484375 567.191406 Z M 218.894531 308.5 " clip-rule="nonzero"/></clipPath><clipPath id="dac4a3ee92"><path d="M 218.894531 308.5 L 597.5625 316.417969 L 592.152344 575.113281 L 213.484375 567.191406 Z M 218.894531 308.5 " clip-rule="nonzero"/></clipPath><clipPath id="12aa61fad0"><path d="M 218.894531 308.5 L 597.5625 316.417969 L 592.152344 575.113281 L 213.484375 567.191406 Z M 218.894531 308.5 " clip-rule="nonzero"/></clipPath><clipPath id="2669ef26fe"><path d="M 462 536 L 468 536 L 468 542 L 462 542 Z M 462 536 " clip-rule="nonzero"/></clipPath><clipPath id="c99a41a497"><path d="M 218.894531 308.5 L 597.5625 316.417969 L 592.152344 575.113281 L 213.484375 567.191406 Z M 218.894531 308.5 " clip-rule="nonzero"/></clipPath><clipPath id="0c042d91ea"><path d="M 218.894531 308.5 L 597.5625 316.417969 L 592.152344 575.113281 L 213.484375 567.191406 Z M 218.894531 308.5 " clip-rule="nonzero"/></clipPath><clipPath id="1a8bd2cf4b"><path d="M 218.894531 308.5 L 597.5625 316.417969 L 592.152344 575.113281 L 213.484375 567.191406 Z M 218.894531 308.5 " clip-rule="nonzero"/></clipPath><clipPath id="9f36db53d1"><path d="M 475 548 L 481 548 L 481 554 L 475 554 Z M 475 548 " clip-rule="nonzero"/></clipPath><clipPath id="e9cd7e329a"><path d="M 218.894531 308.5 L 597.5625 316.417969 L 592.152344 575.113281 L 213.484375 567.191406 Z M 218.894531 308.5 " clip-rule="nonzero"/></clipPath><clipPath id="b4986d5272"><path d="M 218.894531 308.5 L 597.5625 316.417969 L 592.152344 575.113281 L 213.484375 567.191406 Z M 218.894531 308.5 " clip-rule="nonzero"/></clipPath><clipPath id="c8fd95376d"><path d="M 218.894531 308.5 L 597.5625 316.417969 L 592.152344 575.113281 L 213.484375 567.191406 Z M 218.894531 308.5 " clip-rule="nonzero"/></clipPath><clipPath id="8fc9644d4e"><path d="M 488 548 L 494 548 L 494 554 L 488 554 Z M 488 548 " clip-rule="nonzero"/></clipPath><clipPath id="7e9f51328d"><path d="M 218.894531 308.5 L 597.5625 316.417969 L 592.152344 575.113281 L 213.484375 567.191406 Z M 218.894531 308.5 " clip-rule="nonzero"/></clipPath><clipPath id="9219d8f1bd"><path d="M 218.894531 308.5 L 597.5625 316.417969 L 592.152344 575.113281 L 213.484375 567.191406 Z M 218.894531 308.5 " clip-rule="nonzero"/></clipPath><clipPath id="3051a2e46d"><path d="M 218.894531 308.5 L 597.5625 316.417969 L 592.152344 575.113281 L 213.484375 567.191406 Z M 218.894531 308.5 " clip-rule="nonzero"/></clipPath><clipPath id="a8e3bba860"><path d="M 305 544 L 311 544 L 311 550 L 305 550 Z M 305 544 " clip-rule="nonzero"/></clipPath><clipPath id="d98e2bea99"><path d="M 218.894531 308.5 L 597.5625 316.417969 L 592.152344 575.113281 L 213.484375 567.191406 Z M 218.894531 308.5 " clip-rule="nonzero"/></clipPath><clipPath id="f2ed09650a"><path d="M 218.894531 308.5 L 597.5625 316.417969 L 592.152344 575.113281 L 213.484375 567.191406 Z M 218.894531 308.5 " clip-rule="nonzero"/></clipPath><clipPath id="08b737a3f7"><path d="M 218.894531 308.5 L 597.5625 316.417969 L 592.152344 575.113281 L 213.484375 567.191406 Z M 218.894531 308.5 " clip-rule="nonzero"/></clipPath><clipPath id="9eda7edf63"><path d="M 318 544 L 324 544 L 324 550 L 318 550 Z M 318 544 " clip-rule="nonzero"/></clipPath><clipPath id="81b3a5419d"><path d="M 218.894531 308.5 L 597.5625 316.417969 L 592.152344 575.113281 L 213.484375 567.191406 Z M 218.894531 308.5 " clip-rule="nonzero"/></clipPath><clipPath id="23eab61fc8"><path d="M 218.894531 308.5 L 597.5625 316.417969 L 592.152344 575.113281 L 213.484375 567.191406 Z M 218.894531 308.5 " clip-rule="nonzero"/></clipPath><clipPath id="6ddca71ed0"><path d="M 218.894531 308.5 L 597.5625 316.417969 L 592.152344 575.113281 L 213.484375 567.191406 Z M 218.894531 308.5 " clip-rule="nonzero"/></clipPath><clipPath id="8b4f59e825"><path d="M 331 545 L 337 545 L 337 551 L 331 551 Z M 331 545 " clip-rule="nonzero"/></clipPath><clipPath id="907129856e"><path d="M 218.894531 308.5 L 597.5625 316.417969 L 592.152344 575.113281 L 213.484375 567.191406 Z M 218.894531 308.5 " clip-rule="nonzero"/></clipPath><clipPath id="f31ccfd2e2"><path d="M 218.894531 308.5 L 597.5625 316.417969 L 592.152344 575.113281 L 213.484375 567.191406 Z M 218.894531 308.5 " clip-rule="nonzero"/></clipPath><clipPath id="4b9e24eb64"><path d="M 218.894531 308.5 L 597.5625 316.417969 L 592.152344 575.113281 L 213.484375 567.191406 Z M 218.894531 308.5 " clip-rule="nonzero"/></clipPath><clipPath id="9ea0ad787d"><path d="M 344 545 L 351 545 L 351 551 L 344 551 Z M 344 545 " clip-rule="nonzero"/></clipPath><clipPath id="c896bd00a3"><path d="M 218.894531 308.5 L 597.5625 316.417969 L 592.152344 575.113281 L 213.484375 567.191406 Z M 218.894531 308.5 " clip-rule="nonzero"/></clipPath><clipPath id="e9b58c31d2"><path d="M 218.894531 308.5 L 597.5625 316.417969 L 592.152344 575.113281 L 213.484375 567.191406 Z M 218.894531 308.5 " clip-rule="nonzero"/></clipPath><clipPath id="17573a4ca5"><path d="M 218.894531 308.5 L 597.5625 316.417969 L 592.152344 575.113281 L 213.484375 567.191406 Z M 218.894531 308.5 " clip-rule="nonzero"/></clipPath><clipPath id="f31e716aa8"><path d="M 358 545 L 364 545 L 364 551 L 358 551 Z M 358 545 " clip-rule="nonzero"/></clipPath><clipPath id="5cd0299d35"><path d="M 218.894531 308.5 L 597.5625 316.417969 L 592.152344 575.113281 L 213.484375 567.191406 Z M 218.894531 308.5 " clip-rule="nonzero"/></clipPath><clipPath id="070731b2e1"><path d="M 218.894531 308.5 L 597.5625 316.417969 L 592.152344 575.113281 L 213.484375 567.191406 Z M 218.894531 308.5 " clip-rule="nonzero"/></clipPath><clipPath id="4cef9fed83"><path d="M 218.894531 308.5 L 597.5625 316.417969 L 592.152344 575.113281 L 213.484375 567.191406 Z M 218.894531 308.5 " clip-rule="nonzero"/></clipPath><clipPath id="5986801faf"><path d="M 371 545 L 377 545 L 377 552 L 371 552 Z M 371 545 " clip-rule="nonzero"/></clipPath><clipPath id="a6888d1c5b"><path d="M 218.894531 308.5 L 597.5625 316.417969 L 592.152344 575.113281 L 213.484375 567.191406 Z M 218.894531 308.5 " clip-rule="nonzero"/></clipPath><clipPath id="3ad9f1556a"><path d="M 218.894531 308.5 L 597.5625 316.417969 L 592.152344 575.113281 L 213.484375 567.191406 Z M 218.894531 308.5 " clip-rule="nonzero"/></clipPath><clipPath id="341b467f76"><path d="M 218.894531 308.5 L 597.5625 316.417969 L 592.152344 575.113281 L 213.484375 567.191406 Z M 218.894531 308.5 " clip-rule="nonzero"/></clipPath><clipPath id="fa3cc66e02"><path d="M 384 546 L 390 546 L 390 552 L 384 552 Z M 384 546 " clip-rule="nonzero"/></clipPath><clipPath id="8d0f54abbe"><path d="M 218.894531 308.5 L 597.5625 316.417969 L 592.152344 575.113281 L 213.484375 567.191406 Z M 218.894531 308.5 " clip-rule="nonzero"/></clipPath><clipPath id="2f12f144df"><path d="M 218.894531 308.5 L 597.5625 316.417969 L 592.152344 575.113281 L 213.484375 567.191406 Z M 218.894531 308.5 " clip-rule="nonzero"/></clipPath><clipPath id="1650c747fc"><path d="M 218.894531 308.5 L 597.5625 316.417969 L 592.152344 575.113281 L 213.484375 567.191406 Z M 218.894531 308.5 " clip-rule="nonzero"/></clipPath><clipPath id="a56484a308"><path d="M 397 546 L 403 546 L 403 552 L 397 552 Z M 397 546 " clip-rule="nonzero"/></clipPath><clipPath id="6a903eab6e"><path d="M 218.894531 308.5 L 597.5625 316.417969 L 592.152344 575.113281 L 213.484375 567.191406 Z M 218.894531 308.5 " clip-rule="nonzero"/></clipPath><clipPath id="6a7fdaf33a"><path d="M 218.894531 308.5 L 597.5625 316.417969 L 592.152344 575.113281 L 213.484375 567.191406 Z M 218.894531 308.5 " clip-rule="nonzero"/></clipPath><clipPath id="ddc5dc6ae0"><path d="M 218.894531 308.5 L 597.5625 316.417969 L 592.152344 575.113281 L 213.484375 567.191406 Z M 218.894531 308.5 " clip-rule="nonzero"/></clipPath><clipPath id="cc866cc9f6"><path d="M 410 546 L 416 546 L 416 552 L 410 552 Z M 410 546 " clip-rule="nonzero"/></clipPath><clipPath id="e01f0b2e9b"><path d="M 218.894531 308.5 L 597.5625 316.417969 L 592.152344 575.113281 L 213.484375 567.191406 Z M 218.894531 308.5 " clip-rule="nonzero"/></clipPath><clipPath id="ef17b6c5ef"><path d="M 218.894531 308.5 L 597.5625 316.417969 L 592.152344 575.113281 L 213.484375 567.191406 Z M 218.894531 308.5 " clip-rule="nonzero"/></clipPath><clipPath id="e6749fe65d"><path d="M 218.894531 308.5 L 597.5625 316.417969 L 592.152344 575.113281 L 213.484375 567.191406 Z M 218.894531 308.5 " clip-rule="nonzero"/></clipPath><clipPath id="5b3ebac2a2"><path d="M 423 547 L 429 547 L 429 553 L 423 553 Z M 423 547 " clip-rule="nonzero"/></clipPath><clipPath id="0fbfbf5881"><path d="M 218.894531 308.5 L 597.5625 316.417969 L 592.152344 575.113281 L 213.484375 567.191406 Z M 218.894531 308.5 " clip-rule="nonzero"/></clipPath><clipPath id="340ca85765"><path d="M 218.894531 308.5 L 597.5625 316.417969 L 592.152344 575.113281 L 213.484375 567.191406 Z M 218.894531 308.5 " clip-rule="nonzero"/></clipPath><clipPath id="5bd7b87a46"><path d="M 218.894531 308.5 L 597.5625 316.417969 L 592.152344 575.113281 L 213.484375 567.191406 Z M 218.894531 308.5 " clip-rule="nonzero"/></clipPath><clipPath id="5b50ee9850"><path d="M 436 547 L 442 547 L 442 553 L 436 553 Z M 436 547 " clip-rule="nonzero"/></clipPath><clipPath id="6ba9668c02"><path d="M 218.894531 308.5 L 597.5625 316.417969 L 592.152344 575.113281 L 213.484375 567.191406 Z M 218.894531 308.5 " clip-rule="nonzero"/></clipPath><clipPath id="b0b49f200d"><path d="M 218.894531 308.5 L 597.5625 316.417969 L 592.152344 575.113281 L 213.484375 567.191406 Z M 218.894531 308.5 " clip-rule="nonzero"/></clipPath><clipPath id="4077167c1a"><path d="M 218.894531 308.5 L 597.5625 316.417969 L 592.152344 575.113281 L 213.484375 567.191406 Z M 218.894531 308.5 " clip-rule="nonzero"/></clipPath><clipPath id="1a51452269"><path d="M 449 547 L 455 547 L 455 553 L 449 553 Z M 449 547 " clip-rule="nonzero"/></clipPath><clipPath id="4479b50a8c"><path d="M 218.894531 308.5 L 597.5625 316.417969 L 592.152344 575.113281 L 213.484375 567.191406 Z M 218.894531 308.5 " clip-rule="nonzero"/></clipPath><clipPath id="4baed37ac4"><path d="M 218.894531 308.5 L 597.5625 316.417969 L 592.152344 575.113281 L 213.484375 567.191406 Z M 218.894531 308.5 " clip-rule="nonzero"/></clipPath><clipPath id="3e9c667a36"><path d="M 218.894531 308.5 L 597.5625 316.417969 L 592.152344 575.113281 L 213.484375 567.191406 Z M 218.894531 308.5 " clip-rule="nonzero"/></clipPath><clipPath id="15bb9768ae"><path d="M 462 547 L 468 547 L 468 553 L 462 553 Z M 462 547 " clip-rule="nonzero"/></clipPath><clipPath id="1a9c7a63f1"><path d="M 218.894531 308.5 L 597.5625 316.417969 L 592.152344 575.113281 L 213.484375 567.191406 Z M 218.894531 308.5 " clip-rule="nonzero"/></clipPath><clipPath id="dacb84370b"><path d="M 218.894531 308.5 L 597.5625 316.417969 L 592.152344 575.113281 L 213.484375 567.191406 Z M 218.894531 308.5 " clip-rule="nonzero"/></clipPath><clipPath id="17c186cf84"><path d="M 218.894531 308.5 L 597.5625 316.417969 L 592.152344 575.113281 L 213.484375 567.191406 Z M 218.894531 308.5 " clip-rule="nonzero"/></clipPath><clipPath id="504b7a94ec"><path d="M 564 335 L 570 335 L 570 341 L 564 341 Z M 564 335 " clip-rule="nonzero"/></clipPath><clipPath id="ec56e63393"><path d="M 218.894531 308.5 L 597.5625 316.417969 L 592.152344 575.113281 L 213.484375 567.191406 Z M 218.894531 308.5 " clip-rule="nonzero"/></clipPath><clipPath id="e06dc94219"><path d="M 218.894531 308.5 L 597.5625 316.417969 L 592.152344 575.113281 L 213.484375 567.191406 Z M 218.894531 308.5 " clip-rule="nonzero"/></clipPath><clipPath id="4e1aab73a5"><path d="M 218.894531 308.5 L 597.5625 316.417969 L 592.152344 575.113281 L 213.484375 567.191406 Z M 218.894531 308.5 " clip-rule="nonzero"/></clipPath><clipPath id="983cbd582d"><path d="M 560 331 L 574 331 L 574 345 L 560 345 Z M 560 331 " clip-rule="nonzero"/></clipPath><clipPath id="a9fdd8aac0"><path d="M 218.894531 308.5 L 597.5625 316.417969 L 592.152344 575.113281 L 213.484375 567.191406 Z M 218.894531 308.5 " clip-rule="nonzero"/></clipPath><clipPath id="f6b48a8bdf"><path d="M 218.894531 308.5 L 597.5625 316.417969 L 592.152344 575.113281 L 213.484375 567.191406 Z M 218.894531 308.5 " clip-rule="nonzero"/></clipPath><clipPath id="3b6c30a74c"><path d="M 218.894531 308.5 L 597.5625 316.417969 L 592.152344 575.113281 L 213.484375 567.191406 Z M 218.894531 308.5 " clip-rule="nonzero"/></clipPath><clipPath id="b7d3a0c332"><path d="M 236 328 L 242 328 L 242 334 L 236 334 Z M 236 328 " clip-rule="nonzero"/></clipPath><clipPath id="faa94e9942"><path d="M 218.894531 308.5 L 597.5625 316.417969 L 592.152344 575.113281 L 213.484375 567.191406 Z M 218.894531 308.5 " clip-rule="nonzero"/></clipPath><clipPath id="572f29c7df"><path d="M 218.894531 308.5 L 597.5625 316.417969 L 592.152344 575.113281 L 213.484375 567.191406 Z M 218.894531 308.5 " clip-rule="nonzero"/></clipPath><clipPath id="e6f6932dfd"><path d="M 218.894531 308.5 L 597.5625 316.417969 L 592.152344 575.113281 L 213.484375 567.191406 Z M 218.894531 308.5 " clip-rule="nonzero"/></clipPath><clipPath id="872460096c"><path d="M 232 324 L 246 324 L 246 338 L 232 338 Z M 232 324 " clip-rule="nonzero"/></clipPath><clipPath id="c4af8493ff"><path d="M 218.894531 308.5 L 597.5625 316.417969 L 592.152344 575.113281 L 213.484375 567.191406 Z M 218.894531 308.5 " clip-rule="nonzero"/></clipPath><clipPath id="116c22e452"><path d="M 218.894531 308.5 L 597.5625 316.417969 L 592.152344 575.113281 L 213.484375 567.191406 Z M 218.894531 308.5 " clip-rule="nonzero"/></clipPath><clipPath id="443874533b"><path d="M 218.894531 308.5 L 597.5625 316.417969 L 592.152344 575.113281 L 213.484375 567.191406 Z M 218.894531 308.5 " clip-rule="nonzero"/></clipPath><clipPath id="5a4e50812f"><path d="M 559 542 L 565 542 L 565 548 L 559 548 Z M 559 542 " clip-rule="nonzero"/></clipPath><clipPath id="bf9fb5e62d"><path d="M 218.894531 308.5 L 597.5625 316.417969 L 592.152344 575.113281 L 213.484375 567.191406 Z M 218.894531 308.5 " clip-rule="nonzero"/></clipPath><clipPath id="6d41aec464"><path d="M 218.894531 308.5 L 597.5625 316.417969 L 592.152344 575.113281 L 213.484375 567.191406 Z M 218.894531 308.5 " clip-rule="nonzero"/></clipPath><clipPath id="f0d60cc185"><path d="M 218.894531 308.5 L 597.5625 316.417969 L 592.152344 575.113281 L 213.484375 567.191406 Z M 218.894531 308.5 " clip-rule="nonzero"/></clipPath><clipPath id="97088cded7"><path d="M 555 539 L 569 539 L 569 552 L 555 552 Z M 555 539 " clip-rule="nonzero"/></clipPath><clipPath id="4dc3b5ddc9"><path d="M 218.894531 308.5 L 597.5625 316.417969 L 592.152344 575.113281 L 213.484375 567.191406 Z M 218.894531 308.5 " clip-rule="nonzero"/></clipPath><clipPath id="4a78841968"><path d="M 218.894531 308.5 L 597.5625 316.417969 L 592.152344 575.113281 L 213.484375 567.191406 Z M 218.894531 308.5 " clip-rule="nonzero"/></clipPath><clipPath id="1cd035ffcc"><path d="M 218.894531 308.5 L 597.5625 316.417969 L 592.152344 575.113281 L 213.484375 567.191406 Z M 218.894531 308.5 " clip-rule="nonzero"/></clipPath><clipPath id="621900e536"><path d="M 232 536 L 238 536 L 238 542 L 232 542 Z M 232 536 " clip-rule="nonzero"/></clipPath><clipPath id="3475f93ee8"><path d="M 218.894531 308.5 L 597.5625 316.417969 L 592.152344 575.113281 L 213.484375 567.191406 Z M 218.894531 308.5 " clip-rule="nonzero"/></clipPath><clipPath id="413e9e80f0"><path d="M 218.894531 308.5 L 597.5625 316.417969 L 592.152344 575.113281 L 213.484375 567.191406 Z M 218.894531 308.5 " clip-rule="nonzero"/></clipPath><clipPath id="ddf463cdb6"><path d="M 218.894531 308.5 L 597.5625 316.417969 L 592.152344 575.113281 L 213.484375 567.191406 Z M 218.894531 308.5 " clip-rule="nonzero"/></clipPath><clipPath id="c05250951d"><path d="M 228 532 L 241 532 L 241 546 L 228 546 Z M 228 532 " clip-rule="nonzero"/></clipPath><clipPath id="e9cb4712ac"><path d="M 218.894531 308.5 L 597.5625 316.417969 L 592.152344 575.113281 L 213.484375 567.191406 Z M 218.894531 308.5 " clip-rule="nonzero"/></clipPath><clipPath id="cf4c51bb46"><path d="M 218.894531 308.5 L 597.5625 316.417969 L 592.152344 575.113281 L 213.484375 567.191406 Z M 218.894531 308.5 " clip-rule="nonzero"/></clipPath><clipPath id="bc8eab35fd"><path d="M 218.894531 308.5 L 597.5625 316.417969 L 592.152344 575.113281 L 213.484375 567.191406 Z M 218.894531 308.5 " clip-rule="nonzero"/></clipPath><clipPath id="46f6a474b4"><path d="M 272 456 L 530 456 L 530 465 L 272 465 Z M 272 456 " clip-rule="nonzero"/></clipPath><clipPath id="4a4d2cba33"><path d="M 218.894531 308.5 L 597.5625 316.417969 L 592.152344 575.113281 L 213.484375 567.191406 Z M 218.894531 308.5 " clip-rule="nonzero"/></clipPath><clipPath id="7a8514fdf8"><path d="M 218.894531 308.5 L 597.5625 316.417969 L 592.152344 575.113281 L 213.484375 567.191406 Z M 218.894531 308.5 " clip-rule="nonzero"/></clipPath><clipPath id="72251563b9"><path d="M 218.894531 308.5 L 597.5625 316.417969 L 592.152344 575.113281 L 213.484375 567.191406 Z M 218.894531 308.5 " clip-rule="nonzero"/></clipPath><clipPath id="1a90b19038"><path d="M 272 463 L 530 463 L 530 472 L 272 472 Z M 272 463 " clip-rule="nonzero"/></clipPath><clipPath id="836fe7893b"><path d="M 218.894531 308.5 L 597.5625 316.417969 L 592.152344 575.113281 L 213.484375 567.191406 Z M 218.894531 308.5 " clip-rule="nonzero"/></clipPath><clipPath id="1a88141a6a"><path d="M 218.894531 308.5 L 597.5625 316.417969 L 592.152344 575.113281 L 213.484375 567.191406 Z M 218.894531 308.5 " clip-rule="nonzero"/></clipPath><clipPath id="56c93eb01e"><path d="M 218.894531 308.5 L 597.5625 316.417969 L 592.152344 575.113281 L 213.484375 567.191406 Z M 218.894531 308.5 " clip-rule="nonzero"/></clipPath><clipPath id="da5372de0c"><path d="M 265 555 L 542 555 L 542 571 L 265 571 Z M 265 555 " clip-rule="nonzero"/></clipPath><clipPath id="157cd7cc02"><path d="M 218.894531 308.5 L 597.5625 316.417969 L 592.152344 575.113281 L 213.484375 567.191406 Z M 218.894531 308.5 " clip-rule="nonzero"/></clipPath><clipPath id="7f2121c871"><path d="M 218.894531 308.5 L 597.5625 316.417969 L 592.152344 575.113281 L 213.484375 567.191406 Z M 218.894531 308.5 " clip-rule="nonzero"/></clipPath><clipPath id="2ad3952399"><path d="M 218.894531 308.5 L 597.5625 316.417969 L 592.152344 575.113281 L 213.484375 567.191406 Z M 218.894531 308.5 " clip-rule="nonzero"/></clipPath><clipPath id="af8cfe7ae0"><path d="M 259 553 L 549 553 L 549 574 L 259 574 Z M 259 553 " clip-rule="nonzero"/></clipPath><clipPath id="d307f3fe72"><path d="M 218.894531 308.5 L 597.5625 316.417969 L 592.152344 575.113281 L 213.484375 567.191406 Z M 218.894531 308.5 " clip-rule="nonzero"/></clipPath><clipPath id="29f7bb7fc0"><path d="M 218.894531 308.5 L 597.5625 316.417969 L 592.152344 575.113281 L 213.484375 567.191406 Z M 218.894531 308.5 " clip-rule="nonzero"/></clipPath><clipPath id="7f883bfd61"><path d="M 218.894531 308.5 L 597.5625 316.417969 L 592.152344 575.113281 L 213.484375 567.191406 Z M 218.894531 308.5 " clip-rule="nonzero"/></clipPath></defs><g clip-path="url(#b00eb22c49)"><g clip-path="url(#1f85d7069e)"><g clip-path="url(#cd3e1a45aa)"><g clip-path="url(#6735debac2)"><path fill="#00d3ce" d="M 573.433594 320.238281 C 583.050781 328.929688 594.386719 338.441406 594.148438 349.871094 L 589.925781 551.636719 C 589.6875 563.066406 580.234375 572.140625 568.816406 571.902344 L 245.636719 565.144531 C 234.21875 564.90625 227.832031 554.6875 217.859375 540.117188 L 573.433594 320.238281 " fill-opacity="1" fill-rule="nonzero"/></g></g></g></g><g clip-path="url(#5b127b1691)"><g clip-path="url(#f09d3a9eed)"><g clip-path="url(#ce9321c400)"><g clip-path="url(#6a112d93cf)"><path fill="#000000" d="M 568.757812 574.648438 L 245.582031 567.886719 C 233.308594 567.632812 226.480469 557.625 217.035156 543.773438 L 215.601562 541.667969 L 220.125 538.570312 L 221.566406 540.675781 C 230.40625 553.636719 236.246094 562.199219 245.695312 562.398438 L 568.875 569.15625 C 578.765625 569.363281 586.976562 561.476562 587.183594 551.582031 L 591.40625 349.8125 C 591.605469 340.277344 582.265625 331.875 573.226562 323.75 L 571.59375 322.277344 L 575.269531 318.203125 L 576.898438 319.664062 C 586.386719 328.203125 597.140625 337.878906 596.890625 349.925781 L 592.667969 551.695312 C 592.398438 564.621094 581.671875 574.917969 568.757812 574.648438 " fill-opacity="1" fill-rule="nonzero"/></g></g></g></g><g clip-path="url(#78985b2b05)"><g clip-path="url(#2f08c3fe0b)"><g clip-path="url(#e6537a94a2)"><g clip-path="url(#45869638c9)"><path fill="#00d3ce" d="M 234.433594 545.015625 L 229.613281 342.246094 C 229.855469 330.816406 239.308594 321.742188 250.722656 321.980469 L 573.902344 328.738281 L 234.433594 545.015625 " fill-opacity="1" fill-rule="nonzero"/></g></g></g></g><g clip-path="url(#d4b4fc5ec2)"><g clip-path="url(#e6cc66aba5)"><g clip-path="url(#0c9c98ce13)"><g clip-path="url(#bcc31f0870)"><path fill="#000000" d="M 231.6875 545.082031 L 226.871094 342.1875 C 227.140625 329.261719 237.867188 318.964844 250.78125 319.234375 L 573.960938 325.996094 L 573.84375 331.484375 L 250.667969 324.726562 C 240.796875 324.519531 232.597656 332.371094 232.359375 342.246094 L 237.175781 544.953125 L 231.6875 545.082031 " fill-opacity="1" fill-rule="nonzero"/></g></g></g></g><g clip-path="url(#c70499ff58)"><g clip-path="url(#9c13aa6f25)"><g clip-path="url(#6aa48dbec5)"><g clip-path="url(#4778bdd7c7)"><path fill="#00d3ce" d="M 560.429688 561.644531 L 237.25 554.882812 C 225.832031 554.644531 216.765625 545.183594 217.003906 533.753906 L 221.226562 331.992188 C 221.464844 320.558594 230.917969 311.484375 242.335938 311.722656 L 565.515625 318.480469 C 576.933594 318.71875 585.996094 328.183594 585.757812 339.617188 L 581.539062 541.378906 C 581.296875 552.808594 571.847656 561.882812 560.429688 561.644531 " fill-opacity="1" fill-rule="nonzero"/></g></g></g></g><g clip-path="url(#9eb9b32ff3)"><g clip-path="url(#1c58b0ec1f)"><g clip-path="url(#778ac6d3ab)"><g clip-path="url(#7c588dd3f4)"><path fill="#000000" d="M 242.277344 314.46875 C 232.390625 314.261719 224.175781 322.148438 223.96875 332.046875 L 219.75 533.8125 C 219.539062 543.714844 227.417969 551.933594 237.308594 552.140625 L 560.484375 558.898438 C 570.371094 559.105469 578.585938 551.222656 578.796875 541.320312 L 583.015625 339.558594 C 583.222656 329.65625 575.34375 321.433594 565.457031 321.226562 Z M 560.371094 564.390625 L 237.191406 557.628906 C 224.277344 557.359375 213.992188 546.625 214.261719 533.695312 L 218.484375 331.933594 C 218.753906 319.003906 229.480469 308.710938 242.394531 308.980469 L 565.570312 315.742188 C 578.484375 316.011719 588.769531 326.742188 588.5 339.671875 L 584.28125 541.4375 C 584.011719 554.363281 573.285156 564.660156 560.371094 564.390625 " fill-opacity="1" fill-rule="nonzero"/></g></g></g></g><g clip-path="url(#03eb972d87)"><g clip-path="url(#9db1932352)"><g clip-path="url(#d014faf75c)"><g clip-path="url(#717250329f)"><path fill="#e9dcd3" d="M 272.554688 478.503906 C 261.253906 478.265625 252.253906 468.871094 252.492188 457.558594 L 254.230469 374.492188 C 254.464844 363.179688 263.851562 354.167969 275.148438 354.40625 L 530.945312 359.757812 C 542.242188 359.992188 551.242188 369.386719 551.007812 380.699219 L 549.269531 463.765625 C 549.03125 475.078125 539.648438 484.089844 528.347656 483.851562 L 272.554688 478.503906 " fill-opacity="1" fill-rule="nonzero"/></g></g></g></g><g clip-path="url(#92a21c5813)"><g clip-path="url(#b6839495b1)"><g clip-path="url(#5fe1c4abbc)"><g clip-path="url(#98bdac7b3d)"><path fill="#231f20" d="M 531.003906 356.921875 L 275.207031 351.570312 C 262.347656 351.304688 251.667969 361.558594 251.398438 374.433594 L 249.660156 457.5 C 249.390625 470.375 259.632812 481.066406 272.496094 481.335938 L 528.289062 486.6875 C 541.148438 486.957031 551.832031 476.703125 552.101562 463.824219 L 553.835938 380.761719 C 554.105469 367.882812 543.863281 357.191406 531.003906 356.921875 Z M 530.882812 362.589844 C 540.640625 362.792969 548.378906 370.878906 548.175781 380.640625 L 546.4375 463.707031 C 546.234375 473.476562 538.164062 481.222656 528.40625 481.019531 L 272.613281 475.667969 C 262.859375 475.464844 255.117188 467.386719 255.324219 457.617188 L 257.058594 374.554688 C 257.265625 364.789062 265.335938 357.035156 275.089844 357.242188 L 530.882812 362.589844 " fill-opacity="1" fill-rule="nonzero"/></g></g></g></g><g clip-path="url(#c8f116c121)"><g clip-path="url(#ba4ad602a2)"><g clip-path="url(#faf0ce34a1)"><g clip-path="url(#54c990100d)"><g clip-path="url(#2371fae821)"><g clip-path="url(#078bb59d15)"><path fill="#008ca1" d="M 345.90625 415.597656 C 344.601562 415.570312 343.519531 416.605469 343.492188 417.910156 C 343.464844 419.21875 344.503906 420.300781 345.808594 420.328125 C 347.113281 420.355469 348.191406 419.316406 348.21875 418.011719 C 348.246094 416.703125 347.210938 415.625 345.90625 415.597656 Z M 345.125 453.003906 C 325.820312 452.601562 310.445312 436.554688 310.847656 417.226562 C 311.253906 397.90625 327.285156 382.515625 346.589844 382.921875 C 365.890625 383.324219 381.269531 399.371094 380.863281 418.691406 C 380.460938 438.019531 364.425781 453.410156 345.125 453.003906 " fill-opacity="1" fill-rule="nonzero"/></g></g></g></g></g></g><g clip-path="url(#cfce36ea2b)"><g clip-path="url(#3f0e7e702a)"><g clip-path="url(#52d7a4b77f)"><g clip-path="url(#2c98d798e0)"><g clip-path="url(#9afdd5df29)"><g clip-path="url(#fae97fe9d4)"><path fill="#008ca1" d="M 450.230469 417.777344 C 448.925781 417.75 447.839844 418.785156 447.8125 420.09375 C 447.785156 421.398438 448.828125 422.484375 450.132812 422.511719 C 451.433594 422.539062 452.515625 421.5 452.542969 420.191406 C 452.570312 418.886719 451.53125 417.804688 450.230469 417.777344 Z M 449.449219 455.1875 C 430.140625 454.785156 414.765625 438.734375 415.171875 419.410156 C 415.574219 400.089844 431.609375 384.699219 450.914062 385.101562 C 470.214844 385.503906 485.589844 401.554688 485.1875 420.875 C 484.78125 440.199219 468.75 455.589844 449.449219 455.1875 " fill-opacity="1" fill-rule="nonzero"/></g></g></g></g></g></g><g clip-path="url(#00f329867a)"><g clip-path="url(#82c3881fa2)"><g clip-path="url(#23b6f7f30c)"><g clip-path="url(#5c3d7ce8a1)"><path fill="#231f20" d="M 450.714844 394.539062 L 346.394531 392.355469 L 345.324219 443.570312 L 449.644531 445.75 Z M 439.15625 405.636719 L 438.558594 434.179688 L 356.882812 432.46875 L 357.480469 403.929688 L 439.15625 405.636719 " fill-opacity="1" fill-rule="nonzero"/></g></g></g></g><g clip-path="url(#2b7b5904b1)"><g clip-path="url(#59897bee6a)"><g clip-path="url(#3226cd55b4)"><g clip-path="url(#e0919738da)"><path fill="#231f20" d="M 371.4375 418.496094 C 371.140625 432.640625 359.449219 443.863281 345.324219 443.570312 C 331.191406 443.273438 319.980469 431.570312 320.273438 417.425781 C 320.570312 403.28125 332.265625 392.0625 346.394531 392.355469 C 360.519531 392.652344 371.734375 404.351562 371.4375 418.496094 " fill-opacity="1" fill-rule="nonzero"/></g></g></g></g><g clip-path="url(#5941434371)"><g clip-path="url(#c8020066f5)"><g clip-path="url(#142c96f46c)"><g clip-path="url(#f37e215228)"><path fill="#231f20" d="M 475.757812 420.675781 C 475.464844 434.820312 463.769531 446.046875 449.644531 445.75 C 435.515625 445.457031 424.300781 433.75 424.597656 419.609375 C 424.894531 405.464844 436.585938 394.242188 450.714844 394.539062 C 464.839844 394.835938 476.054688 406.535156 475.757812 420.675781 " fill-opacity="1" fill-rule="nonzero"/></g></g></g></g><g clip-path="url(#9501002f4c)"><g clip-path="url(#c381c54c85)"><g clip-path="url(#cadeb985b0)"><g clip-path="url(#13cdb1c845)"><path fill="#fdcc4a" d="M 362.175781 418.300781 C 361.988281 427.328125 354.527344 434.488281 345.515625 434.300781 C 336.5 434.113281 329.34375 426.644531 329.535156 417.621094 C 329.722656 408.597656 337.183594 401.4375 346.199219 401.625 C 355.210938 401.8125 362.367188 409.28125 362.175781 418.300781 " fill-opacity="1" fill-rule="nonzero"/></g></g></g></g><g clip-path="url(#a067894171)"><g clip-path="url(#9cbdcb9475)"><g clip-path="url(#f55fa22a90)"><g clip-path="url(#0f1eccda53)"><path fill="#231f20" d="M 346.140625 404.457031 C 338.699219 404.304688 332.519531 410.234375 332.367188 417.679688 C 332.210938 425.125 338.136719 431.3125 345.574219 431.464844 C 353.011719 431.621094 359.191406 425.691406 359.347656 418.242188 C 359.503906 410.800781 353.578125 404.613281 346.140625 404.457031 Z M 345.457031 437.136719 C 334.894531 436.914062 326.480469 428.128906 326.703125 417.558594 C 326.925781 406.988281 335.695312 398.570312 346.257812 398.789062 C 356.820312 399.011719 365.230469 407.789062 365.007812 418.359375 C 364.789062 428.929688 356.015625 437.355469 345.457031 437.136719 " fill-opacity="1" fill-rule="nonzero"/></g></g></g></g><g clip-path="url(#fc5d7766f2)"><g clip-path="url(#fa950adf57)"><g clip-path="url(#72e254e6d3)"><g clip-path="url(#f4cd3e213b)"><path fill="#fdcc4a" d="M 466.5 420.484375 C 466.3125 429.507812 458.851562 436.671875 449.839844 436.484375 C 440.824219 436.292969 433.667969 428.824219 433.855469 419.800781 C 434.046875 410.78125 441.507812 403.617188 450.523438 403.808594 C 459.535156 403.996094 466.6875 411.464844 466.5 420.484375 " fill-opacity="1" fill-rule="nonzero"/></g></g></g></g><g clip-path="url(#a3c99399ae)"><g clip-path="url(#247ec3a5f3)"><g clip-path="url(#e5fb9c9702)"><g clip-path="url(#7a162b44a8)"><path fill="#231f20" d="M 450.464844 406.640625 C 443.023438 406.484375 436.84375 412.417969 436.6875 419.859375 C 436.53125 427.308594 442.457031 433.492188 449.898438 433.648438 C 457.335938 433.804688 463.511719 427.871094 463.667969 420.425781 C 463.824219 412.980469 457.898438 406.796875 450.464844 406.640625 Z M 449.78125 439.316406 C 439.214844 439.097656 430.804688 430.3125 431.027344 419.742188 C 431.246094 409.171875 440.019531 400.75 450.582031 400.972656 C 461.140625 401.195312 469.554688 409.972656 469.332031 420.542969 C 469.109375 431.113281 460.339844 439.539062 449.78125 439.316406 " fill-opacity="1" fill-rule="nonzero"/></g></g></g></g><g clip-path="url(#3d4c2491ea)"><g clip-path="url(#59f71306dd)"><g clip-path="url(#712a96f5c7)"><g clip-path="url(#721e80402f)"><g clip-path="url(#29c64dc8ab)"><g clip-path="url(#b4b87ccd80)"><g clip-path="url(#6f57a7baa1)"><g clip-path="url(#11379955b6)"><path fill="#ff92af" d="M 256.664062 374.476562 L 256.957031 359.742188 L 548.085938 365.5625 L 547.792969 380.300781 L 256.664062 374.476562 " fill-opacity="1" fill-rule="nonzero"/></g></g></g></g></g></g></g></g><g clip-path="url(#0179906880)"><g clip-path="url(#ff8fa020ae)"><g clip-path="url(#865b003043)"><g clip-path="url(#7d30c2ba76)"><path fill="#fdcc4a" d="M 529.996094 561.5625 L 267.65625 556.074219 L 291.496094 521.46875 C 296.574219 514.101562 308.007812 509.488281 320.542969 509.75 L 479.09375 513.066406 C 491.628906 513.328125 502.859375 518.414062 507.625 525.988281 L 529.996094 561.5625 " fill-opacity="1" fill-rule="nonzero"/></g></g></g></g><g clip-path="url(#fbd0050125)"><g clip-path="url(#f818012979)"><g clip-path="url(#7e9ee4d311)"><g clip-path="url(#0dda5f616d)"><path fill="#231f20" d="M 272.246094 553.726562 L 525.511719 559.023438 L 505.554688 527.292969 C 501.210938 520.382812 490.804688 515.757812 479.042969 515.511719 L 320.492188 512.195312 C 308.730469 511.949219 298.140625 516.136719 293.511719 522.855469 Z M 534.484375 564.105469 L 263.066406 558.429688 L 289.484375 520.078125 C 295.027344 512.039062 307.234375 507.027344 320.59375 507.308594 L 479.144531 510.625 C 492.503906 510.902344 504.492188 516.421875 509.695312 524.6875 L 534.484375 564.105469 " fill-opacity="1" fill-rule="nonzero"/></g></g></g></g><g clip-path="url(#e0bf68d0c8)"><g clip-path="url(#a19b2b6de0)"><g clip-path="url(#3f8797a161)"><g clip-path="url(#d550f11ba9)"><path fill="#ff92af" d="M 480.996094 530.386719 L 476.003906 530.28125 L 476.109375 525.28125 L 481.101562 525.386719 L 480.996094 530.386719 " fill-opacity="1" fill-rule="nonzero"/></g></g></g></g><g clip-path="url(#13481dc180)"><g clip-path="url(#b37b130d07)"><g clip-path="url(#248fdac913)"><g clip-path="url(#5e20c6fcf9)"><path fill="#ff92af" d="M 494.050781 530.65625 L 489.058594 530.554688 L 489.164062 525.554688 L 494.15625 525.660156 L 494.050781 530.65625 " fill-opacity="1" fill-rule="nonzero"/></g></g></g></g><g clip-path="url(#d9f5c29bcc)"><g clip-path="url(#039102b274)"><g clip-path="url(#8b6e3d1459)"><g clip-path="url(#8ca1d0e5be)"><path fill="#ff92af" d="M 311.253906 526.835938 L 306.261719 526.730469 L 306.363281 521.730469 L 311.359375 521.835938 L 311.253906 526.835938 " fill-opacity="1" fill-rule="nonzero"/></g></g></g></g><g clip-path="url(#2ed6b22a84)"><g clip-path="url(#9811431a6d)"><g clip-path="url(#3543940406)"><g clip-path="url(#b15b797c83)"><path fill="#ff92af" d="M 324.3125 527.109375 L 319.316406 527.003906 L 319.417969 522.003906 L 324.417969 522.109375 L 324.3125 527.109375 " fill-opacity="1" fill-rule="nonzero"/></g></g></g></g><g clip-path="url(#2af4f3de25)"><g clip-path="url(#70c870be12)"><g clip-path="url(#a3a7ca4dd1)"><g clip-path="url(#8a08b70f25)"><path fill="#ff92af" d="M 337.367188 527.378906 L 332.375 527.277344 L 332.480469 522.277344 L 337.472656 522.382812 L 337.367188 527.378906 " fill-opacity="1" fill-rule="nonzero"/></g></g></g></g><g clip-path="url(#01308f1f5c)"><g clip-path="url(#118be26190)"><g clip-path="url(#a023af3e86)"><g clip-path="url(#51e2c3e77d)"><path fill="#ff92af" d="M 350.429688 527.652344 L 345.429688 527.550781 L 345.535156 522.550781 L 350.53125 522.65625 L 350.429688 527.652344 " fill-opacity="1" fill-rule="nonzero"/></g></g></g></g><g clip-path="url(#0034130c45)"><g clip-path="url(#da3e9d3d84)"><g clip-path="url(#ce6a8f819b)"><g clip-path="url(#813708eaa9)"><path fill="#ff92af" d="M 363.484375 527.925781 L 358.488281 527.824219 L 358.59375 522.824219 L 363.585938 522.925781 L 363.484375 527.925781 " fill-opacity="1" fill-rule="nonzero"/></g></g></g></g><g clip-path="url(#05e2b3e4f4)"><g clip-path="url(#82457d1b7b)"><g clip-path="url(#6eaa84b1c8)"><g clip-path="url(#9a9debfdfe)"><path fill="#ff92af" d="M 376.542969 528.199219 L 371.542969 528.09375 L 371.648438 523.097656 L 376.648438 523.199219 L 376.542969 528.199219 " fill-opacity="1" fill-rule="nonzero"/></g></g></g></g><g clip-path="url(#94487e6307)"><g clip-path="url(#a02ff01490)"><g clip-path="url(#e89b284838)"><g clip-path="url(#24122ed4c7)"><path fill="#ff92af" d="M 389.597656 528.472656 L 384.601562 528.367188 L 384.707031 523.371094 L 389.703125 523.472656 L 389.597656 528.472656 " fill-opacity="1" fill-rule="nonzero"/></g></g></g></g><g clip-path="url(#9bde4733c3)"><g clip-path="url(#feccadc6dc)"><g clip-path="url(#65f6284925)"><g clip-path="url(#e8f27451d0)"><path fill="#ff92af" d="M 402.65625 528.746094 L 397.65625 528.640625 L 397.761719 523.640625 L 402.761719 523.746094 L 402.65625 528.746094 " fill-opacity="1" fill-rule="nonzero"/></g></g></g></g><g clip-path="url(#fac3745c7a)"><g clip-path="url(#02193fe457)"><g clip-path="url(#5d7e3648c2)"><g clip-path="url(#ff55566c2b)"><path fill="#ff92af" d="M 415.710938 529.019531 L 410.714844 528.914062 L 410.820312 523.914062 L 415.816406 524.019531 L 415.710938 529.019531 " fill-opacity="1" fill-rule="nonzero"/></g></g></g></g><g clip-path="url(#b2d678d253)"><g clip-path="url(#74545f0409)"><g clip-path="url(#166b496668)"><g clip-path="url(#726620ad69)"><path fill="#ff92af" d="M 428.769531 529.292969 L 423.773438 529.1875 L 423.878906 524.1875 L 428.875 524.292969 L 428.769531 529.292969 " fill-opacity="1" fill-rule="nonzero"/></g></g></g></g><g clip-path="url(#c939212948)"><g clip-path="url(#4fec70f064)"><g clip-path="url(#4a6afbc705)"><g clip-path="url(#fb2fef6108)"><path fill="#ff92af" d="M 441.824219 529.566406 L 436.828125 529.460938 L 436.933594 524.460938 L 441.929688 524.566406 L 441.824219 529.566406 " fill-opacity="1" fill-rule="nonzero"/></g></g></g></g><g clip-path="url(#d41e271784)"><g clip-path="url(#910bf8182a)"><g clip-path="url(#b9cc5f94d4)"><g clip-path="url(#08f03728a0)"><path fill="#ff92af" d="M 454.882812 529.839844 L 449.882812 529.734375 L 449.988281 524.734375 L 454.988281 524.839844 L 454.882812 529.839844 " fill-opacity="1" fill-rule="nonzero"/></g></g></g></g><g clip-path="url(#f4935196ae)"><g clip-path="url(#be1a468be8)"><g clip-path="url(#9d944d27ef)"><g clip-path="url(#dac02d4fef)"><path fill="#ff92af" d="M 467.941406 530.113281 L 462.945312 530.007812 L 463.046875 525.007812 L 468.046875 525.113281 L 467.941406 530.113281 " fill-opacity="1" fill-rule="nonzero"/></g></g></g></g><g clip-path="url(#60cb55f65f)"><g clip-path="url(#c72050f694)"><g clip-path="url(#95308f07ac)"><g clip-path="url(#10b3baeddf)"><path fill="#ff92af" d="M 480.757812 541.824219 L 475.765625 541.71875 L 475.867188 536.714844 L 480.863281 536.820312 L 480.757812 541.824219 " fill-opacity="1" fill-rule="nonzero"/></g></g></g></g><g clip-path="url(#2502cb4309)"><g clip-path="url(#7982792dc1)"><g clip-path="url(#3305ae8601)"><g clip-path="url(#d5a2df5785)"><path fill="#ff92af" d="M 493.8125 542.097656 L 488.820312 541.992188 L 488.921875 536.988281 L 493.917969 537.09375 L 493.8125 542.097656 " fill-opacity="1" fill-rule="nonzero"/></g></g></g></g><g clip-path="url(#a997ed1924)"><g clip-path="url(#41dba81325)"><g clip-path="url(#8846bbd306)"><g clip-path="url(#327f0b53bd)"><path fill="#ff92af" d="M 311.015625 538.273438 L 306.019531 538.167969 L 306.125 533.164062 L 311.121094 533.269531 L 311.015625 538.273438 " fill-opacity="1" fill-rule="nonzero"/></g></g></g></g><g clip-path="url(#582c0ed1b9)"><g clip-path="url(#a77a432388)"><g clip-path="url(#2cb2cdc601)"><g clip-path="url(#9e80427dfd)"><path fill="#ff92af" d="M 324.074219 538.546875 L 319.074219 538.441406 L 319.179688 533.4375 L 324.179688 533.542969 L 324.074219 538.546875 " fill-opacity="1" fill-rule="nonzero"/></g></g></g></g><g clip-path="url(#e3dccc5d58)"><g clip-path="url(#7c661bb3a4)"><g clip-path="url(#0930d02c59)"><g clip-path="url(#d268d4d41b)"><path fill="#ff92af" d="M 337.128906 538.820312 L 332.136719 538.714844 L 332.238281 533.710938 L 337.234375 533.816406 L 337.128906 538.820312 " fill-opacity="1" fill-rule="nonzero"/></g></g></g></g><g clip-path="url(#ff1df7852a)"><g clip-path="url(#2325d30856)"><g clip-path="url(#e291ed73b6)"><g clip-path="url(#7fab69b75e)"><path fill="#ff92af" d="M 350.1875 539.09375 L 345.191406 538.988281 L 345.292969 533.984375 L 350.292969 534.089844 L 350.1875 539.09375 " fill-opacity="1" fill-rule="nonzero"/></g></g></g></g><g clip-path="url(#cd1aa4dc49)"><g clip-path="url(#94b100c39a)"><g clip-path="url(#02660d3700)"><g clip-path="url(#4586a1734d)"><path fill="#ff92af" d="M 363.242188 539.363281 L 358.25 539.261719 L 358.355469 534.257812 L 363.347656 534.359375 L 363.242188 539.363281 " fill-opacity="1" fill-rule="nonzero"/></g></g></g></g><g clip-path="url(#ac09d857f8)"><g clip-path="url(#c93a9790d0)"><g clip-path="url(#8f4db0daed)"><g clip-path="url(#4399fcd5d1)"><path fill="#ff92af" d="M 376.304688 539.636719 L 371.304688 539.535156 L 371.410156 534.53125 L 376.40625 534.632812 L 376.304688 539.636719 " fill-opacity="1" fill-rule="nonzero"/></g></g></g></g><g clip-path="url(#604a851a0d)"><g clip-path="url(#e3bd9a0971)"><g clip-path="url(#d641b0aaa2)"><g clip-path="url(#1961a109c7)"><path fill="#ff92af" d="M 389.359375 539.910156 L 384.363281 539.808594 L 384.46875 534.804688 L 389.460938 534.90625 L 389.359375 539.910156 " fill-opacity="1" fill-rule="nonzero"/></g></g></g></g><g clip-path="url(#36a7f2600c)"><g clip-path="url(#54006d3480)"><g clip-path="url(#6f2cadb64f)"><g clip-path="url(#af7839050f)"><path fill="#ff92af" d="M 402.417969 540.183594 L 397.417969 540.078125 L 397.523438 535.074219 L 402.519531 535.179688 L 402.417969 540.183594 " fill-opacity="1" fill-rule="nonzero"/></g></g></g></g><g clip-path="url(#cabf3bf0f1)"><g clip-path="url(#72766c7bba)"><g clip-path="url(#bb86025906)"><g clip-path="url(#769596092d)"><path fill="#ff92af" d="M 415.472656 540.457031 L 410.476562 540.351562 L 410.582031 535.347656 L 415.574219 535.453125 L 415.472656 540.457031 " fill-opacity="1" fill-rule="nonzero"/></g></g></g></g><g clip-path="url(#9595468aa6)"><g clip-path="url(#aab2230960)"><g clip-path="url(#9eb782bd09)"><g clip-path="url(#209b61ec07)"><path fill="#ff92af" d="M 428.53125 540.730469 L 423.535156 540.625 L 423.640625 535.621094 L 428.636719 535.726562 L 428.53125 540.730469 " fill-opacity="1" fill-rule="nonzero"/></g></g></g></g><g clip-path="url(#59b8ccc2aa)"><g clip-path="url(#8ad454a666)"><g clip-path="url(#36c9b860ab)"><g clip-path="url(#9e34f19e38)"><path fill="#ff92af" d="M 441.585938 541.003906 L 436.589844 540.898438 L 436.695312 535.894531 L 441.691406 536 L 441.585938 541.003906 " fill-opacity="1" fill-rule="nonzero"/></g></g></g></g><g clip-path="url(#cf93d419a8)"><g clip-path="url(#80b90b87e8)"><g clip-path="url(#dac4a3ee92)"><g clip-path="url(#12aa61fad0)"><path fill="#ff92af" d="M 454.644531 541.277344 L 449.644531 541.171875 L 449.75 536.167969 L 454.75 536.273438 L 454.644531 541.277344 " fill-opacity="1" fill-rule="nonzero"/></g></g></g></g><g clip-path="url(#2669ef26fe)"><g clip-path="url(#c99a41a497)"><g clip-path="url(#0c042d91ea)"><g clip-path="url(#1a8bd2cf4b)"><path fill="#ff92af" d="M 467.703125 541.550781 L 462.703125 541.445312 L 462.808594 536.441406 L 467.808594 536.546875 L 467.703125 541.550781 " fill-opacity="1" fill-rule="nonzero"/></g></g></g></g><g clip-path="url(#9f36db53d1)"><g clip-path="url(#e9cd7e329a)"><g clip-path="url(#b4986d5272)"><g clip-path="url(#c8fd95376d)"><path fill="#ff92af" d="M 480.519531 553.257812 L 475.523438 553.152344 L 475.628906 548.148438 L 480.625 548.253906 L 480.519531 553.257812 " fill-opacity="1" fill-rule="nonzero"/></g></g></g></g><g clip-path="url(#8fc9644d4e)"><g clip-path="url(#7e9f51328d)"><g clip-path="url(#9219d8f1bd)"><g clip-path="url(#3051a2e46d)"><path fill="#ff92af" d="M 493.574219 553.53125 L 488.578125 553.425781 L 488.683594 548.421875 L 493.679688 548.527344 L 493.574219 553.53125 " fill-opacity="1" fill-rule="nonzero"/></g></g></g></g><g clip-path="url(#a8e3bba860)"><g clip-path="url(#d98e2bea99)"><g clip-path="url(#f2ed09650a)"><g clip-path="url(#08b737a3f7)"><path fill="#ff92af" d="M 310.777344 549.707031 L 305.78125 549.601562 L 305.886719 544.597656 L 310.882812 544.703125 L 310.777344 549.707031 " fill-opacity="1" fill-rule="nonzero"/></g></g></g></g><g clip-path="url(#9eda7edf63)"><g clip-path="url(#81b3a5419d)"><g clip-path="url(#23eab61fc8)"><g clip-path="url(#6ddca71ed0)"><path fill="#ff92af" d="M 323.835938 549.980469 L 318.835938 549.875 L 318.941406 544.871094 L 323.941406 544.976562 L 323.835938 549.980469 " fill-opacity="1" fill-rule="nonzero"/></g></g></g></g><g clip-path="url(#8b4f59e825)"><g clip-path="url(#907129856e)"><g clip-path="url(#f31ccfd2e2)"><g clip-path="url(#4b9e24eb64)"><path fill="#ff92af" d="M 336.890625 550.253906 L 331.894531 550.148438 L 332 545.144531 L 336.996094 545.25 L 336.890625 550.253906 " fill-opacity="1" fill-rule="nonzero"/></g></g></g></g><g clip-path="url(#9ea0ad787d)"><g clip-path="url(#c896bd00a3)"><g clip-path="url(#e9b58c31d2)"><g clip-path="url(#17573a4ca5)"><path fill="#ff92af" d="M 349.949219 550.527344 L 344.949219 550.421875 L 345.054688 545.417969 L 350.054688 545.523438 L 349.949219 550.527344 " fill-opacity="1" fill-rule="nonzero"/></g></g></g></g><g clip-path="url(#f31e716aa8)"><g clip-path="url(#5cd0299d35)"><g clip-path="url(#070731b2e1)"><g clip-path="url(#4cef9fed83)"><path fill="#ff92af" d="M 363.003906 550.800781 L 358.011719 550.695312 L 358.113281 545.691406 L 363.109375 545.796875 L 363.003906 550.800781 " fill-opacity="1" fill-rule="nonzero"/></g></g></g></g><g clip-path="url(#5986801faf)"><g clip-path="url(#a6888d1c5b)"><g clip-path="url(#3ad9f1556a)"><g clip-path="url(#341b467f76)"><path fill="#ff92af" d="M 376.0625 551.070312 L 371.066406 550.96875 L 371.167969 545.964844 L 376.167969 546.066406 L 376.0625 551.070312 " fill-opacity="1" fill-rule="nonzero"/></g></g></g></g><g clip-path="url(#fa3cc66e02)"><g clip-path="url(#8d0f54abbe)"><g clip-path="url(#2f12f144df)"><g clip-path="url(#1650c747fc)"><path fill="#ff92af" d="M 389.117188 551.34375 L 384.125 551.242188 L 384.226562 546.238281 L 389.222656 546.339844 L 389.117188 551.34375 " fill-opacity="1" fill-rule="nonzero"/></g></g></g></g><g clip-path="url(#a56484a308)"><g clip-path="url(#6a903eab6e)"><g clip-path="url(#6a7fdaf33a)"><g clip-path="url(#ddc5dc6ae0)"><path fill="#ff92af" d="M 402.175781 551.617188 L 397.179688 551.511719 L 397.285156 546.507812 L 402.28125 546.613281 L 402.175781 551.617188 " fill-opacity="1" fill-rule="nonzero"/></g></g></g></g><g clip-path="url(#cc866cc9f6)"><g clip-path="url(#e01f0b2e9b)"><g clip-path="url(#ef17b6c5ef)"><g clip-path="url(#e6749fe65d)"><path fill="#ff92af" d="M 415.230469 551.890625 L 410.238281 551.785156 L 410.34375 546.78125 L 415.335938 546.886719 L 415.230469 551.890625 " fill-opacity="1" fill-rule="nonzero"/></g></g></g></g><g clip-path="url(#5b3ebac2a2)"><g clip-path="url(#0fbfbf5881)"><g clip-path="url(#340ca85765)"><g clip-path="url(#5bd7b87a46)"><path fill="#ff92af" d="M 428.292969 552.164062 L 423.296875 552.058594 L 423.402344 547.054688 L 428.394531 547.160156 L 428.292969 552.164062 " fill-opacity="1" fill-rule="nonzero"/></g></g></g></g><g clip-path="url(#5b50ee9850)"><g clip-path="url(#6ba9668c02)"><g clip-path="url(#b0b49f200d)"><g clip-path="url(#4077167c1a)"><path fill="#ff92af" d="M 441.347656 552.4375 L 436.351562 552.332031 L 436.457031 547.328125 L 441.449219 547.433594 L 441.347656 552.4375 " fill-opacity="1" fill-rule="nonzero"/></g></g></g></g><g clip-path="url(#1a51452269)"><g clip-path="url(#4479b50a8c)"><g clip-path="url(#4baed37ac4)"><g clip-path="url(#3e9c667a36)"><path fill="#ff92af" d="M 454.40625 552.710938 L 449.40625 552.605469 L 449.511719 547.601562 L 454.511719 547.707031 L 454.40625 552.710938 " fill-opacity="1" fill-rule="nonzero"/></g></g></g></g><g clip-path="url(#15bb9768ae)"><g clip-path="url(#1a9c7a63f1)"><g clip-path="url(#dacb84370b)"><g clip-path="url(#17c186cf84)"><path fill="#ff92af" d="M 467.464844 552.984375 L 462.464844 552.878906 L 462.570312 547.875 L 467.570312 547.980469 L 467.464844 552.984375 " fill-opacity="1" fill-rule="nonzero"/></g></g></g></g><g clip-path="url(#504b7a94ec)"><g clip-path="url(#ec56e63393)"><g clip-path="url(#e06dc94219)"><g clip-path="url(#4e1aab73a5)"><path fill="#ff92af" d="M 566.609375 340.617188 C 565.234375 340.585938 564.136719 339.449219 564.164062 338.070312 C 564.195312 336.691406 565.335938 335.597656 566.714844 335.625 C 568.089844 335.652344 569.183594 336.796875 569.15625 338.175781 C 569.128906 339.550781 567.984375 340.644531 566.609375 340.617188 " fill-opacity="1" fill-rule="nonzero"/></g></g></g></g><g clip-path="url(#983cbd582d)"><g clip-path="url(#a9fdd8aac0)"><g clip-path="url(#f6b48a8bdf)"><g clip-path="url(#3b6c30a74c)"><path fill="#231f20" d="M 566.792969 331.71875 C 563.265625 331.644531 560.339844 334.449219 560.265625 337.988281 C 560.191406 341.523438 562.996094 344.449219 566.527344 344.519531 C 570.0625 344.59375 572.984375 341.789062 573.058594 338.257812 C 573.132812 334.71875 570.328125 331.792969 566.792969 331.71875 " fill-opacity="1" fill-rule="nonzero"/></g></g></g></g><g clip-path="url(#b7d3a0c332)"><g clip-path="url(#faa94e9942)"><g clip-path="url(#572f29c7df)"><g clip-path="url(#e6f6932dfd)"><path fill="#ff92af" d="M 238.851562 333.761719 C 237.476562 333.730469 236.378906 332.59375 236.410156 331.214844 C 236.4375 329.835938 237.582031 328.742188 238.957031 328.769531 C 240.328125 328.796875 241.421875 329.941406 241.394531 331.320312 C 241.367188 332.695312 240.222656 333.789062 238.851562 333.761719 " fill-opacity="1" fill-rule="nonzero"/></g></g></g></g><g clip-path="url(#872460096c)"><g clip-path="url(#c4af8493ff)"><g clip-path="url(#116c22e452)"><g clip-path="url(#443874533b)"><path fill="#231f20" d="M 239.039062 324.863281 C 235.503906 324.789062 232.582031 327.59375 232.507812 331.132812 C 232.433594 334.667969 235.234375 337.589844 238.769531 337.664062 C 242.300781 337.738281 245.222656 334.933594 245.296875 331.402344 C 245.371094 327.863281 242.566406 324.9375 239.039062 324.863281 " fill-opacity="1" fill-rule="nonzero"/></g></g></g></g><g clip-path="url(#5a4e50812f)"><g clip-path="url(#bf9fb5e62d)"><g clip-path="url(#6d41aec464)"><g clip-path="url(#f0d60cc185)"><path fill="#ff92af" d="M 562.273438 547.972656 C 560.894531 547.941406 559.800781 546.800781 559.828125 545.421875 C 559.859375 544.042969 561 542.949219 562.375 542.976562 C 563.753906 543.003906 564.847656 544.148438 564.820312 545.527344 C 564.789062 546.902344 563.648438 548 562.273438 547.972656 " fill-opacity="1" fill-rule="nonzero"/></g></g></g></g><g clip-path="url(#97088cded7)"><g clip-path="url(#4dc3b5ddc9)"><g clip-path="url(#4a78841968)"><g clip-path="url(#1cd035ffcc)"><path fill="#231f20" d="M 562.457031 539.070312 C 558.925781 538.996094 556 541.800781 555.925781 545.339844 C 555.851562 548.875 558.660156 551.800781 562.191406 551.871094 C 565.726562 551.945312 568.648438 549.140625 568.722656 545.609375 C 568.792969 542.070312 565.992188 539.144531 562.457031 539.070312 " fill-opacity="1" fill-rule="nonzero"/></g></g></g></g><g clip-path="url(#621900e536)"><g clip-path="url(#3475f93ee8)"><g clip-path="url(#413e9e80f0)"><g clip-path="url(#ddf463cdb6)"><path fill="#ff92af" d="M 234.515625 541.117188 C 233.140625 541.085938 232.042969 539.945312 232.070312 538.566406 C 232.101562 537.1875 233.242188 536.09375 234.617188 536.121094 C 235.992188 536.148438 237.085938 537.292969 237.058594 538.671875 C 237.027344 540.046875 235.886719 541.144531 234.515625 541.117188 " fill-opacity="1" fill-rule="nonzero"/></g></g></g></g><g clip-path="url(#c05250951d)"><g clip-path="url(#e9cb4712ac)"><g clip-path="url(#cf4c51bb46)"><g clip-path="url(#bc8eab35fd)"><path fill="#231f20" d="M 234.699219 532.214844 C 231.167969 532.140625 228.242188 534.945312 228.171875 538.484375 C 228.097656 542.019531 230.898438 544.945312 234.433594 545.015625 C 237.964844 545.089844 240.886719 542.285156 240.960938 538.753906 C 241.035156 535.214844 238.230469 532.289062 234.699219 532.214844 " fill-opacity="1" fill-rule="nonzero"/></g></g></g></g><g clip-path="url(#46f6a474b4)"><g clip-path="url(#4a4d2cba33)"><g clip-path="url(#7a8514fdf8)"><g clip-path="url(#72251563b9)"><path fill="#231f20" d="M 529.300781 464.160156 L 272.425781 458.785156 L 272.472656 456.519531 L 529.347656 461.890625 L 529.300781 464.160156 " fill-opacity="1" fill-rule="nonzero"/></g></g></g></g><g clip-path="url(#1a90b19038)"><g clip-path="url(#836fe7893b)"><g clip-path="url(#1a88141a6a)"><g clip-path="url(#56c93eb01e)"><path fill="#231f20" d="M 529.15625 471.097656 L 272.28125 465.726562 L 272.328125 463.457031 L 529.203125 468.832031 L 529.15625 471.097656 " fill-opacity="1" fill-rule="nonzero"/></g></g></g></g><g clip-path="url(#da5372de0c)"><g clip-path="url(#157cd7cc02)"><g clip-path="url(#7f2121c871)"><g clip-path="url(#2ad3952399)"><path fill="#fdcc4a" d="M 530.300781 561.222656 L 265.832031 555.691406 L 276.960938 565.449219 L 541.433594 570.980469 L 530.300781 561.222656 " fill-opacity="1" fill-rule="nonzero"/></g></g></g></g><g clip-path="url(#af8cfe7ae0)"><g clip-path="url(#d307f3fe72)"><g clip-path="url(#29f7bb7fc0)"><g clip-path="url(#7f883bfd61)"><path fill="#000000" d="M 277.90625 563.023438 L 534.773438 568.394531 L 529.359375 563.652344 L 272.492188 558.28125 Z M 548.089844 573.570312 L 276.023438 567.878906 L 259.167969 553.105469 L 531.242188 558.796875 L 548.089844 573.570312 " fill-opacity="1" fill-rule="nonzero"/></g></g></g></g></svg>