<svg xmlns="http://www.w3.org/2000/svg" xmlns:xlink="http://www.w3.org/1999/xlink" width="1080" zoomAndPan="magnify" viewBox="0 0 810 809.999993" height="1080" preserveAspectRatio="xMidYMid meet" version="1.0"><defs><clipPath id="c8837df8ad"><path d="M 282 222.195312 L 550 222.195312 L 550 442 L 282 442 Z M 282 222.195312 " clip-rule="nonzero"/></clipPath><clipPath id="562510e831"><path d="M 263 575 L 560.640625 575 L 560.640625 587.445312 L 263 587.445312 Z M 263 575 " clip-rule="nonzero"/></clipPath></defs><path fill="#e9dcd3" d="M 415.878906 501.394531 C 378.546875 501.394531 338.871094 493.613281 338.871094 479.203125 C 338.871094 464.789062 378.546875 457.011719 415.878906 457.011719 C 453.214844 457.011719 492.890625 464.789062 492.890625 479.203125 C 492.890625 493.613281 453.214844 501.394531 415.878906 501.394531 " fill-opacity="1" fill-rule="nonzero"/><path fill="#231f20" d="M 415.878906 455.289062 C 376.75 455.289062 337.140625 463.503906 337.140625 479.203125 C 337.140625 494.90625 376.75 503.117188 415.878906 503.117188 C 455.007812 503.117188 494.621094 494.90625 494.621094 479.203125 C 494.621094 463.503906 455.007812 455.289062 415.878906 455.289062 Z M 415.878906 458.738281 C 457.457031 458.738281 491.164062 467.902344 491.164062 479.203125 C 491.164062 490.503906 457.457031 499.664062 415.878906 499.664062 C 374.300781 499.664062 340.597656 490.503906 340.597656 479.203125 C 340.597656 467.902344 374.300781 458.738281 415.878906 458.738281 " fill-opacity="1" fill-rule="nonzero"/><path fill="#e9dcd3" d="M 415.878906 494.144531 C 378.546875 494.144531 338.871094 486.371094 338.871094 471.957031 C 338.871094 457.546875 378.546875 449.769531 415.878906 449.769531 C 453.214844 449.769531 492.890625 457.546875 492.890625 471.957031 C 492.890625 486.371094 453.214844 494.144531 415.878906 494.144531 " fill-opacity="1" fill-rule="nonzero"/><path fill="#231f20" d="M 415.878906 448.046875 C 376.75 448.046875 337.140625 456.257812 337.140625 471.957031 C 337.140625 487.660156 376.75 495.875 415.878906 495.875 C 455.007812 495.875 494.621094 487.660156 494.621094 471.957031 C 494.621094 456.257812 455.007812 448.046875 415.878906 448.046875 Z M 415.878906 451.496094 C 457.457031 451.496094 491.164062 460.65625 491.164062 471.957031 C 491.164062 483.257812 457.457031 492.421875 415.878906 492.421875 C 374.300781 492.421875 340.597656 483.257812 340.597656 471.957031 C 340.597656 460.65625 374.300781 451.496094 415.878906 451.496094 " fill-opacity="1" fill-rule="nonzero"/><path fill="#e9dcd3" d="M 379.285156 464.652344 C 379.285156 464.652344 397.832031 451.03125 397.832031 436.34375 L 420.125 436.34375 L 437.488281 436.132812 C 437.488281 436.132812 442.953125 458.910156 452.472656 465.050781 L 379.285156 464.652344 " fill-opacity="1" fill-rule="nonzero"/><path fill="#231f20" d="M 451.539062 466.503906 C 442.820312 460.878906 437.511719 442.980469 436.148438 437.875 L 420.144531 438.070312 L 399.484375 438.070312 C 398.199219 452.742188 381.0625 465.488281 380.308594 466.042969 L 378.261719 463.261719 C 378.441406 463.128906 396.105469 449.976562 396.105469 436.34375 L 396.105469 434.617188 L 420.125 434.617188 L 438.847656 434.394531 L 439.167969 435.734375 C 439.222656 435.953125 444.582031 457.910156 453.410156 463.605469 L 451.539062 466.503906 " fill-opacity="1" fill-rule="nonzero"/><path fill="#e9dcd3" d="M 290.625 439.949219 C 286.96875 439.949219 284 436.976562 284 433.328125 L 284 230.785156 C 284 227.136719 286.96875 224.164062 290.625 224.164062 L 541.132812 224.164062 C 544.785156 224.164062 547.761719 227.136719 547.761719 230.785156 L 547.761719 433.328125 C 547.761719 436.976562 544.785156 439.949219 541.132812 439.949219 L 290.625 439.949219 " fill-opacity="1" fill-rule="nonzero"/><g clip-path="url(#c8837df8ad)"><path fill="#231f20" d="M 541.132812 222.324219 L 290.625 222.324219 C 285.957031 222.324219 282.15625 226.121094 282.15625 230.785156 L 282.15625 433.328125 C 282.15625 437.996094 285.957031 441.789062 290.625 441.789062 L 541.132812 441.789062 C 545.804688 441.789062 549.601562 437.996094 549.601562 433.328125 L 549.601562 230.785156 C 549.601562 226.121094 545.804688 222.324219 541.132812 222.324219 Z M 541.132812 226.003906 C 543.773438 226.003906 545.917969 228.140625 545.917969 230.785156 L 545.917969 433.328125 C 545.917969 435.96875 543.773438 438.109375 541.132812 438.109375 L 290.625 438.109375 C 287.984375 438.109375 285.839844 435.96875 285.839844 433.328125 L 285.839844 230.785156 C 285.839844 228.140625 287.984375 226.003906 290.625 226.003906 L 541.132812 226.003906 " fill-opacity="1" fill-rule="nonzero"/></g><path fill="#008ca1" d="M 508.257812 393.25 L 323.503906 393.25 C 318.472656 393.25 314.355469 389.140625 314.355469 384.113281 L 314.355469 265.292969 C 314.355469 260.269531 318.472656 256.15625 323.503906 256.15625 L 508.257812 256.15625 C 513.285156 256.15625 517.40625 260.269531 517.40625 265.292969 L 517.40625 384.113281 C 517.40625 389.140625 513.285156 393.25 508.257812 393.25 " fill-opacity="1" fill-rule="nonzero"/><path fill="#303030" d="M 323.503906 257.996094 C 319.472656 257.996094 316.195312 261.269531 316.195312 265.292969 L 316.195312 384.113281 C 316.195312 388.136719 319.472656 391.410156 323.503906 391.410156 L 508.257812 391.410156 C 512.285156 391.410156 515.5625 388.136719 515.5625 384.113281 L 515.5625 265.292969 C 515.5625 261.269531 512.285156 257.996094 508.257812 257.996094 Z M 508.257812 395.089844 L 323.503906 395.089844 C 317.445312 395.089844 312.511719 390.167969 312.511719 384.113281 L 312.511719 265.292969 C 312.511719 259.242188 317.445312 254.316406 323.503906 254.316406 L 508.257812 254.316406 C 514.316406 254.316406 519.246094 259.242188 519.246094 265.292969 L 519.246094 384.113281 C 519.246094 390.167969 514.316406 395.089844 508.257812 395.089844 " fill-opacity="1" fill-rule="nonzero"/><path fill="#00d3ce" d="M 495.738281 374.175781 L 336.019531 374.175781 C 331.898438 374.175781 328.527344 370.808594 328.527344 366.695312 L 328.527344 274.792969 C 328.527344 270.675781 331.898438 267.308594 336.019531 267.308594 L 495.738281 267.308594 C 499.863281 267.308594 503.230469 270.675781 503.230469 274.792969 L 503.230469 366.695312 C 503.230469 370.808594 499.863281 374.175781 495.738281 374.175781 " fill-opacity="1" fill-rule="nonzero"/><path fill="#231f20" d="M 336.019531 269.148438 C 332.90625 269.148438 330.371094 271.683594 330.371094 274.792969 L 330.371094 366.695312 C 330.371094 369.804688 332.90625 372.335938 336.019531 372.335938 L 495.738281 372.335938 C 498.855469 372.335938 501.390625 369.804688 501.390625 366.695312 L 501.390625 274.792969 C 501.390625 271.683594 498.855469 269.148438 495.738281 269.148438 Z M 495.738281 376.015625 L 336.019531 376.015625 C 330.875 376.015625 326.6875 371.832031 326.6875 366.695312 L 326.6875 274.792969 C 326.6875 269.652344 330.875 265.46875 336.019531 265.46875 L 495.738281 265.46875 C 500.886719 265.46875 505.074219 269.652344 505.074219 274.792969 L 505.074219 366.695312 C 505.074219 371.832031 500.886719 376.015625 495.738281 376.015625 " fill-opacity="1" fill-rule="nonzero"/><path fill="#e9dcd3" d="M 557.214844 577.457031 L 266.855469 577.457031 C 266.175781 577.457031 265.734375 576.75 266.023438 576.140625 L 290.480469 525.300781 L 533.585938 525.300781 L 558.042969 576.140625 C 558.335938 576.75 557.890625 577.457031 557.214844 577.457031 " fill-opacity="1" fill-rule="nonzero"/><path fill="#231f20" d="M 267.871094 575.902344 L 556.199219 575.902344 L 532.609375 526.851562 L 291.460938 526.851562 Z M 557.214844 579.015625 L 266.855469 579.015625 C 265.996094 579.015625 265.214844 578.582031 264.757812 577.859375 C 264.300781 577.132812 264.25 576.238281 264.621094 575.46875 L 289.503906 523.738281 L 534.566406 523.738281 L 559.449219 575.46875 C 559.816406 576.242188 559.769531 577.136719 559.3125 577.859375 C 558.855469 578.582031 558.070312 579.015625 557.214844 579.015625 " fill-opacity="1" fill-rule="nonzero"/><path fill="#e9dcd3" d="M 558.371094 585.253906 L 265.695312 585.253906 C 265.527344 585.253906 265.390625 585.117188 265.390625 584.945312 L 265.390625 577.761719 C 265.390625 577.59375 265.527344 577.457031 265.695312 577.457031 L 558.371094 577.457031 C 558.539062 577.457031 558.675781 577.59375 558.675781 577.761719 L 558.675781 584.945312 C 558.675781 585.117188 558.539062 585.253906 558.371094 585.253906 " fill-opacity="1" fill-rule="nonzero"/><g clip-path="url(#562510e831)"><path fill="#231f20" d="M 267.425781 583.21875 L 556.640625 583.21875 L 556.640625 579.488281 L 267.425781 579.488281 Z M 558.371094 587.28125 L 265.695312 587.28125 C 264.40625 587.28125 263.359375 586.234375 263.359375 584.945312 L 263.359375 577.761719 C 263.359375 576.472656 264.40625 575.429688 265.695312 575.429688 L 558.371094 575.429688 C 559.660156 575.429688 560.710938 576.472656 560.710938 577.761719 L 560.710938 584.945312 C 560.710938 586.234375 559.660156 587.28125 558.371094 587.28125 " fill-opacity="1" fill-rule="nonzero"/></g><path fill="#e9dcd3" d="M 291.125 560.570312 L 286.039062 560.570312 C 284.230469 560.570312 282.15625 561.738281 281.410156 563.191406 L 279.261719 567.355469 C 278.484375 568.863281 279.363281 570.101562 281.234375 570.101562 L 286.484375 570.101562 C 288.355469 570.101562 290.460938 568.863281 291.175781 567.355469 L 293.15625 563.191406 C 293.847656 561.738281 292.933594 560.570312 291.125 560.570312 " fill-opacity="1" fill-rule="nonzero"/><path fill="#231f20" d="M 286.039062 561.914062 C 284.730469 561.914062 283.128906 562.796875 282.605469 563.808594 L 280.460938 567.96875 C 280.324219 568.238281 280.304688 568.4375 280.34375 568.503906 C 280.410156 568.605469 280.695312 568.757812 281.234375 568.757812 L 286.484375 568.757812 C 287.832031 568.757812 289.460938 567.828125 289.964844 566.777344 L 291.9375 562.617188 C 292.046875 562.390625 292.058594 562.226562 292.019531 562.167969 C 291.957031 562.070312 291.664062 561.914062 291.125 561.914062 Z M 286.484375 571.449219 L 281.234375 571.449219 C 279.804688 571.449219 278.644531 570.882812 278.046875 569.90625 C 277.492188 568.992188 277.496094 567.839844 278.066406 566.738281 L 280.210938 562.574219 C 281.199219 560.664062 283.703125 559.222656 286.039062 559.222656 L 291.125 559.222656 C 292.535156 559.222656 293.695312 559.773438 294.300781 560.734375 C 294.851562 561.601562 294.878906 562.707031 294.375 563.769531 L 292.394531 567.929688 C 291.460938 569.902344 288.863281 571.449219 286.484375 571.449219 " fill-opacity="1" fill-rule="nonzero"/><path fill="#e9dcd3" d="M 309.859375 560.570312 L 304.777344 560.570312 C 302.964844 560.570312 300.96875 561.738281 300.3125 563.191406 L 298.433594 567.355469 C 297.753906 568.863281 298.710938 570.101562 300.582031 570.101562 L 305.832031 570.101562 C 307.703125 570.101562 309.730469 568.863281 310.347656 567.355469 L 312.058594 563.191406 C 312.65625 561.738281 311.671875 560.570312 309.859375 560.570312 " fill-opacity="1" fill-rule="nonzero"/><path fill="#231f20" d="M 304.777344 561.914062 C 303.492188 561.914062 301.980469 562.769531 301.542969 563.742188 L 299.664062 567.90625 C 299.625 567.996094 299.503906 568.292969 299.605469 568.445312 C 299.699219 568.597656 300.042969 568.757812 300.582031 568.757812 L 305.832031 568.757812 C 307.15625 568.757812 308.6875 567.863281 309.105469 566.839844 L 310.816406 562.679688 C 310.863281 562.5625 310.929688 562.347656 310.847656 562.222656 C 310.746094 562.070312 310.398438 561.914062 309.859375 561.914062 Z M 305.832031 571.449219 L 300.582031 571.449219 C 299.152344 571.449219 297.96875 570.886719 297.335938 569.910156 C 296.765625 569.023438 296.71875 567.890625 297.207031 566.800781 L 299.085938 562.636719 C 299.964844 560.691406 302.410156 559.222656 304.777344 559.222656 L 309.859375 559.222656 C 311.269531 559.222656 312.449219 559.769531 313.089844 560.726562 C 313.65625 561.574219 313.738281 562.660156 313.308594 563.703125 L 311.597656 567.863281 C 310.769531 569.875 308.242188 571.449219 305.832031 571.449219 " fill-opacity="1" fill-rule="nonzero"/><path fill="#e9dcd3" d="M 328.597656 560.570312 L 323.511719 560.570312 C 321.699219 560.570312 319.78125 561.738281 319.21875 563.191406 L 317.605469 567.355469 C 317.023438 568.863281 318.058594 570.101562 319.929688 570.101562 L 325.183594 570.101562 C 327.054688 570.101562 329 568.863281 329.519531 567.355469 L 330.964844 563.191406 C 331.46875 561.738281 330.40625 560.570312 328.597656 560.570312 " fill-opacity="1" fill-rule="nonzero"/><path fill="#231f20" d="M 323.511719 561.914062 C 322.121094 561.914062 320.796875 562.839844 320.472656 563.675781 L 318.867188 567.839844 C 318.773438 568.082031 318.769531 568.265625 318.855469 568.394531 C 318.96875 568.558594 319.320312 568.757812 319.929688 568.757812 L 325.183594 568.757812 C 326.570312 568.757812 327.949219 567.78125 328.246094 566.914062 L 329.691406 562.75 C 329.796875 562.441406 329.710938 562.316406 329.679688 562.273438 C 329.558594 562.109375 329.207031 561.914062 328.597656 561.914062 Z M 325.183594 571.449219 L 319.929688 571.449219 C 318.503906 571.449219 317.300781 570.886719 316.632812 569.917969 C 316.039062 569.050781 315.9375 567.941406 316.351562 566.871094 L 317.960938 562.707031 C 318.730469 560.722656 321.113281 559.222656 323.511719 559.222656 L 328.597656 559.222656 C 330.003906 559.222656 331.199219 559.765625 331.875 560.714844 C 332.472656 561.550781 332.601562 562.585938 332.238281 563.632812 L 330.792969 567.792969 C 330.085938 569.839844 327.621094 571.449219 325.183594 571.449219 " fill-opacity="1" fill-rule="nonzero"/><path fill="#e9dcd3" d="M 421.925781 570.101562 C 423.796875 570.101562 425.34375 568.863281 425.382812 567.355469 L 425.484375 563.191406 C 425.519531 561.738281 424.082031 560.570312 422.273438 560.570312 L 342.242188 560.570312 C 340.433594 560.570312 338.589844 561.738281 338.121094 563.191406 L 336.78125 567.355469 C 336.292969 568.863281 337.410156 570.101562 339.28125 570.101562 L 421.925781 570.101562 " fill-opacity="1" fill-rule="nonzero"/><path fill="#231f20" d="M 342.242188 561.914062 C 340.890625 561.914062 339.660156 562.804688 339.402344 563.601562 L 338.058594 567.765625 C 337.945312 568.125 338.066406 568.289062 338.101562 568.34375 C 338.25 568.539062 338.636719 568.757812 339.28125 568.757812 L 421.925781 568.757812 C 423.148438 568.757812 424.019531 567.996094 424.035156 567.320312 L 424.140625 563.15625 C 424.140625 562.921875 424.046875 562.699219 423.84375 562.492188 C 423.492188 562.128906 422.90625 561.914062 422.273438 561.914062 Z M 421.925781 571.449219 L 339.28125 571.449219 C 337.855469 571.449219 336.632812 570.894531 335.925781 569.925781 C 335.304688 569.074219 335.152344 568.011719 335.5 566.941406 L 336.835938 562.78125 C 337.480469 560.78125 339.855469 559.222656 342.242188 559.222656 L 422.273438 559.222656 C 423.636719 559.222656 424.910156 559.730469 425.773438 560.613281 C 426.480469 561.335938 426.855469 562.261719 426.832031 563.226562 L 426.730469 567.386719 C 426.675781 569.625 424.519531 571.449219 421.925781 571.449219 " fill-opacity="1" fill-rule="nonzero"/><path fill="#e9dcd3" d="M 441.003906 560.570312 L 435.917969 560.570312 C 434.109375 560.570312 432.640625 561.738281 432.640625 563.191406 L 432.640625 567.355469 C 432.640625 568.863281 434.15625 570.101562 436.027344 570.101562 L 441.277344 570.101562 C 443.144531 570.101562 444.613281 568.863281 444.554688 567.355469 L 444.390625 563.191406 C 444.328125 561.738281 442.820312 560.570312 441.003906 560.570312 " fill-opacity="1" fill-rule="nonzero"/><path fill="#231f20" d="M 435.917969 561.914062 C 434.890625 561.914062 433.988281 562.511719 433.988281 563.191406 L 433.988281 567.355469 C 433.988281 567.78125 434.296875 568.097656 434.480469 568.25 C 434.875 568.570312 435.4375 568.757812 436.027344 568.757812 L 441.277344 568.757812 C 441.925781 568.757812 442.53125 568.53125 442.894531 568.148438 C 443.046875 567.996094 443.222656 567.738281 443.207031 567.410156 L 443.042969 563.242188 C 443.015625 562.617188 442.175781 561.914062 441.003906 561.914062 Z M 441.277344 571.449219 L 436.027344 571.449219 C 434.8125 571.449219 433.660156 571.050781 432.777344 570.335938 C 431.832031 569.566406 431.292969 568.480469 431.292969 567.351562 L 431.292969 563.191406 C 431.292969 561 433.367188 559.222656 435.917969 559.222656 L 441.003906 559.222656 C 443.570312 559.222656 445.644531 560.945312 445.734375 563.140625 L 445.902344 567.300781 C 445.941406 568.296875 445.5625 569.261719 444.835938 570.015625 C 443.960938 570.925781 442.664062 571.449219 441.277344 571.449219 " fill-opacity="1" fill-rule="nonzero"/><path fill="#e9dcd3" d="M 459.742188 560.570312 L 454.65625 560.570312 C 452.84375 560.570312 451.453125 561.738281 451.546875 563.191406 L 451.8125 567.355469 C 451.910156 568.863281 453.503906 570.101562 455.375 570.101562 L 460.628906 570.101562 C 462.496094 570.101562 463.882812 568.863281 463.726562 567.355469 L 463.292969 563.191406 C 463.140625 561.738281 461.550781 560.570312 459.742188 560.570312 " fill-opacity="1" fill-rule="nonzero"/><path fill="#231f20" d="M 454.65625 561.914062 C 454.035156 561.914062 453.46875 562.121094 453.140625 562.472656 C 452.957031 562.664062 452.875 562.878906 452.890625 563.109375 L 453.15625 567.269531 C 453.199219 567.96875 454.125 568.757812 455.371094 568.757812 L 460.628906 568.757812 C 461.253906 568.757812 461.820312 568.542969 462.140625 568.1875 C 462.328125 567.980469 462.410156 567.746094 462.386719 567.492188 L 461.953125 563.332031 C 461.882812 562.660156 460.957031 561.914062 459.742188 561.914062 Z M 460.628906 571.449219 L 455.371094 571.449219 C 452.769531 571.449219 450.613281 569.6875 450.464844 567.441406 L 450.199219 563.277344 C 450.140625 562.304688 450.484375 561.363281 451.179688 560.628906 C 452.015625 559.738281 453.28125 559.222656 454.65625 559.222656 L 459.742188 559.222656 C 462.261719 559.222656 464.410156 560.90625 464.632812 563.050781 L 465.066406 567.214844 C 465.171875 568.226562 464.847656 569.210938 464.144531 569.988281 C 463.3125 570.914062 462.027344 571.449219 460.628906 571.449219 " fill-opacity="1" fill-rule="nonzero"/><path fill="#e9dcd3" d="M 478.476562 560.570312 L 473.390625 560.570312 C 471.582031 560.570312 470.261719 561.738281 470.449219 563.191406 L 470.984375 567.355469 C 471.179688 568.863281 472.855469 570.101562 474.726562 570.101562 L 479.976562 570.101562 C 481.847656 570.101562 483.152344 568.863281 482.898438 567.355469 L 482.195312 563.191406 C 481.953125 561.738281 480.285156 560.570312 478.476562 560.570312 " fill-opacity="1" fill-rule="nonzero"/><path fill="#231f20" d="M 473.390625 561.914062 C 472.789062 561.914062 472.261719 562.109375 471.972656 562.433594 C 471.820312 562.609375 471.757812 562.800781 471.785156 563.019531 L 472.320312 567.183594 C 472.414062 567.925781 473.425781 568.757812 474.726562 568.757812 L 479.976562 568.757812 C 480.582031 568.757812 481.113281 568.558594 481.390625 568.226562 C 481.550781 568.039062 481.613281 567.824219 481.570312 567.578125 L 480.867188 563.417969 C 480.746094 562.707031 479.734375 561.914062 478.476562 561.914062 Z M 479.976562 571.449219 L 474.726562 571.449219 C 472.160156 571.449219 469.929688 569.722656 469.648438 567.523438 L 469.113281 563.363281 C 468.988281 562.375 469.28125 561.410156 469.953125 560.652344 C 470.753906 559.746094 472.003906 559.222656 473.390625 559.222656 L 478.476562 559.222656 C 480.953125 559.222656 483.171875 560.867188 483.527344 562.96875 L 484.226562 567.128906 C 484.402344 568.160156 484.125 569.167969 483.449219 569.96875 C 482.652344 570.910156 481.386719 571.449219 479.976562 571.449219 " fill-opacity="1" fill-rule="nonzero"/><path fill="#e9dcd3" d="M 298.558594 545.292969 L 293.742188 545.292969 C 292.027344 545.292969 290.097656 546.339844 289.425781 547.644531 L 287.503906 551.375 C 286.804688 552.726562 287.667969 553.832031 289.4375 553.832031 L 294.40625 553.832031 C 296.171875 553.832031 298.132812 552.726562 298.777344 551.375 L 300.550781 547.644531 C 301.167969 546.339844 300.277344 545.292969 298.558594 545.292969 " fill-opacity="1" fill-rule="nonzero"/><path fill="#231f20" d="M 293.742188 546.636719 C 292.433594 546.636719 291.015625 547.496094 290.621094 548.261719 L 288.695312 551.988281 C 288.609375 552.164062 288.605469 552.265625 288.605469 552.292969 C 288.632812 552.320312 288.867188 552.484375 289.433594 552.484375 L 294.40625 552.484375 C 295.75 552.484375 297.179688 551.59375 297.558594 550.796875 L 299.332031 547.066406 C 299.410156 546.910156 299.398438 546.832031 299.398438 546.832031 C 299.378906 546.808594 299.136719 546.636719 298.558594 546.636719 Z M 294.40625 555.179688 L 289.433594 555.179688 C 288.023438 555.179688 286.882812 554.632812 286.300781 553.683594 C 285.785156 552.832031 285.785156 551.765625 286.300781 550.757812 L 288.226562 547.027344 C 289.132812 545.269531 291.503906 543.945312 293.742188 543.945312 L 298.558594 543.945312 C 299.957031 543.945312 301.09375 544.480469 301.683594 545.410156 C 302.195312 546.226562 302.230469 547.25 301.765625 548.222656 L 299.992188 551.949219 C 299.117188 553.789062 296.714844 555.179688 294.40625 555.179688 " fill-opacity="1" fill-rule="nonzero"/><path fill="#e9dcd3" d="M 316.3125 545.292969 L 311.496094 545.292969 C 309.78125 545.292969 307.917969 546.339844 307.328125 547.644531 L 305.644531 551.375 C 305.035156 552.726562 305.96875 553.832031 307.738281 553.832031 L 312.703125 553.832031 C 314.472656 553.832031 316.363281 552.726562 316.921875 551.375 L 318.453125 547.644531 C 318.988281 546.339844 318.027344 545.292969 316.3125 545.292969 " fill-opacity="1" fill-rule="nonzero"/><path fill="#231f20" d="M 311.496094 546.636719 C 310.214844 546.636719 308.886719 547.460938 308.558594 548.195312 L 306.875 551.925781 C 306.804688 552.078125 306.792969 552.191406 306.816406 552.226562 C 306.878906 552.328125 307.191406 552.484375 307.738281 552.484375 L 312.703125 552.484375 C 314.019531 552.484375 315.359375 551.628906 315.671875 550.863281 L 317.207031 547.132812 C 317.246094 547.027344 317.265625 546.929688 317.242188 546.902344 C 317.175781 546.796875 316.863281 546.636719 316.3125 546.636719 Z M 312.703125 555.179688 L 307.738281 555.179688 C 306.328125 555.179688 305.164062 554.632812 304.554688 553.691406 C 304.015625 552.859375 303.96875 551.8125 304.417969 550.824219 L 306.101562 547.09375 C 306.90625 545.300781 309.226562 543.945312 311.496094 543.945312 L 316.3125 543.945312 C 317.703125 543.945312 318.859375 544.476562 319.480469 545.402344 C 320.011719 546.195312 320.09375 547.195312 319.699219 548.15625 L 318.164062 551.886719 C 317.40625 553.734375 315.007812 555.179688 312.703125 555.179688 " fill-opacity="1" fill-rule="nonzero"/><path fill="#e9dcd3" d="M 334.0625 545.292969 L 329.246094 545.292969 C 327.53125 545.292969 325.734375 546.339844 325.230469 547.644531 L 323.785156 551.375 C 323.265625 552.726562 324.269531 553.832031 326.039062 553.832031 L 331.007812 553.832031 C 332.777344 553.832031 334.59375 552.726562 335.058594 551.375 L 336.355469 547.644531 C 336.808594 546.339844 335.78125 545.292969 334.0625 545.292969 " fill-opacity="1" fill-rule="nonzero"/><path fill="#231f20" d="M 329.246094 546.636719 C 327.996094 546.636719 326.757812 547.425781 326.488281 548.132812 L 325.042969 551.859375 C 324.988281 552.003906 324.980469 552.109375 325.023438 552.171875 C 325.128906 552.324219 325.492188 552.484375 326.039062 552.484375 L 331.007812 552.484375 C 332.289062 552.484375 333.535156 551.667969 333.785156 550.933594 L 335.082031 547.203125 C 335.144531 547.03125 335.101562 546.972656 335.085938 546.953125 C 334.976562 546.800781 334.609375 546.636719 334.0625 546.636719 Z M 331.007812 555.179688 L 326.039062 555.179688 C 324.628906 555.179688 323.453125 554.636719 322.804688 553.695312 C 322.25 552.890625 322.148438 551.871094 322.53125 550.890625 L 323.96875 547.160156 C 324.683594 545.328125 326.949219 543.945312 329.246094 543.945312 L 334.0625 543.945312 C 335.453125 543.945312 336.625 544.472656 337.28125 545.390625 C 337.828125 546.160156 337.957031 547.144531 337.628906 548.085938 L 336.332031 551.8125 C 335.679688 553.699219 333.339844 555.179688 331.007812 555.179688 " fill-opacity="1" fill-rule="nonzero"/><path fill="#e9dcd3" d="M 351.816406 545.292969 L 346.996094 545.292969 C 345.285156 545.292969 343.554688 546.339844 343.132812 547.644531 L 341.929688 551.375 C 341.496094 552.726562 342.570312 553.832031 344.339844 553.832031 L 349.308594 553.832031 C 351.078125 553.832031 352.824219 552.726562 353.203125 551.375 L 354.257812 547.644531 C 354.625 546.339844 353.53125 545.292969 351.816406 545.292969 " fill-opacity="1" fill-rule="nonzero"/><path fill="#231f20" d="M 346.996094 546.636719 C 345.785156 546.636719 344.632812 547.386719 344.414062 548.058594 L 343.210938 551.785156 C 343.144531 552 343.203125 552.082031 343.234375 552.121094 C 343.355469 552.292969 343.71875 552.484375 344.339844 552.484375 L 349.308594 552.484375 C 350.554688 552.484375 351.710938 551.707031 351.910156 551.007812 L 352.964844 547.28125 C 353.011719 547.105469 352.960938 547.039062 352.929688 547 C 352.804688 546.832031 352.433594 546.636719 351.816406 546.636719 Z M 349.308594 555.179688 L 344.339844 555.179688 C 342.933594 555.179688 341.738281 554.640625 341.054688 553.707031 C 340.476562 552.917969 340.332031 551.945312 340.648438 550.960938 L 341.847656 547.234375 C 342.453125 545.355469 344.667969 543.945312 346.996094 543.945312 L 351.816406 543.945312 C 353.199219 543.945312 354.386719 544.464844 355.078125 545.375 C 355.652344 546.128906 355.820312 547.066406 355.554688 548.007812 L 354.503906 551.738281 C 353.957031 553.667969 351.675781 555.179688 349.308594 555.179688 " fill-opacity="1" fill-rule="nonzero"/><path fill="#e9dcd3" d="M 369.566406 545.292969 L 364.746094 545.292969 C 363.03125 545.292969 361.375 546.339844 361.035156 547.644531 L 360.074219 551.375 C 359.726562 552.726562 360.875 553.832031 362.644531 553.832031 L 367.609375 553.832031 C 369.375 553.832031 371.054688 552.726562 371.347656 551.375 L 372.160156 547.644531 C 372.445312 546.339844 371.28125 545.292969 369.566406 545.292969 " fill-opacity="1" fill-rule="nonzero"/><path fill="#231f20" d="M 364.746094 546.636719 C 363.566406 546.636719 362.503906 547.347656 362.339844 547.980469 L 361.375 551.710938 C 361.328125 551.898438 361.375 551.996094 361.4375 552.078125 C 361.585938 552.265625 361.988281 552.484375 362.644531 552.484375 L 367.609375 552.484375 C 368.820312 552.484375 369.886719 551.75 370.03125 551.089844 L 370.84375 547.359375 C 370.871094 547.230469 370.851562 547.144531 370.777344 547.046875 C 370.621094 546.859375 370.214844 546.636719 369.566406 546.636719 Z M 367.609375 555.179688 L 362.644531 555.179688 C 361.238281 555.179688 360.023438 554.648438 359.308594 553.726562 C 358.710938 552.957031 358.519531 552 358.769531 551.039062 L 359.730469 547.308594 C 360.226562 545.394531 362.378906 543.945312 364.746094 543.945312 L 369.566406 543.945312 C 370.945312 543.945312 372.148438 544.457031 372.871094 545.355469 C 373.464844 546.089844 373.679688 547.007812 373.476562 547.933594 L 372.664062 551.660156 C 372.234375 553.632812 370.011719 555.179688 367.609375 555.179688 " fill-opacity="1" fill-rule="nonzero"/><path fill="#e9dcd3" d="M 387.320312 545.292969 L 382.5 545.292969 C 380.78125 545.292969 379.191406 546.339844 378.9375 547.644531 L 378.214844 551.375 C 377.957031 552.726562 379.175781 553.832031 380.941406 553.832031 L 385.910156 553.832031 C 387.679688 553.832031 389.28125 552.726562 389.492188 551.375 L 390.0625 547.644531 C 390.261719 546.339844 389.035156 545.292969 387.320312 545.292969 " fill-opacity="1" fill-rule="nonzero"/><path fill="#231f20" d="M 382.5 546.636719 C 381.375 546.636719 380.371094 547.316406 380.261719 547.902344 L 379.539062 551.628906 C 379.507812 551.785156 379.539062 551.90625 379.644531 552.03125 C 379.828125 552.253906 380.261719 552.484375 380.941406 552.484375 L 385.910156 552.484375 C 387.082031 552.484375 388.0625 551.792969 388.15625 551.171875 L 388.730469 547.441406 C 388.742188 547.347656 388.742188 547.234375 388.621094 547.089844 C 388.433594 546.871094 387.992188 546.636719 387.320312 546.636719 Z M 385.910156 555.179688 L 380.941406 555.179688 C 379.550781 555.179688 378.320312 554.65625 377.5625 553.742188 C 376.949219 553 376.710938 552.066406 376.890625 551.121094 L 377.613281 547.390625 C 377.988281 545.457031 380.136719 543.945312 382.5 543.945312 L 387.320312 543.945312 C 388.6875 543.945312 389.90625 544.453125 390.664062 545.335938 C 391.277344 546.046875 391.535156 546.9375 391.394531 547.847656 L 390.824219 551.578125 C 390.511719 553.597656 388.355469 555.179688 385.910156 555.179688 " fill-opacity="1" fill-rule="nonzero"/><path fill="#e9dcd3" d="M 405.066406 545.292969 L 400.25 545.292969 C 398.535156 545.292969 397.007812 546.339844 396.839844 547.644531 L 396.359375 551.375 C 396.183594 552.726562 397.476562 553.832031 399.242188 553.832031 L 404.210938 553.832031 C 405.980469 553.832031 407.511719 552.726562 407.636719 551.375 L 407.964844 547.644531 C 408.082031 546.339844 406.78125 545.292969 405.066406 545.292969 " fill-opacity="1" fill-rule="nonzero"/><path fill="#231f20" d="M 400.25 546.636719 C 399.167969 546.636719 398.246094 547.273438 398.175781 547.816406 L 397.695312 551.546875 C 397.683594 551.648438 397.683594 551.804688 397.847656 551.988281 C 398.058594 552.230469 398.539062 552.484375 399.242188 552.484375 L 404.210938 552.484375 C 405.339844 552.484375 406.238281 551.835938 406.292969 551.253906 L 406.625 547.523438 C 406.632812 547.4375 406.625 547.300781 406.464844 547.128906 C 406.246094 546.890625 405.769531 546.636719 405.070312 546.636719 Z M 404.210938 555.179688 L 399.242188 555.179688 C 397.859375 555.179688 396.613281 554.664062 395.824219 553.765625 C 395.1875 553.042969 394.902344 552.132812 395.019531 551.203125 L 395.503906 547.472656 C 395.757812 545.492188 397.84375 543.945312 400.25 543.945312 L 405.070312 543.945312 C 406.421875 543.945312 407.65625 544.441406 408.453125 545.308594 C 409.085938 545.996094 409.386719 546.871094 409.308594 547.765625 L 408.976562 551.496094 C 408.792969 553.558594 406.699219 555.179688 404.210938 555.179688 " fill-opacity="1" fill-rule="nonzero"/><path fill="#e9dcd3" d="M 422.820312 545.292969 L 418.003906 545.292969 C 416.285156 545.292969 414.824219 546.339844 414.742188 547.644531 L 414.503906 551.375 C 414.414062 552.726562 415.777344 553.832031 417.546875 553.832031 L 422.511719 553.832031 C 424.28125 553.832031 425.742188 552.726562 425.777344 551.375 L 425.867188 547.644531 C 425.902344 546.339844 424.535156 545.292969 422.820312 545.292969 " fill-opacity="1" fill-rule="nonzero"/><path fill="#231f20" d="M 418.003906 546.636719 C 416.960938 546.636719 416.121094 547.226562 416.089844 547.730469 L 415.847656 551.460938 C 415.832031 551.628906 415.90625 551.792969 416.050781 551.949219 C 416.367188 552.289062 416.925781 552.484375 417.546875 552.484375 L 422.511719 552.484375 C 423.597656 552.484375 424.414062 551.882812 424.429688 551.339844 L 424.519531 547.609375 C 424.523438 547.460938 424.453125 547.308594 424.308594 547.160156 C 423.992188 546.835938 423.421875 546.636719 422.820312 546.636719 Z M 422.511719 555.179688 L 417.546875 555.179688 C 416.175781 555.179688 414.914062 554.675781 414.089844 553.792969 C 413.425781 553.089844 413.097656 552.203125 413.15625 551.289062 L 413.398438 547.554688 C 413.53125 545.53125 415.550781 543.945312 418.003906 543.945312 L 422.820312 543.945312 C 424.160156 543.945312 425.410156 544.433594 426.238281 545.28125 C 426.890625 545.949219 427.234375 546.800781 427.214844 547.679688 L 427.125 551.40625 C 427.070312 553.519531 425.046875 555.179688 422.511719 555.179688 " fill-opacity="1" fill-rule="nonzero"/><path fill="#e9dcd3" d="M 440.570312 545.292969 L 435.753906 545.292969 C 434.039062 545.292969 432.644531 546.339844 432.644531 547.644531 L 432.640625 551.375 C 432.640625 552.726562 434.078125 553.832031 435.847656 553.832031 L 440.816406 553.832031 C 442.582031 553.832031 443.972656 552.726562 443.917969 551.375 L 443.773438 547.644531 C 443.71875 546.339844 442.285156 545.292969 440.570312 545.292969 " fill-opacity="1" fill-rule="nonzero"/><path fill="#231f20" d="M 435.753906 546.636719 C 434.746094 546.636719 433.996094 547.167969 433.996094 547.644531 L 433.992188 551.375 C 433.992188 551.679688 434.25 551.925781 434.40625 552.042969 C 434.769531 552.324219 435.296875 552.484375 435.847656 552.484375 L 440.816406 552.484375 C 441.441406 552.484375 442.011719 552.28125 442.34375 551.9375 C 442.503906 551.773438 442.582031 551.601562 442.574219 551.429688 L 442.421875 547.695312 C 442.40625 547.207031 441.59375 546.636719 440.570312 546.636719 Z M 440.816406 555.179688 L 435.847656 555.179688 C 434.695312 555.179688 433.597656 554.820312 432.761719 554.179688 C 431.828125 553.464844 431.296875 552.4375 431.296875 551.375 L 431.296875 547.644531 C 431.296875 545.570312 433.253906 543.945312 435.753906 543.945312 L 440.570312 543.945312 C 443.039062 543.945312 445.035156 545.546875 445.117188 547.59375 L 445.265625 551.320312 C 445.300781 552.226562 444.957031 553.109375 444.285156 553.800781 C 443.445312 554.679688 442.179688 555.179688 440.816406 555.179688 " fill-opacity="1" fill-rule="nonzero"/><path fill="#e9dcd3" d="M 458.320312 545.292969 L 453.503906 545.292969 C 451.785156 545.292969 450.464844 546.339844 450.546875 547.644531 L 450.785156 551.375 C 450.875 552.726562 452.378906 553.832031 454.148438 553.832031 L 459.113281 553.832031 C 460.882812 553.832031 462.203125 552.726562 462.0625 551.375 L 461.675781 547.644531 C 461.539062 546.339844 460.039062 545.292969 458.320312 545.292969 " fill-opacity="1" fill-rule="nonzero"/><path fill="#231f20" d="M 453.503906 546.636719 C 452.796875 546.636719 452.300781 546.898438 452.070312 547.140625 C 451.878906 547.34375 451.890625 547.503906 451.894531 547.554688 L 452.132812 551.289062 C 452.167969 551.855469 453.039062 552.484375 454.144531 552.484375 L 459.113281 552.484375 C 459.832031 552.484375 460.324219 552.21875 460.550781 551.972656 C 460.746094 551.757812 460.730469 551.574219 460.722656 551.515625 L 460.332031 547.78125 C 460.277344 547.253906 459.386719 546.636719 458.320312 546.636719 Z M 459.113281 555.179688 L 454.144531 555.179688 C 451.640625 555.179688 449.578125 553.546875 449.445312 551.460938 L 449.203125 547.730469 C 449.144531 546.839844 449.464844 545.980469 450.105469 545.300781 C 450.914062 544.4375 452.152344 543.945312 453.503906 543.945312 L 458.320312 543.945312 C 460.746094 543.945312 462.808594 545.507812 463.011719 547.503906 L 463.402344 551.234375 C 463.5 552.160156 463.195312 553.0625 462.550781 553.777344 C 461.746094 554.667969 460.496094 555.179688 459.113281 555.179688 " fill-opacity="1" fill-rule="nonzero"/><path fill="#e9dcd3" d="M 476.074219 545.292969 L 471.253906 545.292969 C 469.539062 545.292969 468.28125 546.339844 468.453125 547.644531 L 468.929688 551.375 C 469.105469 552.726562 470.683594 553.832031 472.449219 553.832031 L 477.414062 553.832031 C 479.183594 553.832031 480.433594 552.726562 480.203125 551.375 L 479.578125 547.644531 C 479.359375 546.339844 477.789062 545.292969 476.074219 545.292969 " fill-opacity="1" fill-rule="nonzero"/><path fill="#231f20" d="M 471.253906 546.636719 C 470.570312 546.636719 470.113281 546.875 469.914062 547.101562 C 469.777344 547.257812 469.773438 547.382812 469.785156 547.472656 L 470.269531 551.203125 C 470.34375 551.808594 471.296875 552.484375 472.449219 552.484375 L 477.414062 552.484375 C 478.105469 552.484375 478.558594 552.242188 478.753906 552.015625 C 478.898438 551.847656 478.894531 551.703125 478.875 551.597656 L 478.246094 547.867188 C 478.152344 547.296875 477.183594 546.636719 476.074219 546.636719 Z M 477.414062 555.179688 L 472.449219 555.179688 C 469.988281 555.179688 467.855469 553.582031 467.59375 551.546875 L 467.113281 547.816406 C 467 546.914062 467.273438 546.023438 467.890625 545.324219 C 468.664062 544.449219 469.890625 543.945312 471.253906 543.945312 L 476.074219 543.945312 C 478.453125 543.945312 480.578125 545.472656 480.90625 547.417969 L 481.535156 551.152344 C 481.691406 552.089844 481.4375 553.015625 480.8125 553.75 C 480.046875 554.660156 478.808594 555.179688 477.414062 555.179688 " fill-opacity="1" fill-rule="nonzero"/><path fill="#e9dcd3" d="M 305.253906 531.539062 L 300.679688 531.539062 C 299.050781 531.539062 297.242188 532.484375 296.632812 533.660156 L 294.898438 537.023438 C 294.273438 538.242188 295.117188 539.238281 296.796875 539.238281 L 301.511719 539.238281 C 303.1875 539.238281 305.019531 538.242188 305.601562 537.023438 L 307.195312 533.660156 C 307.757812 532.484375 306.886719 531.539062 305.253906 531.539062 " fill-opacity="1" fill-rule="nonzero"/><path fill="#231f20" d="M 296.054688 537.746094 C 296.148438 537.804688 296.378906 537.890625 296.796875 537.890625 L 301.511719 537.890625 C 302.742188 537.890625 304.0625 537.113281 304.382812 536.445312 L 305.980469 533.082031 L 306.003906 533.03125 C 305.90625 532.976562 305.667969 532.886719 305.253906 532.886719 L 300.679688 532.886719 C 299.460938 532.886719 298.171875 533.621094 297.832031 534.277344 L 296.097656 537.640625 Z M 301.511719 540.582031 L 296.796875 540.582031 C 295.40625 540.582031 294.28125 540.054688 293.714844 539.125 C 293.226562 538.328125 293.222656 537.335938 293.699219 536.40625 L 295.433594 533.046875 C 296.273438 531.417969 298.527344 530.195312 300.679688 530.195312 L 305.253906 530.195312 C 306.632812 530.195312 307.75 530.710938 308.328125 531.621094 C 308.808594 532.386719 308.84375 533.339844 308.417969 534.238281 L 306.816406 537.601562 C 306.011719 539.300781 303.726562 540.582031 301.511719 540.582031 " fill-opacity="1" fill-rule="nonzero"/><path fill="#e9dcd3" d="M 322.121094 531.539062 L 317.546875 531.539062 C 315.914062 531.539062 314.164062 532.484375 313.636719 533.660156 L 312.117188 537.023438 C 311.566406 538.242188 312.480469 539.238281 314.15625 539.238281 L 318.871094 539.238281 C 320.550781 539.238281 322.316406 538.242188 322.820312 537.023438 L 324.199219 533.660156 C 324.6875 532.484375 323.75 531.539062 322.121094 531.539062 " fill-opacity="1" fill-rule="nonzero"/><path fill="#231f20" d="M 317.546875 532.886719 C 316.375 532.886719 315.140625 533.601562 314.863281 534.214844 L 313.34375 537.578125 L 313.304688 537.714844 C 313.328125 537.71875 313.570312 537.890625 314.15625 537.890625 L 318.871094 537.890625 C 320.074219 537.890625 321.3125 537.148438 321.570312 536.515625 L 322.957031 533.152344 L 322.980469 533.058594 C 322.957031 533.058594 322.703125 532.886719 322.121094 532.886719 Z M 318.871094 540.582031 L 314.15625 540.582031 C 312.765625 540.582031 311.625 540.058594 311.027344 539.132812 C 310.527344 538.355469 310.472656 537.386719 310.886719 536.472656 L 312.40625 533.109375 C 313.152344 531.449219 315.367188 530.195312 317.546875 530.195312 L 322.121094 530.195312 C 323.5 530.195312 324.632812 530.707031 325.238281 531.609375 C 325.734375 532.351562 325.8125 533.289062 325.449219 534.171875 L 324.0625 537.535156 C 323.347656 539.273438 321.117188 540.582031 318.871094 540.582031 " fill-opacity="1" fill-rule="nonzero"/><path fill="#e9dcd3" d="M 338.988281 531.539062 L 334.410156 531.539062 C 332.78125 531.539062 331.09375 532.484375 330.636719 533.660156 L 329.335938 537.023438 C 328.867188 538.242188 329.839844 539.238281 331.519531 539.238281 L 336.234375 539.238281 C 337.910156 539.238281 339.613281 538.242188 340.039062 537.023438 L 341.199219 533.660156 C 341.609375 532.484375 340.617188 531.539062 338.988281 531.539062 " fill-opacity="1" fill-rule="nonzero"/><path fill="#231f20" d="M 334.410156 532.886719 C 333.265625 532.886719 332.117188 533.5625 331.894531 534.144531 L 330.597656 537.507812 L 330.566406 537.628906 C 330.601562 537.691406 330.898438 537.890625 331.515625 537.890625 L 336.234375 537.890625 C 337.402344 537.890625 338.554688 537.191406 338.765625 536.582031 L 339.925781 533.222656 C 339.914062 533.085938 339.605469 532.886719 338.988281 532.886719 Z M 336.234375 540.582031 L 331.515625 540.582031 C 330.128906 540.582031 328.96875 540.058594 328.34375 539.148438 C 327.828125 538.394531 327.730469 537.441406 328.078125 536.539062 L 329.378906 533.175781 C 330.039062 531.476562 332.199219 530.195312 334.410156 530.195312 L 338.988281 530.195312 C 340.359375 530.195312 341.511719 530.703125 342.148438 531.59375 C 342.65625 532.3125 342.78125 533.230469 342.472656 534.101562 L 341.308594 537.460938 C 340.691406 539.242188 338.511719 540.582031 336.234375 540.582031 " fill-opacity="1" fill-rule="nonzero"/><path fill="#e9dcd3" d="M 355.851562 531.539062 L 351.277344 531.539062 C 349.644531 531.539062 348.015625 532.484375 347.640625 533.660156 L 346.554688 537.023438 C 346.160156 538.242188 347.203125 539.238281 348.878906 539.238281 L 353.59375 539.238281 C 355.269531 539.238281 356.914062 538.242188 357.253906 537.023438 L 358.203125 533.660156 C 358.539062 532.484375 357.484375 531.539062 355.851562 531.539062 " fill-opacity="1" fill-rule="nonzero"/><path fill="#231f20" d="M 351.277344 532.886719 C 350.070312 532.886719 349.078125 533.589844 348.917969 534.074219 L 347.835938 537.4375 C 347.804688 537.535156 347.824219 537.554688 347.835938 537.574219 C 347.917969 537.683594 348.238281 537.890625 348.878906 537.890625 L 353.59375 537.890625 C 354.824219 537.890625 355.816406 537.160156 355.960938 536.65625 L 356.910156 533.292969 L 356.902344 533.199219 C 356.820312 533.09375 356.496094 532.886719 355.851562 532.886719 Z M 353.59375 540.582031 L 348.878906 540.582031 C 347.492188 540.582031 346.320312 540.0625 345.65625 539.160156 C 345.117188 538.417969 344.980469 537.511719 345.273438 536.609375 L 346.359375 533.246094 C 346.917969 531.503906 349.03125 530.195312 351.277344 530.195312 L 355.851562 530.195312 C 357.21875 530.195312 358.382812 530.695312 359.054688 531.578125 C 359.589844 532.285156 359.746094 533.15625 359.503906 534.027344 L 358.554688 537.390625 C 358.039062 539.207031 355.90625 540.582031 353.59375 540.582031 " fill-opacity="1" fill-rule="nonzero"/><path fill="#e9dcd3" d="M 372.71875 531.539062 L 368.140625 531.539062 C 366.507812 531.539062 364.945312 532.484375 364.640625 533.660156 L 363.773438 537.023438 C 363.460938 538.242188 364.5625 539.238281 366.238281 539.238281 L 370.957031 539.238281 C 372.632812 539.238281 374.207031 538.242188 374.472656 537.023438 L 375.207031 533.660156 C 375.464844 532.484375 374.347656 531.539062 372.71875 531.539062 " fill-opacity="1" fill-rule="nonzero"/><path fill="#231f20" d="M 368.140625 532.886719 C 366.992188 532.886719 366.058594 533.554688 365.945312 534 L 365.078125 537.359375 C 365.054688 537.453125 365.074219 537.484375 365.105469 537.527344 C 365.246094 537.710938 365.652344 537.890625 366.242188 537.890625 L 370.957031 537.890625 C 372.128906 537.890625 373.054688 537.195312 373.15625 536.738281 L 373.890625 533.378906 L 373.859375 533.246094 C 373.714844 533.066406 373.304688 532.886719 372.71875 532.886719 Z M 370.957031 540.582031 L 366.242188 540.582031 C 364.863281 540.582031 363.671875 540.070312 362.976562 539.175781 C 362.417969 538.460938 362.238281 537.578125 362.46875 536.691406 L 363.335938 533.328125 C 363.796875 531.539062 365.863281 530.195312 368.140625 530.195312 L 372.71875 530.195312 C 374.078125 530.195312 375.257812 530.6875 375.957031 531.558594 C 376.507812 532.242188 376.710938 533.089844 376.523438 533.949219 L 375.789062 537.308594 C 375.390625 539.144531 373.265625 540.582031 370.957031 540.582031 " fill-opacity="1" fill-rule="nonzero"/><path fill="#e9dcd3" d="M 389.582031 531.539062 L 385.007812 531.539062 C 383.375 531.539062 381.871094 532.484375 381.644531 533.660156 L 380.992188 537.023438 C 380.757812 538.242188 381.921875 539.238281 383.601562 539.238281 L 388.316406 539.238281 C 389.992188 539.238281 391.507812 538.242188 391.691406 537.023438 L 392.207031 533.660156 C 392.390625 532.484375 391.214844 531.539062 389.582031 531.539062 " fill-opacity="1" fill-rule="nonzero"/><path fill="#231f20" d="M 385.007812 532.886719 C 383.898438 532.886719 383.046875 533.507812 382.964844 533.917969 L 382.316406 537.28125 C 382.304688 537.335938 382.300781 537.394531 382.375 537.484375 C 382.53125 537.671875 382.945312 537.890625 383.601562 537.890625 L 388.316406 537.890625 C 389.449219 537.890625 390.296875 537.246094 390.363281 536.820312 L 390.875 533.457031 C 390.882812 533.421875 390.890625 533.378906 390.816406 533.289062 C 390.652344 533.101562 390.234375 532.886719 389.582031 532.886719 Z M 388.316406 540.582031 L 383.601562 540.582031 C 382.230469 540.582031 381.023438 540.078125 380.296875 539.199219 C 379.722656 538.503906 379.5 537.640625 379.671875 536.769531 L 380.324219 533.40625 C 380.675781 531.574219 382.691406 530.195312 385.007812 530.195312 L 389.582031 530.195312 C 390.929688 530.195312 392.125 530.683594 392.859375 531.535156 C 393.425781 532.195312 393.671875 533.019531 393.542969 533.867188 L 393.023438 537.230469 C 392.734375 539.109375 390.667969 540.582031 388.316406 540.582031 " fill-opacity="1" fill-rule="nonzero"/><path fill="#e9dcd3" d="M 406.449219 531.539062 L 401.871094 531.539062 C 400.238281 531.539062 398.796875 532.484375 398.644531 533.660156 L 398.210938 537.023438 C 398.050781 538.242188 399.285156 539.238281 400.960938 539.238281 L 405.675781 539.238281 C 407.355469 539.238281 408.804688 538.242188 408.914062 537.023438 L 409.210938 533.660156 C 409.316406 532.484375 408.078125 531.539062 406.449219 531.539062 " fill-opacity="1" fill-rule="nonzero"/><path fill="#231f20" d="M 401.871094 532.886719 C 400.808594 532.886719 400.03125 533.457031 399.980469 533.832031 L 399.546875 537.195312 C 399.542969 537.234375 399.53125 537.316406 399.644531 537.445312 C 399.824219 537.648438 400.28125 537.890625 400.960938 537.890625 L 405.675781 537.890625 C 406.761719 537.890625 407.535156 537.296875 407.570312 536.90625 L 407.871094 533.542969 C 407.871094 533.511719 407.875 533.441406 407.769531 533.328125 C 407.585938 533.121094 407.125 532.886719 406.449219 532.886719 Z M 405.675781 540.582031 L 400.960938 540.582031 C 399.597656 540.582031 398.382812 540.085938 397.621094 539.222656 C 397.027344 538.550781 396.765625 537.710938 396.871094 536.851562 L 397.308594 533.488281 C 397.550781 531.640625 399.550781 530.195312 401.871094 530.195312 L 406.449219 530.195312 C 407.785156 530.195312 408.992188 530.671875 409.757812 531.507812 C 410.34375 532.148438 410.628906 532.957031 410.550781 533.78125 L 410.253906 537.144531 C 410.082031 539.074219 408.070312 540.582031 405.675781 540.582031 " fill-opacity="1" fill-rule="nonzero"/><path fill="#e9dcd3" d="M 423.316406 531.539062 L 418.734375 531.539062 C 417.105469 531.539062 415.722656 532.484375 415.644531 533.660156 L 415.429688 537.023438 C 415.351562 538.242188 416.644531 539.238281 418.324219 539.238281 L 423.039062 539.238281 C 424.714844 539.238281 426.097656 538.242188 426.132812 537.023438 L 426.214844 533.660156 C 426.242188 532.484375 424.945312 531.539062 423.316406 531.539062 " fill-opacity="1" fill-rule="nonzero"/><path fill="#231f20" d="M 418.734375 532.886719 C 417.6875 532.886719 417.007812 533.445312 416.992188 533.746094 L 416.777344 537.109375 C 416.773438 537.144531 416.765625 537.25 416.914062 537.40625 C 417.132812 537.640625 417.617188 537.890625 418.324219 537.890625 L 423.039062 537.890625 C 424.074219 537.890625 424.773438 537.351562 424.78125 536.992188 L 424.867188 533.628906 C 424.867188 533.527344 424.789062 533.425781 424.726562 533.359375 C 424.5 533.128906 424.007812 532.886719 423.316406 532.886719 Z M 423.039062 540.582031 L 418.324219 540.582031 C 416.972656 540.582031 415.742188 540.097656 414.945312 539.25 C 414.335938 538.597656 414.03125 537.773438 414.085938 536.9375 L 414.300781 533.574219 C 414.425781 531.675781 416.371094 530.195312 418.734375 530.195312 L 423.316406 530.195312 C 424.640625 530.195312 425.855469 530.664062 426.652344 531.480469 C 427.257812 532.101562 427.578125 532.886719 427.558594 533.695312 L 427.476562 537.054688 C 427.425781 539.03125 425.480469 540.582031 423.039062 540.582031 " fill-opacity="1" fill-rule="nonzero"/><path fill="#e9dcd3" d="M 440.179688 531.539062 L 435.597656 531.539062 C 433.96875 531.539062 432.648438 532.484375 432.648438 533.660156 L 432.648438 537.023438 C 432.648438 538.242188 434.007812 539.238281 435.6875 539.238281 L 440.398438 539.238281 C 442.078125 539.238281 443.398438 538.242188 443.347656 537.023438 L 443.214844 533.660156 C 443.167969 532.484375 441.808594 531.539062 440.179688 531.539062 " fill-opacity="1" fill-rule="nonzero"/><path fill="#231f20" d="M 435.601562 532.886719 C 434.605469 532.886719 434 533.386719 434 533.660156 L 433.996094 537.023438 C 433.996094 537.371094 434.671875 537.890625 435.6875 537.890625 L 440.398438 537.890625 C 441.113281 537.890625 441.613281 537.636719 441.84375 537.394531 C 441.953125 537.28125 442.003906 537.175781 442.003906 537.078125 L 441.867188 533.714844 C 441.859375 533.421875 441.207031 532.886719 440.179688 532.886719 Z M 440.398438 540.582031 L 435.6875 540.582031 C 433.230469 540.582031 431.300781 539.019531 431.300781 537.023438 L 431.300781 533.660156 C 431.300781 531.71875 433.191406 530.195312 435.601562 530.195312 L 440.179688 530.195312 C 442.558594 530.195312 444.484375 531.691406 444.558594 533.605469 L 444.695312 536.96875 C 444.730469 537.804688 444.40625 538.617188 443.785156 539.257812 C 442.980469 540.101562 441.742188 540.582031 440.398438 540.582031 " fill-opacity="1" fill-rule="nonzero"/><path fill="#e9dcd3" d="M 457.046875 531.539062 L 452.464844 531.539062 C 450.835938 531.539062 449.578125 532.484375 449.652344 533.660156 L 449.867188 537.023438 C 449.945312 538.242188 451.367188 539.238281 453.046875 539.238281 L 457.761719 539.238281 C 459.4375 539.238281 460.691406 538.242188 460.566406 537.023438 L 460.21875 533.660156 C 460.09375 532.484375 458.675781 531.539062 457.046875 531.539062 " fill-opacity="1" fill-rule="nonzero"/><path fill="#231f20" d="M 452.464844 532.886719 C 451.777344 532.886719 451.308594 533.128906 451.109375 533.339844 C 450.992188 533.46875 450.996094 533.550781 450.996094 533.574219 L 451.210938 536.9375 C 451.234375 537.320312 451.980469 537.890625 453.046875 537.890625 L 457.761719 537.890625 C 458.453125 537.890625 458.910156 537.652344 459.117188 537.429688 C 459.242188 537.289062 459.230469 537.199219 459.230469 537.164062 L 458.875 533.800781 C 458.84375 533.476562 458.121094 532.886719 457.046875 532.886719 Z M 457.761719 540.582031 L 453.046875 540.582031 C 450.636719 540.582031 448.648438 539.058594 448.523438 537.109375 L 448.308594 533.746094 C 448.253906 532.929688 448.550781 532.128906 449.144531 531.496094 C 449.921875 530.667969 451.136719 530.195312 452.464844 530.195312 L 457.046875 530.195312 C 459.378906 530.195312 461.363281 531.65625 461.554688 533.519531 L 461.910156 536.882812 C 461.996094 537.734375 461.714844 538.570312 461.117188 539.230469 C 460.339844 540.089844 459.117188 540.582031 457.761719 540.582031 " fill-opacity="1" fill-rule="nonzero"/><path fill="#e9dcd3" d="M 473.910156 531.539062 L 469.332031 531.539062 C 467.703125 531.539062 466.5 532.484375 466.652344 533.660156 L 467.085938 537.023438 C 467.242188 538.242188 468.730469 539.238281 470.410156 539.238281 L 475.121094 539.238281 C 476.796875 539.238281 477.992188 538.242188 477.785156 537.023438 L 477.21875 533.660156 C 477.019531 532.484375 475.539062 531.539062 473.910156 531.539062 " fill-opacity="1" fill-rule="nonzero"/><path fill="#231f20" d="M 469.332031 532.886719 C 468.671875 532.886719 468.234375 533.109375 468.066406 533.300781 C 467.980469 533.402344 467.988281 533.457031 467.992188 533.488281 L 468.421875 536.851562 C 468.472656 537.265625 469.292969 537.890625 470.410156 537.890625 L 475.121094 537.890625 C 475.789062 537.890625 476.21875 537.664062 476.382812 537.46875 C 476.46875 537.371094 476.464844 537.304688 476.457031 537.246094 L 475.890625 533.882812 C 475.824219 533.488281 475 532.886719 473.910156 532.886719 Z M 475.121094 540.582031 L 470.410156 540.582031 C 468.039062 540.582031 465.996094 539.09375 465.75 537.195312 L 465.320312 533.832031 C 465.210938 532.996094 465.464844 532.175781 466.042969 531.527344 C 466.789062 530.679688 467.988281 530.195312 469.332031 530.195312 L 473.910156 530.195312 C 476.242188 530.195312 478.234375 531.585938 478.546875 533.4375 L 479.113281 536.800781 C 479.261719 537.667969 479.019531 538.523438 478.441406 539.207031 C 477.699219 540.082031 476.492188 540.582031 475.121094 540.582031 " fill-opacity="1" fill-rule="nonzero"/><path fill="#e9dcd3" d="M 534.109375 560.433594 L 539.058594 560.433594 C 540.820312 560.433594 542.824219 561.660156 543.542969 563.199219 L 545.636719 567.660156 C 546.40625 569.304688 545.535156 570.660156 543.671875 570.660156 L 538.433594 570.660156 C 536.566406 570.660156 534.507812 569.304688 533.84375 567.660156 L 532.039062 563.199219 C 531.414062 561.660156 532.347656 560.433594 534.109375 560.433594 " fill-opacity="1" fill-rule="nonzero"/><path fill="#231f20" d="M 534.109375 561.777344 C 533.613281 561.777344 533.332031 561.929688 533.246094 562.058594 C 533.160156 562.1875 533.175781 562.417969 533.285156 562.695312 L 535.089844 567.15625 C 535.554688 568.308594 537.117188 569.3125 538.433594 569.3125 L 543.667969 569.3125 C 544.164062 569.3125 544.429688 569.171875 544.515625 569.035156 C 544.617188 568.882812 544.582031 568.574219 544.417969 568.230469 L 542.324219 563.769531 C 541.828125 562.707031 540.300781 561.777344 539.054688 561.777344 Z M 543.667969 572.003906 L 538.433594 572.003906 C 536.03125 572.003906 533.464844 570.320312 532.589844 568.167969 L 530.785156 563.703125 C 530.332031 562.582031 530.414062 561.4375 531.011719 560.554688 C 531.640625 559.621094 532.769531 559.085938 534.109375 559.085938 L 539.054688 559.085938 C 541.363281 559.085938 543.816406 560.609375 544.769531 562.625 L 546.859375 567.089844 C 547.421875 568.292969 547.398438 569.527344 546.789062 570.480469 C 546.175781 571.449219 545.039062 572.003906 543.667969 572.003906 " fill-opacity="1" fill-rule="nonzero"/><path fill="#e9dcd3" d="M 515.871094 560.433594 L 520.820312 560.433594 C 522.585938 560.433594 524.460938 561.660156 525.023438 563.199219 L 526.65625 567.660156 C 527.257812 569.304688 526.238281 570.660156 524.375 570.660156 L 519.136719 570.660156 C 517.269531 570.660156 515.355469 569.304688 514.859375 567.660156 L 513.515625 563.199219 C 513.050781 561.660156 514.109375 560.433594 515.871094 560.433594 " fill-opacity="1" fill-rule="nonzero"/><path fill="#231f20" d="M 515.871094 561.777344 C 515.40625 561.777344 515.03125 561.914062 514.859375 562.144531 C 514.738281 562.304688 514.722656 562.527344 514.804688 562.808594 L 516.148438 567.273438 C 516.476562 568.359375 517.871094 569.3125 519.136719 569.3125 L 524.375 569.3125 C 524.84375 569.3125 525.21875 569.175781 525.375 568.945312 C 525.554688 568.691406 525.460938 568.320312 525.390625 568.125 L 523.757812 563.65625 C 523.394531 562.660156 522.019531 561.777344 520.820312 561.777344 Z M 524.375 572.003906 L 519.136719 572.003906 C 516.679688 572.003906 514.234375 570.269531 513.570312 568.046875 L 512.226562 563.585938 C 511.890625 562.476562 512.058594 561.394531 512.695312 560.539062 C 513.382812 559.613281 514.542969 559.085938 515.871094 559.085938 L 520.820312 559.085938 C 523.136719 559.085938 525.542969 560.6875 526.289062 562.734375 L 527.921875 567.199219 C 528.351562 568.375 528.226562 569.574219 527.585938 570.492188 C 526.910156 571.453125 525.742188 572.003906 524.375 572.003906 " fill-opacity="1" fill-rule="nonzero"/><path fill="#e9dcd3" d="M 497.636719 560.433594 L 502.589844 560.433594 C 504.351562 560.433594 506.097656 561.660156 506.5 563.199219 L 507.671875 567.660156 C 508.101562 569.304688 506.945312 570.660156 505.082031 570.660156 L 499.84375 570.660156 C 497.980469 570.660156 496.199219 569.304688 495.875 567.660156 L 494.996094 563.199219 C 494.6875 561.660156 495.875 560.433594 497.636719 560.433594 " fill-opacity="1" fill-rule="nonzero"/><path fill="#231f20" d="M 497.636719 561.777344 C 497.125 561.777344 496.699219 561.941406 496.46875 562.21875 C 496.3125 562.410156 496.261719 562.65625 496.316406 562.9375 L 497.195312 567.402344 C 497.398438 568.421875 498.636719 569.3125 499.84375 569.3125 L 505.082031 569.3125 C 505.597656 569.3125 506.023438 569.152344 506.242188 568.863281 C 506.457031 568.582031 506.429688 568.242188 506.367188 568 L 505.199219 563.539062 C 504.953125 562.601562 503.730469 561.777344 502.589844 561.777344 Z M 505.082031 572.003906 L 499.84375 572.003906 C 497.328125 572.003906 495.003906 570.210938 494.550781 567.921875 L 493.671875 563.460938 C 493.457031 562.378906 493.710938 561.332031 494.386719 560.507812 C 495.132812 559.605469 496.316406 559.085938 497.636719 559.085938 L 502.589844 559.085938 C 504.957031 559.085938 507.253906 560.742188 507.808594 562.855469 L 508.976562 567.324219 C 509.273438 568.464844 509.054688 569.628906 508.375 570.507812 C 507.640625 571.460938 506.441406 572.003906 505.082031 572.003906 " fill-opacity="1" fill-rule="nonzero"/><path fill="#e9dcd3" d="M 527.59375 545.027344 L 532.109375 545.027344 C 533.71875 545.027344 535.5 546.046875 536.097656 547.324219 L 537.835938 551.023438 C 538.472656 552.378906 537.625 553.496094 535.929688 553.496094 L 531.175781 553.496094 C 529.484375 553.496094 527.660156 552.378906 527.109375 551.023438 L 525.613281 547.324219 C 525.09375 546.046875 525.988281 545.027344 527.59375 545.027344 " fill-opacity="1" fill-rule="nonzero"/><path fill="#231f20" d="M 527.59375 546.371094 C 527.082031 546.371094 526.855469 546.527344 526.816406 546.585938 C 526.808594 546.601562 526.804688 546.679688 526.859375 546.820312 L 528.359375 550.515625 C 528.671875 551.289062 529.941406 552.152344 531.175781 552.152344 L 535.929688 552.152344 C 536.40625 552.152344 536.644531 552.011719 536.6875 551.945312 C 536.707031 551.917969 536.710938 551.796875 536.613281 551.59375 L 534.878906 547.894531 C 534.542969 547.175781 533.285156 546.371094 532.109375 546.371094 Z M 535.929688 554.84375 L 531.175781 554.84375 C 528.949219 554.84375 526.613281 553.382812 525.859375 551.527344 L 524.359375 547.828125 C 523.972656 546.867188 524.054688 545.863281 524.585938 545.082031 C 525.183594 544.1875 526.28125 543.679688 527.59375 543.679688 L 532.109375 543.679688 C 534.261719 543.679688 536.496094 545 537.320312 546.75 L 539.054688 550.453125 C 539.535156 551.472656 539.5 552.542969 538.960938 553.386719 C 538.375 554.3125 537.269531 554.84375 535.929688 554.84375 " fill-opacity="1" fill-rule="nonzero"/><path fill="#e9dcd3" d="M 510.953125 545.027344 L 515.472656 545.027344 C 517.082031 545.027344 518.757812 546.046875 519.226562 547.324219 L 520.574219 551.023438 C 521.070312 552.378906 520.105469 553.496094 518.414062 553.496094 L 513.660156 553.496094 C 511.964844 553.496094 510.257812 552.378906 509.851562 551.023438 L 508.734375 547.324219 C 508.351562 546.046875 509.347656 545.027344 510.953125 545.027344 " fill-opacity="1" fill-rule="nonzero"/><path fill="#231f20" d="M 510.953125 546.371094 C 510.472656 546.371094 510.144531 546.515625 510.042969 546.660156 C 510.015625 546.695312 509.972656 546.753906 510.027344 546.933594 L 511.136719 550.636719 C 511.355469 551.351562 512.476562 552.152344 513.660156 552.152344 L 518.414062 552.152344 C 518.898438 552.152344 519.21875 552.003906 519.316406 551.859375 C 519.371094 551.78125 519.371094 551.652344 519.308594 551.484375 L 517.957031 547.785156 C 517.714844 547.117188 516.597656 546.371094 515.46875 546.371094 Z M 518.414062 554.84375 L 513.660156 554.84375 C 511.378906 554.84375 509.136719 553.332031 508.558594 551.410156 L 507.445312 547.710938 C 507.15625 546.757812 507.3125 545.816406 507.875 545.054688 C 508.527344 544.183594 509.648438 543.679688 510.953125 543.679688 L 515.46875 543.679688 C 517.667969 543.679688 519.824219 545.046875 520.488281 546.863281 L 521.839844 550.558594 C 522.207031 551.558594 522.089844 552.597656 521.523438 553.402344 C 520.886719 554.320312 519.753906 554.84375 518.414062 554.84375 " fill-opacity="1" fill-rule="nonzero"/><path fill="#e9dcd3" d="M 494.316406 545.027344 L 498.832031 545.027344 C 500.441406 545.027344 502.011719 546.046875 502.347656 547.324219 L 503.316406 551.023438 C 503.671875 552.378906 502.589844 553.496094 500.898438 553.496094 L 496.140625 553.496094 C 494.453125 553.496094 492.859375 552.378906 492.589844 551.023438 L 491.859375 547.324219 C 491.605469 546.046875 492.707031 545.027344 494.316406 545.027344 " fill-opacity="1" fill-rule="nonzero"/><path fill="#231f20" d="M 494.316406 546.371094 C 493.757812 546.371094 493.402344 546.5625 493.257812 546.738281 C 493.175781 546.832031 493.152344 546.925781 493.183594 547.0625 L 493.910156 550.761719 C 494.042969 551.417969 495.023438 552.152344 496.140625 552.152344 L 500.898438 552.152344 C 501.460938 552.152344 501.8125 551.960938 501.953125 551.78125 C 502.007812 551.707031 502.070312 551.585938 502.011719 551.363281 L 501.042969 547.664062 C 500.882812 547.054688 499.90625 546.371094 498.832031 546.371094 Z M 500.898438 554.84375 L 496.140625 554.84375 C 493.804688 554.84375 491.660156 553.28125 491.269531 551.28125 L 490.539062 547.585938 C 490.355469 546.65625 490.582031 545.75 491.175781 545.027344 C 491.878906 544.171875 493.023438 543.679688 494.316406 543.679688 L 498.832031 543.679688 C 501.085938 543.679688 503.15625 545.097656 503.648438 546.980469 L 504.617188 550.683594 C 504.875 551.671875 504.6875 552.644531 504.085938 553.425781 C 503.386719 554.324219 502.226562 554.84375 500.898438 554.84375 " fill-opacity="1" fill-rule="nonzero"/><path fill="#e9dcd3" d="M 522.128906 532.097656 L 526.28125 532.097656 C 527.761719 532.097656 529.359375 532.960938 529.867188 534.039062 L 531.328125 537.152344 C 531.863281 538.292969 531.046875 539.230469 529.496094 539.230469 L 525.140625 539.230469 C 523.59375 539.230469 521.957031 538.292969 521.496094 537.152344 L 520.234375 534.039062 C 519.800781 532.960938 520.648438 532.097656 522.128906 532.097656 " fill-opacity="1" fill-rule="nonzero"/><path fill="#231f20" d="M 521.496094 533.558594 L 522.746094 536.648438 C 522.976562 537.21875 524.074219 537.882812 525.140625 537.882812 L 529.496094 537.882812 C 529.832031 537.882812 530.035156 537.816406 530.128906 537.769531 L 530.109375 537.726562 L 528.648438 534.609375 C 528.394531 534.070312 527.308594 533.441406 526.277344 533.441406 L 522.128906 533.441406 C 521.804688 533.441406 521.597656 533.507812 521.496094 533.558594 Z M 529.496094 540.578125 L 525.140625 540.578125 C 523.023438 540.578125 520.917969 539.320312 520.246094 537.65625 L 518.988281 534.542969 C 518.644531 533.691406 518.722656 532.796875 519.203125 532.085938 C 519.773438 531.238281 520.84375 530.75 522.128906 530.75 L 526.277344 530.75 C 528.296875 530.75 530.359375 531.917969 531.089844 533.46875 L 532.546875 536.582031 C 532.96875 537.476562 532.929688 538.425781 532.449219 539.1875 C 531.886719 540.070312 530.8125 540.578125 529.496094 540.578125 " fill-opacity="1" fill-rule="nonzero"/><path fill="#e9dcd3" d="M 506.828125 532.097656 L 510.980469 532.097656 C 512.460938 532.097656 513.972656 532.960938 514.367188 534.039062 L 515.503906 537.152344 C 515.921875 538.292969 515.007812 539.230469 513.457031 539.230469 L 509.105469 539.230469 C 507.554688 539.230469 506.015625 538.292969 505.675781 537.152344 L 504.734375 534.039062 C 504.410156 532.960938 505.351562 532.097656 506.828125 532.097656 " fill-opacity="1" fill-rule="nonzero"/><path fill="#231f20" d="M 506.828125 533.441406 C 506.277344 533.441406 506.035156 533.625 506.003906 533.667969 L 506.960938 536.765625 C 507.097656 537.210938 508.019531 537.882812 509.105469 537.882812 L 513.457031 537.882812 C 514.003906 537.882812 514.238281 537.707031 514.269531 537.664062 L 513.101562 534.5 C 512.949219 534.082031 512.023438 533.441406 510.980469 533.441406 Z M 513.457031 540.578125 L 509.105469 540.578125 C 506.933594 540.578125 504.90625 539.269531 504.382812 537.542969 L 503.445312 534.425781 C 503.191406 533.585938 503.332031 532.746094 503.84375 532.0625 C 504.460938 531.226562 505.550781 530.75 506.828125 530.75 L 510.980469 530.75 C 513.042969 530.75 515.042969 531.964844 515.632812 533.578125 L 516.769531 536.691406 C 517.089844 537.566406 516.984375 538.484375 516.476562 539.207031 C 515.863281 540.078125 514.769531 540.578125 513.457031 540.578125 " fill-opacity="1" fill-rule="nonzero"/><path fill="#e9dcd3" d="M 491.53125 532.097656 L 495.679688 532.097656 C 497.160156 532.097656 498.585938 532.960938 498.867188 534.039062 L 499.679688 537.152344 C 499.980469 538.292969 498.96875 539.230469 497.417969 539.230469 L 493.066406 539.230469 C 491.515625 539.230469 490.074219 538.292969 489.851562 537.152344 L 489.234375 534.039062 C 489.023438 532.960938 490.050781 532.097656 491.53125 532.097656 " fill-opacity="1" fill-rule="nonzero"/><path fill="#231f20" d="M 491.53125 533.441406 C 490.882812 533.441406 490.582031 533.691406 490.554688 533.765625 L 491.171875 536.890625 C 491.25 537.285156 492.046875 537.882812 493.066406 537.882812 L 497.421875 537.882812 C 497.992188 537.882812 498.289062 537.691406 498.367188 537.589844 L 498.378906 537.492188 L 497.5625 534.378906 C 497.464844 534.007812 496.667969 533.441406 495.679688 533.441406 Z M 497.421875 540.578125 L 493.066406 540.578125 C 490.871094 540.578125 488.878906 539.1875 488.527344 537.414062 L 487.910156 534.300781 C 487.753906 533.480469 487.953125 532.675781 488.488281 532.03125 C 489.15625 531.21875 490.265625 530.75 491.53125 530.75 L 495.679688 530.75 C 497.804688 530.75 499.730469 532.019531 500.171875 533.695312 L 500.988281 536.8125 C 501.214844 537.679688 501.042969 538.535156 500.5 539.234375 C 499.84375 540.085938 498.722656 540.578125 497.421875 540.578125 " fill-opacity="1" fill-rule="nonzero"/><path fill="#ff3b78" d="M 328.714844 421.539062 C 328.714844 426.121094 324.996094 429.839844 320.40625 429.839844 C 315.816406 429.839844 312.09375 426.121094 312.09375 421.539062 C 312.09375 416.953125 315.816406 413.234375 320.40625 413.234375 C 324.996094 413.234375 328.714844 416.953125 328.714844 421.539062 " fill-opacity="1" fill-rule="nonzero"/><path fill="#231f20" d="M 320.40625 414.367188 C 316.445312 414.367188 313.226562 417.582031 313.226562 421.539062 C 313.226562 425.488281 316.445312 428.707031 320.40625 428.707031 C 324.363281 428.707031 327.582031 425.488281 327.582031 421.539062 C 327.582031 417.582031 324.363281 414.367188 320.40625 414.367188 Z M 320.40625 430.96875 C 315.195312 430.96875 310.960938 426.742188 310.960938 421.539062 C 310.960938 416.335938 315.195312 412.101562 320.40625 412.101562 C 325.609375 412.101562 329.847656 416.335938 329.847656 421.539062 C 329.847656 426.742188 325.609375 430.96875 320.40625 430.96875 " fill-opacity="1" fill-rule="nonzero"/><path fill="#e9dcd3" d="M 319.820312 414.738281 C 316.066406 414.738281 313.011719 417.789062 313.011719 421.539062 C 313.011719 425.285156 316.066406 428.335938 319.820312 428.335938 C 323.570312 428.335938 326.625 425.285156 326.625 421.539062 C 326.625 417.789062 323.570312 414.738281 319.820312 414.738281 Z M 319.820312 429.242188 C 315.566406 429.242188 312.105469 425.785156 312.105469 421.539062 C 312.105469 417.289062 315.566406 413.832031 319.820312 413.832031 C 324.070312 413.832031 327.53125 417.289062 327.53125 421.539062 C 327.53125 425.785156 324.070312 429.242188 319.820312 429.242188 " fill-opacity="1" fill-rule="nonzero"/><path fill="#303030" d="M 345.359375 422.597656 C 345.359375 421.136719 346.542969 419.953125 348.007812 419.953125 L 364.460938 419.953125 C 365.917969 419.953125 367.105469 421.136719 367.105469 422.597656 C 367.105469 424.054688 365.917969 425.242188 364.460938 425.242188 L 348.007812 425.242188 C 346.542969 425.242188 345.359375 424.054688 345.359375 422.597656 " fill-opacity="1" fill-rule="nonzero"/><path fill="#303030" d="M 348.007812 420.933594 C 347.089844 420.933594 346.339844 421.679688 346.339844 422.597656 C 346.339844 423.515625 347.089844 424.261719 348.007812 424.261719 L 364.460938 424.261719 C 365.375 424.261719 366.125 423.515625 366.125 422.597656 C 366.125 421.679688 365.375 420.933594 364.460938 420.933594 Z M 364.460938 426.222656 L 348.007812 426.222656 C 346.003906 426.222656 344.375 424.597656 344.375 422.597656 C 344.375 420.597656 346.003906 418.96875 348.007812 418.96875 L 364.460938 418.96875 C 366.464844 418.96875 368.089844 420.597656 368.089844 422.597656 C 368.089844 424.597656 366.464844 426.222656 364.460938 426.222656 " fill-opacity="1" fill-rule="nonzero"/><path fill="#008ca1" d="M 346.65625 419.941406 C 345.558594 419.941406 344.664062 420.835938 344.664062 421.933594 C 344.664062 423.03125 345.558594 423.921875 346.65625 423.921875 L 363.109375 423.921875 C 364.207031 423.921875 365.101562 423.03125 365.101562 421.933594 C 365.101562 420.835938 364.207031 419.941406 363.109375 419.941406 Z M 363.109375 425.234375 L 346.65625 425.234375 C 344.832031 425.234375 343.351562 423.753906 343.351562 421.933594 C 343.351562 420.113281 344.832031 418.632812 346.65625 418.632812 L 363.109375 418.632812 C 364.929688 418.632812 366.414062 420.113281 366.414062 421.933594 C 366.414062 423.753906 364.929688 425.234375 363.109375 425.234375 " fill-opacity="1" fill-rule="nonzero"/><path fill="#303030" d="M 374.28125 422.597656 C 374.28125 421.136719 375.464844 419.953125 376.925781 419.953125 L 393.378906 419.953125 C 394.84375 419.953125 396.027344 421.136719 396.027344 422.597656 C 396.027344 424.054688 394.84375 425.242188 393.378906 425.242188 L 376.925781 425.242188 C 375.464844 425.242188 374.28125 424.054688 374.28125 422.597656 " fill-opacity="1" fill-rule="nonzero"/><path fill="#303030" d="M 376.925781 420.933594 C 376.007812 420.933594 375.261719 421.679688 375.261719 422.597656 C 375.261719 423.515625 376.007812 424.261719 376.925781 424.261719 L 393.378906 424.261719 C 394.296875 424.261719 395.046875 423.515625 395.046875 422.597656 C 395.046875 421.679688 394.296875 420.933594 393.378906 420.933594 Z M 393.378906 426.222656 L 376.925781 426.222656 C 374.925781 426.222656 373.296875 424.597656 373.296875 422.597656 C 373.296875 420.597656 374.925781 418.96875 376.925781 418.96875 L 393.378906 418.96875 C 395.382812 418.96875 397.011719 420.597656 397.011719 422.597656 C 397.011719 424.597656 395.382812 426.222656 393.378906 426.222656 " fill-opacity="1" fill-rule="nonzero"/><path fill="#008ca1" d="M 375.578125 419.941406 C 374.480469 419.941406 373.585938 420.835938 373.585938 421.933594 C 373.585938 423.03125 374.480469 423.921875 375.578125 423.921875 L 392.03125 423.921875 C 393.132812 423.921875 394.023438 423.03125 394.023438 421.933594 C 394.023438 420.835938 393.132812 419.941406 392.03125 419.941406 Z M 392.03125 425.234375 L 375.578125 425.234375 C 373.757812 425.234375 372.277344 423.753906 372.277344 421.933594 C 372.277344 420.113281 373.757812 418.632812 375.578125 418.632812 L 392.03125 418.632812 C 393.851562 418.632812 395.332031 420.113281 395.332031 421.933594 C 395.332031 423.753906 393.851562 425.234375 392.03125 425.234375 " fill-opacity="1" fill-rule="nonzero"/><path fill="#303030" d="M 402.507812 422.597656 C 402.507812 421.136719 403.691406 419.953125 405.152344 419.953125 L 421.605469 419.953125 C 423.070312 419.953125 424.257812 421.136719 424.257812 422.597656 C 424.257812 424.054688 423.070312 425.242188 421.605469 425.242188 L 405.152344 425.242188 C 403.691406 425.242188 402.507812 424.054688 402.507812 422.597656 " fill-opacity="1" fill-rule="nonzero"/><path fill="#303030" d="M 405.152344 420.933594 C 404.234375 420.933594 403.492188 421.679688 403.492188 422.597656 C 403.492188 423.515625 404.234375 424.261719 405.152344 424.261719 L 421.605469 424.261719 C 422.527344 424.261719 423.273438 423.515625 423.273438 422.597656 C 423.273438 421.679688 422.527344 420.933594 421.605469 420.933594 Z M 421.605469 426.222656 L 405.152344 426.222656 C 403.152344 426.222656 401.523438 424.597656 401.523438 422.597656 C 401.523438 420.597656 403.152344 418.96875 405.152344 418.96875 L 421.605469 418.96875 C 423.609375 418.96875 425.238281 420.597656 425.238281 422.597656 C 425.238281 424.597656 423.609375 426.222656 421.605469 426.222656 " fill-opacity="1" fill-rule="nonzero"/><path fill="#008ca1" d="M 403.804688 419.941406 C 402.707031 419.941406 401.8125 420.835938 401.8125 421.933594 C 401.8125 423.03125 402.707031 423.921875 403.804688 423.921875 L 420.257812 423.921875 C 421.355469 423.921875 422.25 423.03125 422.25 421.933594 C 422.25 420.835938 421.355469 419.941406 420.257812 419.941406 Z M 420.257812 425.234375 L 403.804688 425.234375 C 401.984375 425.234375 400.503906 423.753906 400.503906 421.933594 C 400.503906 420.113281 401.984375 418.632812 403.804688 418.632812 L 420.257812 418.632812 C 422.078125 418.632812 423.5625 420.113281 423.5625 421.933594 C 423.5625 423.753906 422.078125 425.234375 420.257812 425.234375 " fill-opacity="1" fill-rule="nonzero"/><path fill="#303030" d="M 284.027344 534.195312 C 280.636719 531.632812 276.167969 531.847656 272.226562 532.726562 C 268.046875 533.660156 264.113281 535.40625 260.007812 536.589844 C 258.445312 537.042969 256.972656 537.449219 255.371094 537.289062 C 254.445312 537.195312 253.679688 536.714844 253.292969 535.753906 C 252.371094 533.4375 252.808594 530.390625 253.257812 528.03125 C 253.90625 524.621094 255.199219 521.375 256.929688 518.371094 C 260.351562 512.4375 265.445312 507.027344 271.21875 503.316406 C 276.046875 500.210938 282.140625 499.800781 287.5625 498.355469 C 290.289062 497.628906 293.039062 496.664062 295.382812 495.074219 C 297.992188 493.304688 299.914062 490.851562 301.199219 487.984375 C 302.515625 485.0625 303.246094 481.8125 305.359375 479.316406 C 307.785156 476.453125 311.292969 474.769531 314.640625 473.246094 C 317.9375 471.738281 321.191406 470.230469 324.113281 468.0625 C 326.589844 466.234375 328.773438 464.113281 330.617188 461.648438 C 334.148438 456.933594 336 451.234375 337.148438 445.527344 C 337.460938 443.964844 337.722656 442.394531 337.964844 440.820312 C 338.230469 439.082031 335.566406 438.332031 335.300781 440.085938 C 334.386719 446.046875 333.148438 452.144531 330.101562 457.421875 C 326.765625 463.199219 321.5 467.0625 315.527344 469.824219 C 312.066406 471.421875 308.570312 472.902344 305.566406 475.300781 C 302.734375 477.5625 301.144531 480.523438 299.886719 483.855469 C 298.75 486.882812 297.488281 489.828125 294.957031 491.964844 C 292.804688 493.777344 290.085938 494.785156 287.410156 495.53125 C 281.796875 497.109375 275.6875 497.554688 270.542969 500.5 C 267.691406 502.128906 265.070312 504.414062 262.710938 506.683594 C 260.117188 509.175781 257.769531 511.953125 255.789062 514.960938 C 252.144531 520.507812 249.425781 527.542969 250.167969 534.285156 C 250.359375 535.988281 250.859375 537.734375 252.230469 538.867188 C 253.457031 539.882812 255.078125 540.164062 256.632812 540.054688 C 260.652344 539.773438 264.496094 537.976562 268.273438 536.726562 C 271.996094 535.496094 276.382812 534.070312 280.289062 535.316406 C 281.144531 535.59375 281.917969 536.035156 282.632812 536.578125 C 284.054688 537.648438 285.429688 535.257812 284.027344 534.195312 " fill-opacity="1" fill-rule="nonzero"/></svg>