<svg xmlns="http://www.w3.org/2000/svg" xmlns:xlink="http://www.w3.org/1999/xlink" width="1080" zoomAndPan="magnify" viewBox="0 0 810 809.999993" height="1080" preserveAspectRatio="xMidYMid meet" version="1.0"><defs><clipPath id="04148c0c86"><path d="M 282 309.558594 L 563 309.558594 L 563 590.808594 L 282 590.808594 Z M 282 309.558594 " clip-rule="nonzero"/></clipPath><clipPath id="7bbf506982"><path d="M 323 309.558594 L 522 309.558594 L 522 430 L 323 430 Z M 323 309.558594 " clip-rule="nonzero"/></clipPath><clipPath id="c5d0f5cd4e"><path d="M 362 309.558594 L 522 309.558594 L 522 430 L 362 430 Z M 362 309.558594 " clip-rule="nonzero"/></clipPath><clipPath id="51dad0e59b"><path d="M 316 452 L 529 452 L 529 590.808594 L 316 590.808594 Z M 316 452 " clip-rule="nonzero"/></clipPath></defs><path fill="#ffb439" d="M 553.34375 587.921875 L 291.609375 587.921875 C 287.75 587.921875 284.625 584.800781 284.625 580.945312 L 284.625 331.453125 C 284.625 320.710938 293.335938 312 304.082031 312 L 514.695312 312 C 519.625 312 524.359375 313.929688 527.882812 317.386719 C 536.679688 326.015625 546.378906 334.808594 555.160156 344.128906 C 558.464844 347.640625 560.324219 352.277344 560.324219 357.101562 L 560.324219 580.945312 C 560.324219 584.800781 557.199219 587.921875 553.34375 587.921875 " fill-opacity="1" fill-rule="nonzero"/><g clip-path="url(#04148c0c86)"><path fill="#231f20" d="M 304.082031 314.410156 C 294.683594 314.410156 287.039062 322.058594 287.039062 331.453125 L 287.039062 580.945312 C 287.039062 583.464844 289.089844 585.511719 291.609375 585.511719 L 553.34375 585.511719 C 555.859375 585.511719 557.910156 583.464844 557.910156 580.945312 L 557.910156 357.101562 C 557.910156 352.890625 556.308594 348.871094 553.402344 345.785156 C 547.59375 339.621094 541.320312 333.628906 535.25 327.832031 C 532.246094 324.964844 529.136719 321.996094 526.195312 319.109375 C 523.109375 316.082031 519.023438 314.410156 514.695312 314.410156 Z M 553.34375 590.335938 L 291.609375 590.335938 C 286.429688 590.335938 282.214844 586.125 282.214844 580.945312 L 282.214844 331.453125 C 282.214844 319.394531 292.023438 309.585938 304.082031 309.585938 L 514.695312 309.585938 C 520.296875 309.585938 525.578125 311.746094 529.574219 315.664062 C 532.492188 318.527344 535.449219 321.351562 538.582031 324.34375 C 544.699219 330.179688 551.015625 336.214844 556.914062 342.472656 C 560.667969 346.457031 562.738281 351.652344 562.738281 357.101562 L 562.738281 580.945312 C 562.738281 586.125 558.523438 590.335938 553.34375 590.335938 " fill-opacity="1" fill-rule="nonzero"/></g><path fill="#ffab31" d="M 513.769531 426.96875 L 331.179688 426.96875 C 328.515625 426.96875 326.355469 424.804688 326.355469 422.144531 L 326.355469 312.339844 L 513.769531 312.339844 C 516.4375 312.339844 518.597656 314.5 518.597656 317.164062 L 518.597656 422.144531 C 518.597656 424.804688 516.4375 426.96875 513.769531 426.96875 " fill-opacity="1" fill-rule="nonzero"/><g clip-path="url(#7bbf506982)"><path fill="#231f20" d="M 328.765625 314.75 L 328.765625 422.144531 C 328.765625 423.472656 329.847656 424.558594 331.179688 424.558594 L 513.769531 424.558594 C 515.101562 424.558594 516.183594 423.472656 516.183594 422.144531 L 516.183594 317.164062 C 516.183594 315.832031 515.101562 314.75 513.769531 314.75 Z M 513.769531 429.382812 L 331.179688 429.382812 C 327.191406 429.382812 323.941406 426.132812 323.941406 422.144531 L 323.941406 309.925781 L 513.769531 309.925781 C 517.757812 309.925781 521.007812 313.171875 521.007812 317.164062 L 521.007812 422.144531 C 521.007812 426.132812 517.757812 429.382812 513.769531 429.382812 " fill-opacity="1" fill-rule="nonzero"/></g><path fill="#303030" d="M 509.648438 426.96875 L 374.246094 426.96875 C 369.308594 426.96875 365.304688 422.964844 365.304688 418.023438 L 365.304688 321.28125 C 365.304688 316.34375 369.308594 312.339844 374.246094 312.339844 L 509.648438 312.339844 C 514.589844 312.339844 518.597656 316.34375 518.597656 321.28125 L 518.597656 418.023438 C 518.597656 422.964844 514.589844 426.96875 509.648438 426.96875 " fill-opacity="1" fill-rule="nonzero"/><g clip-path="url(#c5d0f5cd4e)"><path fill="#000000" d="M 374.246094 314.75 C 370.648438 314.75 367.71875 317.679688 367.71875 321.28125 L 367.71875 418.023438 C 367.71875 421.625 370.648438 424.558594 374.246094 424.558594 L 509.648438 424.558594 C 513.253906 424.558594 516.183594 421.625 516.183594 418.023438 L 516.183594 321.28125 C 516.183594 317.679688 513.253906 314.75 509.648438 314.75 Z M 509.648438 429.382812 L 374.246094 429.382812 C 367.984375 429.382812 362.890625 424.285156 362.890625 418.023438 L 362.890625 321.28125 C 362.890625 315.019531 367.984375 309.925781 374.246094 309.925781 L 509.648438 309.925781 C 515.910156 309.925781 521.007812 315.019531 521.007812 321.28125 L 521.007812 418.023438 C 521.007812 424.285156 515.910156 429.382812 509.648438 429.382812 " fill-opacity="1" fill-rule="nonzero"/></g><path fill="#ffab31" d="M 505.648438 414.53125 L 471.585938 414.53125 L 471.585938 324.777344 L 505.648438 324.777344 L 505.648438 414.53125 " fill-opacity="1" fill-rule="nonzero"/><path fill="#231f20" d="M 474 412.121094 L 503.238281 412.121094 L 503.238281 327.1875 L 474 327.1875 Z M 508.0625 416.945312 L 469.171875 416.945312 L 469.171875 322.363281 L 508.0625 322.363281 L 508.0625 416.945312 " fill-opacity="1" fill-rule="nonzero"/><path fill="#e9dcd3" d="M 318.769531 588.40625 L 318.769531 462.566406 C 318.769531 458.574219 322.015625 455.328125 326.007812 455.328125 L 518.941406 455.328125 C 522.9375 455.328125 526.183594 458.574219 526.183594 462.566406 L 526.183594 588.40625 L 318.769531 588.40625 " fill-opacity="1" fill-rule="nonzero"/><g clip-path="url(#51dad0e59b)"><path fill="#231f20" d="M 518.941406 452.914062 L 326.007812 452.914062 C 320.683594 452.914062 316.355469 457.246094 316.355469 462.566406 L 316.355469 590.820312 L 528.59375 590.820312 L 528.59375 462.566406 C 528.59375 457.246094 524.265625 452.914062 518.941406 452.914062 Z M 518.941406 457.738281 C 521.609375 457.738281 523.769531 459.898438 523.769531 462.566406 L 523.769531 585.992188 L 321.183594 585.992188 L 321.183594 462.566406 C 321.183594 459.898438 323.34375 457.738281 326.007812 457.738281 L 518.941406 457.738281 " fill-opacity="1" fill-rule="nonzero"/></g><path fill="#231f20" d="M 508.375 553.289062 L 336.007812 553.289062 L 336.007812 551.359375 L 508.375 551.359375 L 508.375 553.289062 " fill-opacity="1" fill-rule="nonzero"/><path fill="#231f20" d="M 508.375 566.921875 L 336.007812 566.921875 L 336.007812 564.988281 L 508.375 564.988281 L 508.375 566.921875 " fill-opacity="1" fill-rule="nonzero"/><path fill="#231f20" d="M 508.375 485.164062 L 336.007812 485.164062 L 336.007812 483.234375 L 508.375 483.234375 L 508.375 485.164062 " fill-opacity="1" fill-rule="nonzero"/><path fill="#ff92af" d="M 508.375 470.714844 L 336.007812 470.714844 L 336.007812 458.167969 L 508.375 458.167969 L 508.375 470.714844 " fill-opacity="1" fill-rule="nonzero"/><path fill="#231f20" d="M 508.375 498.789062 L 336.007812 498.789062 L 336.007812 496.859375 L 508.375 496.859375 L 508.375 498.789062 " fill-opacity="1" fill-rule="nonzero"/><path fill="#231f20" d="M 508.375 512.414062 L 336.007812 512.414062 L 336.007812 510.484375 L 508.375 510.484375 L 508.375 512.414062 " fill-opacity="1" fill-rule="nonzero"/><path fill="#231f20" d="M 508.375 526.039062 L 336.007812 526.039062 L 336.007812 524.109375 L 508.375 524.109375 L 508.375 526.039062 " fill-opacity="1" fill-rule="nonzero"/><path fill="#231f20" d="M 508.375 539.664062 L 336.007812 539.664062 L 336.007812 537.734375 L 508.375 537.734375 L 508.375 539.664062 " fill-opacity="1" fill-rule="nonzero"/><path fill="#ffab31" d="M 306.710938 577.535156 L 293.769531 577.535156 L 293.769531 560.503906 L 306.710938 560.503906 L 306.710938 577.535156 " fill-opacity="1" fill-rule="nonzero"/><path fill="#231f20" d="M 296.183594 575.125 L 304.300781 575.125 L 304.300781 562.917969 L 296.183594 562.917969 Z M 309.125 579.949219 L 291.355469 579.949219 L 291.355469 558.089844 L 309.125 558.089844 L 309.125 579.949219 " fill-opacity="1" fill-rule="nonzero"/><path fill="#ffab31" d="M 550.617188 577.535156 L 537.667969 577.535156 L 537.667969 560.503906 L 550.617188 560.503906 L 550.617188 577.535156 " fill-opacity="1" fill-rule="nonzero"/><path fill="#231f20" d="M 540.082031 575.125 L 548.203125 575.125 L 548.203125 562.917969 L 540.082031 562.917969 Z M 553.03125 579.949219 L 535.257812 579.949219 L 535.257812 558.089844 L 553.03125 558.089844 L 553.03125 579.949219 " fill-opacity="1" fill-rule="nonzero"/></svg>