<svg xmlns="http://www.w3.org/2000/svg" xmlns:xlink="http://www.w3.org/1999/xlink" width="1080" zoomAndPan="magnify" viewBox="0 0 810 809.999993" height="1080" preserveAspectRatio="xMidYMid meet" version="1.0"><defs><clipPath id="9f09d5ca91"><path d="M 310 242.851562 L 482.898438 242.851562 L 482.898438 567.601562 L 310 567.601562 Z M 310 242.851562 " clip-rule="nonzero"/></clipPath><clipPath id="13033003f8"><path d="M 293.148438 242.851562 L 472 242.851562 L 472 567 L 293.148438 567 Z M 293.148438 242.851562 " clip-rule="nonzero"/></clipPath></defs><path fill="#ffb439" d="M 400.761719 367.863281 L 434.816406 365.632812 L 471.328125 355.859375 L 480.285156 364.21875 L 458.871094 403.992188 C 444.582031 433.84375 373.539062 534.621094 350.195312 559.058594 C 344.222656 561.871094 332.273438 564.601562 332.273438 564.601562 C 332.273438 564.601562 366.1875 494.972656 373.421875 474.761719 C 381.15625 453.152344 396.097656 408.039062 396.097656 408.039062 L 356.015625 412.132812 L 313.710938 419.09375 C 323.113281 388.03125 353.421875 286.71875 363.453125 253.582031 L 453.128906 245.171875 L 462.375 253.582031 L 442.824219 286.980469 L 398.882812 367.984375 L 400.761719 367.863281 " fill-opacity="1" fill-rule="nonzero"/><g clip-path="url(#9f09d5ca91)"><path fill="#231f20" d="M 399.109375 405.621094 L 398.089844 408.699219 C 397.941406 409.152344 383.050781 454.089844 375.394531 475.472656 C 369.128906 492.980469 343.515625 546.207031 336.121094 561.480469 C 339.941406 560.480469 345.4375 558.90625 348.957031 557.316406 C 373.019531 531.921875 443.382812 431.492188 456.980469 403.082031 L 457.023438 402.996094 L 477.671875 364.648438 L 470.75 358.191406 L 435.160156 367.714844 L 434.953125 367.726562 L 395.21875 370.332031 L 440.980469 285.980469 L 459.703125 253.992188 L 452.402344 247.347656 L 365.050781 255.542969 C 359.808594 272.878906 349.644531 306.769531 339.800781 339.574219 C 330.453125 370.734375 321.585938 400.28125 316.699219 416.472656 L 355.804688 410.042969 Z M 328.460938 567.632812 L 330.386719 563.683594 C 330.726562 562.984375 364.335938 493.925781 371.445312 474.054688 C 377.917969 455.976562 389.574219 421.007812 393.082031 410.460938 L 356.292969 414.21875 L 310.730469 421.714844 L 311.707031 418.480469 C 316.320312 403.242188 325.773438 371.726562 335.78125 338.363281 C 345.886719 304.679688 356.335938 269.851562 361.441406 252.976562 L 361.851562 251.621094 L 453.851562 242.988281 L 465.046875 253.175781 L 444.632812 288.046875 L 402.542969 365.636719 L 434.472656 363.546875 L 471.910156 353.527344 L 482.902344 363.789062 L 460.742188 404.949219 C 446.570312 434.503906 376.304688 534.765625 351.710938 560.511719 L 351.441406 560.796875 L 351.085938 560.964844 C 344.980469 563.832031 333.234375 566.535156 332.742188 566.652344 L 328.460938 567.632812 " fill-opacity="1" fill-rule="nonzero"/></g><path fill="#ff3b78" d="M 388.554688 360.414062 L 468.230469 355.804688 L 446.8125 395.582031 C 432.527344 425.429688 356.707031 534.621094 333.367188 559.058594 C 342.144531 526.402344 378.621094 416.304688 378.621094 416.304688 L 338.539062 420.398438 L 296.238281 427.359375 C 305.636719 396.292969 340.757812 281.859375 350.789062 248.726562 L 450.320312 245.171875 L 430.769531 278.566406 L 386.675781 360.539062 L 388.554688 360.414062 " fill-opacity="1" fill-rule="nonzero"/><g clip-path="url(#13033003f8)"><path fill="#000000" d="M 381.691406 413.835938 L 380.652344 416.980469 C 380.316406 417.992188 349.570312 510.832031 337.960938 550.648438 C 366.066406 517.238281 431.96875 421.640625 444.886719 394.65625 L 444.9375 394.5625 L 464.53125 358.164062 L 388.679688 362.554688 L 382.960938 362.929688 L 428.886719 277.550781 L 446.507812 247.449219 L 352.386719 250.8125 C 347.09375 268.292969 335.785156 305.246094 324.839844 341.015625 C 314.3125 375.425781 304.332031 408.054688 299.28125 424.691406 L 338.324219 418.269531 Z M 329.128906 566.59375 L 331.300781 558.503906 C 339.160156 529.257812 369.535156 437.007812 375.554688 418.769531 L 338.820312 422.523438 L 293.195312 430.03125 L 294.195312 426.738281 C 298.824219 411.421875 309.476562 376.613281 320.753906 339.761719 C 332.011719 302.957031 343.652344 264.90625 348.742188 248.105469 L 349.183594 246.640625 L 454.132812 242.886719 L 432.613281 279.652344 L 390.378906 358.164062 L 471.929688 353.445312 L 448.71875 396.554688 C 434.1875 426.867188 358.714844 535.617188 334.910156 560.539062 L 329.128906 566.59375 " fill-opacity="1" fill-rule="nonzero"/></g></svg>